<svg xmlns="http://www.w3.org/2000/svg" width="18" height="30" viewBox="0 0 18 30"><svg xmlns:xlink="http://www.w3.org/1999/xlink" height="15" width="18" preserveAspectRatio="xMidYMid" viewBox="0 0 18 15" y="0"><defs><style>.cls-2 {        fill: #ea8a83;      }</style></defs><path class="cls-2" fill-rule="evenodd" d="m8.608 15.1s-8.608-4.4-8.608-9.7c-0.004-6.1 6.4-7.3 8.6-2.1 2.119-5 8.6-4.1 8.6 2 0 5.8-8.6 9.8-8.6 9.8zm-0.013-10.2c-1.944-4.5-7.495-5.9-7.495 0.8-0.01 4.6 7.5 8.4 7.5 8.4 0 0 7.5-3.4 7.5-8.4 0.006-6.8-5.7-5.1-7.5-0.8z"/></svg><svg xmlns:xlink="http://www.w3.org/1999/xlink" height="15" width="18" preserveAspectRatio="xMidYMid" viewBox="0 0 18 15" y="15"><defs><style>.cls-2 {fill: #e98780;}</style></defs><path fill-rule="evenodd" d="m8.595 3.3c-2.227-5.2-8.595-4-8.595 2.1-0.004 5.3 8.6 9.7 8.6 9.7 0 0 8.6-4 8.6-9.8 0.002-6.1-6.5-7-8.6-2z" class="cls-2"/></svg></svg>