<svg width="18.2" height="15.5" xmlns="http://www.w3.org/2000/svg"><path fill="none" d="M0 0h20.2v17.5H0z"/><path fill="#E58982" d="M8.222 9.682a4.525 4.525 0 10-7.236.002l2.785 4.178a1 1 0 001.665 0l2.786-4.18z" clip-rule="evenodd" fill-rule="evenodd"/><path fill="#fff" d="M7.014 8.935c.38-.522.605-1.17.605-1.873 0-1.72-1.35-3.115-3.016-3.115S1.586 5.342 1.586 7.062c0 .703.225 1.35.605 1.872l2.244 3.476a.2.2 0 00.336 0l2.243-3.475z" clip-rule="evenodd" fill-rule="evenodd"/><circle fill="#E58982" r="1.508" cy="6.963" cx="4.603"/><path fill="#E58982" d="M9.703 4.52h5.727a.6.6 0 01.6.552l.656 8.13a.6.6 0 01-.598.648h-7.29a.6.6 0 01-.598-.648l.174-2.153-1.592 2.39-.05.688c-.053.7.501 1.295 1.202 1.295h8.937c.704 0 1.26-.6 1.203-1.302l-.767-9.67a1.508 1.508 0 00-1.503-1.389H8.946c-.1 0-.197.01-.292.03.428.408.785.892 1.05 1.43zm-.182-1.459a2.885 2.885 0 015.771 0H13.85a1.443 1.443 0 10-2.885 0H9.521z" clip-rule="evenodd" fill-rule="evenodd"/><path fill="#E58982" d="M13.85 3.061h1.442v2.165a.721.721 0 01-1.443 0V3.061z"/><path fill="#E58982" d="M10.157 5.942a5.038 5.038 0 00-.636-1.76v-1.12h1.443v2.163a.721.721 0 01-.807.717z" clip-rule="evenodd" fill-rule="evenodd"/><path fill="#E58982" d="M9.078 3.176l7 1 1 10h-9.5l-.5-.5c1.5-3.5 4.5-6.5 2-10.5z"/></svg>