<svg height="313" viewBox="0 0 313 313" width="313" xmlns="http://www.w3.org/2000/svg"><g fill="none" fill-rule="evenodd"><path d="m119.5 0c65.998028 0 119.5 53.5019724 119.5 119.5 0 65.998028-53.501972 119.5-119.5 119.5-65.9980276 0-119.5-53.501972-119.5-119.5 0-65.9980276 53.5019724-119.5 119.5-119.5zm27.97 90.59-51.72 8.28-.42 3c-.182156.696929-.292728 1.410624-.33 2.13 2.182674-.032288 4.365563.047818 6.54.24 2.185055.144323 4.191964 1.255425 5.47408 3.030664 1.282117 1.775239 1.705901 4.029709 1.15592 6.149336-.134398 1.251624-.344787 2.493917-.63 3.72-3.54 12.42-7.05 25.14-10.53 37.38s-7.29 24.39-10.29 36.72c-3.42 14.04 5.73 23.79 20.04 22.17 6.12098-.729747 11.917653-3.150222 16.74-6.99 9.18-6.96 15.36-16.26 21.36-26.28l-4.17-2.52c-2.97 4.02-5.61 7.89-8.61 11.46-2.071698 2.442489-4.428482 4.628054-7.02 6.51-1.311491.704025-2.888509.704025-4.2 0-1.186359-1.061106-1.86311-2.578339-1.86-4.17.204271-2.195537.698573-4.354326 1.47-6.42 7.56-26.38 15.09-52.67 22.59-78.87l.81-3zm-14.1-66.06c-10.289065 0-18.63 8.3409351-18.63 18.63-.047942 4.9593218 1.880372 9.7337099 5.359048 13.2686755 3.478677 3.5349656 8.2215 5.539662 13.180952 5.5713245 10.351302-.0822738 18.70387-8.4883839 18.72-18.84 0-10.2890649-8.340935-18.63-18.63-18.63z" fill="#878787" fill-rule="nonzero" transform="translate(37 37)"/><circle cx="156.5" cy="156.5" r="148.5" stroke="#878787" stroke-width="16"/></g></svg>