<?xml version="1.0" encoding="utf-8"?><svg xmlns="http://www.w3.org/2000/svg" xmlns:xlink="http://www.w3.org/1999/xlink" width="322" height="1390" viewBox="0 0 322 1390"><defs><symbol id="logoFull" width="156" height="32" viewBox="0px 0 156 32"><path d="m154.6 12.04c-.066.451-.492.814-.949.807 0 0-2.163-.033-3.623-.033-1.669 0-2.087.023-2.156.417-.046.371.255.534 1.182.834 0 0 1.879.605 1.879.605.434.139 1.106.448 1.495.686 0 0 2.053 1.259 1.821 3.138-.348 2.945-2.365 3.432-5.751 3.432-1.29 0-3.912-.192-6.136-.256 0 0-2.334 0-2.334 0-.455 0-.979-.341-1.162-.758 0 0-1.303-2.959-1.303-2.959-.184-.417-.681-.62-1.105-.453 0 0-.227.09-.714.252-.012.191-.075.717-.14 1.169 0 0-.276 1.93-.276 1.93-.064.451-.489.82-.946.82 0 0-2.563 0-2.563 0-.455 0-.776-.369-.713-.821 0 0 2.042-14.59 2.042-14.59.064-.451.488-.821.943-.821 0 0 2.564 0 2.564 0 .455 0 .777.37.716.821 0 0-.68 4.967-.68 4.967-.062.451-.202 1.183-.311 1.625 0 0-.265 1.074-.729 2.048 1.971-1.066 3.769-4.04 3.769-4.04.235-.39.801-.709 1.256-.709 0 0 3.485 0 3.485 0-.627 2.573-2.111 4.266-3.873 5.472.534.417.905.974 1.137 1.507 0 0 .853 1.817.853 1.817 1.418.006 3.915.015 4.828.015 2.528 0 3.038-.117 3.107-.556.047-.372-.511-.554-.511-.554-.433-.141-1.14-.378-1.571-.526 0 0-1.79-.612-1.79-.612-2.063-.696-2.713-2.02-2.458-3.803.278-2.063 1.6-3.083 5.379-3.083 1.786.023 4.244.231 5.589.51 0 0-.251 1.707-.251 1.707zm-24.468 1.186c0 0-2.123-.013-2.123-.013-.455-.003-1.189.087-1.631.198 0 0-1.493.377-1.77 2.464-.301 2.296.093 2.713 1.762 2.713.882 0 2.93-.132 2.93-.132.455-.03.868.317.919.769 0 0 .21 1.89.21 1.89-1.438.627-3.246.835-4.824.835-4.057 0-6-1.762-5.379-6.214.58-4.197 2.18-5.913 6.423-5.913 1.6 0 3.548.255 4.893.834 0 0-.397 1.766-.397 1.766-.1.444-.554.806-1.01.803zm-11.174 7.625c-.063.452-.487.821-.942.821 0 0-1.636 0-1.636 0-.455 0-.832-.373-.837-.828 0 0-.005-.407-.005-.407-.005-.456-.309-.607-.675-.335 0 0-2.557 1.894-4.181 1.894-2.318 0-3.385-1.228-3.083-3.292 0 0 1.068-7.736 1.068-7.736.063-.451.486-.821.942-.821 0 0 2.586 0 2.586 0 .456 0 .775.37.71.82 0 0-.829 5.734-.829 5.734-.066.451-.055 1.187.024 1.636 0 0 .02.111.53.111.835 0 1.508-.371 2.644-1.276 0 0 .881-6.205.881-6.205.064-.451.489-.821.946-.821 0 0 2.517 0 2.517 0 .455 0 .777.37.714.821 0 0-1.372 9.883-1.372 9.883zm-18.36 1.099c-1.739 0-4.986-.325-6.377-.928 0 0 2.066-14.761 2.066-14.761.063-.451.487-.821.943-.821 0 0 2.563 0 2.563 0 .455 0 .779.37.721.822 0 0-.333 2.54-.333 2.54-.092 1.021-.301 1.948-.696 2.945 1.137-1.09 2.667-1.901 4.29-1.901 2.783 0 3.896 1.786 3.246 6.145-.534 3.641-1.971 5.959-6.423 5.959m1.437-8.789c-.834 0-1.9.687-1.9.687-.383.247-.75.818-.818 1.269 0 0-.574 3.865-.574 3.865.556.045 1.089.069 1.437.045 1.646-.045 2.157-.603 2.574-3.338.301-2.111.139-2.528-.719-2.528m-8.624 6.911c-.649 5.24-3.617 6.354-7.257 6.354-.789 0-3.247-.07-4.755-.719 0 0 .152-1.541.152-1.541.044-.453.453-.818.908-.809 0 0 .471.008 2.257.008 2.156 0 3.803-.394 4.475-1.762.417-.835.465-1.717.951-2.528-1.09 1.646-2.783 2.644-4.893 2.713-3.061.117-3.918-2.04-3.293-6.145.835-5.448 2.899-5.819 6.05-5.819 2.76 0 5.932.572 5.932.572.449.081.764.516.7.967 0 0-1.229 8.71-1.229 8.71m-3.981-7.365c0 0-.61-.0001-.61-.0001-1.878 0-2.202.534-2.573 2.876-.417 2.619-.231 3.2.696 3.083.928-.116 1.901-.882 2.759-2.02 0 0 .441-3.099.441-3.099.064-.451-.257-.827-.712-.833zm-9.761 8.963c0 0-1.612 0-1.612 0-.455 0-.828-.373-.828-.828 0 0 0-.523 0-.523 0-.455-.276-.577-.613-.27 0 0-1.984 1.807-3.978 1.9-3.154.162-3.918-2.11-3.293-6.308.835-5.426 3.246-5.819 7.07-5.819 1.645 0 4.568.393 5.658.718 0 0-1.461 10.31-1.461 10.31-.064.451-.489.82-.946.82m-2.922-8.964c0 0-.539-.009-.539-.009-1.508 0-2.204.301-2.574 2.876-.372 2.643-.324 3.13.649 3.083.882-.046 1.878-.882 2.737-2.02 0 0 .44-3.099.44-3.099.064-.451-.256-.827-.712-.834m-7.911 2.681c-.394 1.438-.858 2.783-1.345 3.779-.811 1.762-1.693 2.504-4.313 2.504 0 0-.933 0-.933 0-.456 0-1.174-.141-1.595-.315 0 0-.417-.172-.417-.798 0 0-.186-7.05-.186-7.05-.012-.455-.09-.828-.173-.828s-.196.37-.251.822c0 0-.155 1.258-.41 2.558-.209 1.02-.463 1.953-.742 2.719-.835 2.713-2.249 2.898-4.266 2.898 0 0-1.398 0-1.398 0-.455 0-1.172-.145-1.592-.321 0 0-.396-.166-.443-.792 0 0-.768-9.608-.768-9.608-.037-.454.307-.826.762-.826 0 0 2.633 0 2.633 0 .455 0 .839.372.853.828 0 0 .206 7.178.206 7.178.013.455.107.828.21.828.463 0 .742-.417 1.044-1.368.209-.603.394-1.391.58-2.366.209-1.112.348-2.202.626-4.03.07-.487.441-1.044 1.229-1.044 0 0 2.812 0 2.812 0 .455 0 1.174.139 1.596.311 0 0 .322.13.346.733 0 0 .29 6.94.29 6.94.019.455.076.828.127.828.052 0 .361-.259.689-.575 0 0 .077-.074.309-.955.301-.928.487-1.693.742-2.783.278-1.321.487-2.713.649-4.499 0 0 3.391 0 3.391 0 .456 0 .765.367.686.817 0 0-.484 2.778-.948 4.424m-20.659-2.54c0 0-2.163-.033-3.624-.033-1.669 0-2.086.023-2.156.417-.046.371.255.534 1.183.834 0 0 1.878.605 1.878.605.434.139 1.107.448 1.495.686 0 0 2.053 1.259 1.822 3.138-.348 2.945-2.366 3.432-5.751 3.432-1.786 0-3.293-.094-5.519-.465 0 0 .235-1.706.235-1.706.062-.452.486-.818.941-.813 0 0 1.653.015 2.951.015 2.528 0 3.038-.117 3.107-.556.046-.372-.511-.554-.511-.554-.434-.141-1.141-.378-1.571-.526 0 0-1.79-.612-1.79-.612-2.065-.696-2.714-2.02-2.458-3.803.278-2.063 1.6-3.083 5.379-3.083 1.786.023 4.244.231 5.589.51 0 0-.251 1.707-.251 1.707-.066.451-.493.814-.949.807m-27.573 16.8c-.078.079.873-.878.795-.81 0 0-.227.226-.227.226-3.313 3.313-6.66 3.275-10.04-.109 0 0-8.604-8.604-8.604-8.604-3.341-3.34-3.357-6.667-.045-9.979 0 0 6.979-6.979 6.979-6.979.102-.102.202-.191.302-.276 0 0 .559-.561.559-.561 3.304-3.372 6.628-3.386 9.937-.077 0 0 2.452 2.452 2.452 2.452 1.161 1.147 1.19 2.272.088 3.374-1.08 1.066-2.19 1.051-3.331-.044 0 0-2.538-2.54-2.538-2.54-1.067-1.08-2.18-1.039-3.341.122 0 0-.756.756-.756.756-.013.013-.024.027-.037.04 0 0-7.07 7.07-7.07 7.07-1.082 1.067-1.043 2.182.12 3.346 0 0 8.67 8.67 8.67 8.67 1.125 1.125 2.252 1.125 3.379 0 0 0 .703-.69.703-.69s8.02-8.02 8.02-8.02c1.115-1.116 1.299-2.062.549-2.841-.741-.742-1.673-.566-2.796.527 0 0-4.768 4.769-4.768 4.769-3.377 3.406-6.578 3.589-9.6.549-2.987-2.942-2.796-6.097.572-9.465 0 0 2.957-2.936 2.957-2.936 1.124-1.123 2.238-1.13 3.346-.024 1.086 1.131 1.105 2.243.058 3.337 0 0-2.958 2.957-2.958 2.957-1.145 1.145-1.336 2.099-.572 2.862.717.718 1.654.502 2.807-.65 0 0 4.768-4.77 4.768-4.77 3.406-3.301 6.578-3.477 9.511-.527 2.972 3 2.795 6.173-.527 9.51 0 0-9.358 9.337-9.358 9.337z"/></symbol><symbol id="logoIcon" width="34" height="32" viewBox="0px 0 34 32"><path d="m21.619 11.349c0 0-4.92 4.776-4.92 4.776-1.189 1.153-2.154 1.37-2.895.651-.788-.765-.589-1.72.59-2.866 0 0 3.051-2.962 3.051-2.962 1.081-1.096 1.061-2.209-.058-3.341-1.144-1.109-2.294-1.101-3.452.023 0 0-3.051 2.94-3.051 2.94-3.475 3.372-3.672 6.532-.59 9.477 3.119 3.044 6.421 2.861 9.905-.55 0 0 4.919-4.775 4.919-4.775 1.158-1.094 2.12-1.271 2.884-.529.773.779.584 1.728-.567 2.845 0 0-8.274 8.03-8.274 8.03s-.726.69-.726.69c-1.161 1.128-2.325 1.128-3.485 0 0 0-8.943-8.68-8.943-8.68-1.199-1.165-1.24-2.282-.124-3.351 0 0 7.289-7.08 7.289-7.08.013-.014.025-.028.038-.042 0 0 .779-.756.779-.756 1.198-1.163 2.346-1.203 3.448-.122 0 0 2.618 2.543 2.618 2.543 1.177 1.096 2.323 1.113 3.436.044 1.139-1.105 1.108-2.231-.091-3.379 0 0-2.529-2.455-2.529-2.455-3.413-3.313-6.841-3.299-10.25.077 0 0-.577.562-.577.562-.103.085-.206.173-.312.276 0 0-7.2 6.987-7.2 6.987-3.416 3.317-3.399 6.648.046 9.992 0 0 8.877 8.615 8.877 8.615 3.491 3.39 6.945 3.427 10.361.11 0 0 .235-.227.235-.227.081-.068-.902.891-.821.811 0 0 9.655-9.348 9.655-9.348 3.427-3.342 3.61-6.517.544-9.524-3.03-2.952-6.298-2.777-9.812.529z"/></symbol><symbol id="inbox" width="20" height="16" viewBox="0px 0 20 16"><path d="M 20 10 L 20 16 L 0 16 L 0 10 L 0 10 L 5 0 L 15 0 L 20 10 L 20 10 L 20 10 Z M 14 1 L 6 1 L 2 10 L 7 10 C 7 11.66 8.34 13 10 13 C 11.66 13 13 11.66 13 10 L 18 10 L 14 1 L 14 1 Z M 14 1"/></symbol><symbol id="refer" width="29" height="24" viewBox="0px 0 29 24"><path d="M 23.5 23.09 C 20.96 23.09 18.91 21.03 18.91 18.5 C 18.91 15.96 20.96 13.9 23.5 13.9 C 26.04 13.9 28.1 15.96 28.1 18.5 C 28.1 21.03 26.04 23.09 23.5 23.09 L 23.5 23.09 Z M 26 18 L 24 18 L 24 16 L 23 16 L 23 18 L 21 18 L 21 19 L 23 19 L 23 21 L 24 21 L 24 19 L 26 19 L 26 18 L 26 18 Z M 23.61 9.67 C 23.52 10.37 23.04 10.21 23.02 10.59 C 23 10.93 22.98 10.88 23.03 11.15 C 23.08 11.38 23.21 11.14 23.26 11.42 C 23.3 11.6 23.3 11.83 23.35 12.01 C 21.73 12.05 20.26 12.69 19.13 13.71 C 18.45 13.4 17.76 13.11 17.11 12.87 C 17.72 12.66 18.23 12.46 18.5 12.26 C 18.74 12.08 18.68 11.79 18.73 11.51 C 18.78 11.23 18.96 11.42 18.96 11.12 C 18.96 10.82 19.02 10.87 18.99 10.47 C 18.96 10.13 18.47 10.09 18.45 9.44 C 18.44 9.3 18.2 9.21 18.05 9 C 17.91 8.79 17.68 8.43 17.68 8 C 17.68 7.58 17.77 7.69 17.77 7.16 C 17.77 6.64 17.75 6.33 18.05 5.11 C 18.17 4.66 18.55 4.12 18.94 3.88 C 19.46 3.56 19.25 3.99 21 3.61 C 22.14 3.36 23.92 4.52 23.94 5.45 C 23.96 6.7 24.04 6.61 24.12 7.13 C 24.17 7.5 24.27 7.41 24.27 7.83 C 24.27 8.25 24.04 8.78 23.9 8.99 C 23.76 9.2 23.63 9.53 23.61 9.67 L 23.61 9.67 Z M 13.76 8.74 C 13.63 9.75 12.95 9.52 12.92 10.06 C 12.89 10.55 12.86 10.49 12.94 10.87 C 13 11.19 13.19 10.85 13.27 11.25 C 13.34 11.65 13.29 12.24 13.61 12.42 C 14.38 13 16.53 13.55 18.45 14.45 C 17.56 15.56 17 16.96 17 18.5 C 17 19.01 17.08 19.51 17.19 20 L 0 20 C 0 20 0.11 16.33 0.16 16 C 0.21 15.68 0.21 15.18 0.95 14.77 C 2.99 13.63 5.57 13.11 6.44 12.46 C 6.78 12.2 6.69 11.78 6.77 11.38 C 6.85 10.97 7.1 11.25 7.1 10.82 C 7.1 10.39 7.18 10.47 7.13 9.9 C 7.09 9.4 6.4 9.35 6.36 8.42 C 6.35 8.22 6 8.09 5.8 7.79 C 5.6 7.49 5.26 6.96 5.26 6.36 C 5.26 5.75 5.39 5.9 5.39 5.15 C 5.39 4.4 5.36 3.96 5.8 2.21 C 5.96 1.56 6.52 0.79 7.07 0.45 C 7.82 -0.02 7.52 0.6 10.03 0.05 C 11.66 -0.31 14.21 1.36 14.23 2.69 C 14.27 4.49 14.38 4.35 14.49 5.1 C 14.56 5.63 14.72 5.5 14.72 6.1 C 14.72 6.71 14.39 7.46 14.18 7.76 C 13.98 8.06 13.79 8.55 13.76 8.74 L 13.76 8.74 Z M 13.76 8.74"/></symbol><symbol id="myAccount" height="16" width="16" viewBox="0px 0 16 16"><path fill-rule="evenodd" d="M 8 0 C 3.6 0 0 3.6 0 8 C 0 12.4 3.6 16 8 16 C 12.4 16 16 12.4 16 8 C 16 3.6 12.4 0 8 0 L 8 0 Z M 8 14.5 C 6.1 14.5 4.4 13.6 3.3 12.3 C 4.1 11.9 5 11.6 6 11.4 L 6 11.4 C 6 11.4 6.5 11 6.4 10.5 C 6.4 10.3 5.7 9.5 5.7 9.5 L 5.7 9.5 C 5 8.8 4.6 7.7 4.6 6.6 C 4.6 4.4 6.1 2.6 8 2.6 C 9.9 2.6 11.4 4.4 11.4 6.6 C 11.4 7.7 11 8.8 10.3 9.5 L 10.3 9.5 C 10.3 9.5 9.6 10.2 9.6 10.5 C 9.5 11 10 11.4 10 11.4 L 10 11.4 C 11 11.6 11.9 11.9 12.7 12.3 C 11.6 13.7 9.9 14.5 8 14.5 L 8 14.5 Z M 8 14.5"/></symbol><symbol id="hamburger" width="22" height="15" viewBox="0px 0 22 15"><path fill-rule="evenodd" d="M.25.13h21v2h-21v-2zm0 6h21v2h-21v-2zm0 6h21v2h-21v-2zm0 0"/></symbol><symbol id="search" width="16" height="16" viewBox="0px 0 32 32"><path fill-rule="evenodd" d="m15.893 14.479c0 0-1.414 1.414-1.414 1.414 0 0-5.02-5.02-5.02-5.02-2.343 1.667-5.606 1.465-7.707-.635-2.343-2.344-2.343-6.143 0-8.486 2.343-2.343 6.142-2.343 8.486 0 2.1 2.101 2.302 5.364.635 7.707 0 0 5.02 5.02 5.02 5.02m-7.07-11.314c-1.562-1.562-4.094-1.562-5.657 0-1.562 1.563-1.562 4.095 0 5.657 1.563 1.562 4.095 1.562 5.657 0 1.562-1.562 1.562-4.094 0-5.657"/></symbol><symbol id="search-checked" width="16" height="16" viewBox="0px 0 13 10"><path fill-rule="evenodd" d="m12.999 1.905l-8.512 8.08-1.923-1.905-2.564-2.541 1.964-1.865 2.564 2.54 6.547-6.218 1.924 1.905"/></symbol><symbol id="exit" width="15.688" height="15.688" viewBox="0px 0 15.688 15.688" fill-rule="evenodd"><path d="M-0.010,0.697 L0.698,-0.010 L15.698,14.990 L14.990,15.697 L-0.010,0.697 Z"/><path d="M15.698,0.697 L14.990,-0.010 L-0.010,14.990 L0.698,15.697 L15.698,0.697 Z"/></symbol><symbol id="downArrow" height="7" width="16" viewBox="0px 0 16 7" fill-rule="evenodd"><path d="M 1 0 C 1.19 0 1.38 0.06 1.55 0.18 L 8.01 4.69 L 14.45 0.18 C 14.91 -0.14 15.53 -0.02 15.83 0.47 C 16.14 0.95 16.01 1.6 15.56 1.92 L 8.56 6.82 C 8.23 7.06 7.79 7.06 7.46 6.82 L 0.45 1.93 C -0.01 1.6 -0.14 0.95 0.17 0.47 C 0.36 0.17 0.68 0 1 0 L 1 0 Z M 1 0"/></symbol></defs><use xlink:href="#logoFull" y="520" fill="#63b5d4"/><use xlink:href="#logoFull" x="166" y="520" fill="#fff"/><use xlink:href="#logoFull" x="166" y="468" fill="#34aadc"/><use xlink:href="#logoIcon" y="572" fill="#63b5d4"/><use xlink:href="#logoIcon" x="50" y="572" fill="#fff"/><use xlink:href="#hamburger" x="100" y="572" fill="#15768d"/><use xlink:href="#hamburger" x="150" y="572" fill="#fff"/><use xlink:href="#inbox" y="312" fill="#d8d8d8"/><use xlink:href="#inbox" x="42" y="312" fill="#2388af"/><use xlink:href="#inbox" x="84" y="312" fill="#68b8d6"/><use xlink:href="#refer" y="468" fill="#d8d8d8"/><use xlink:href="#refer" x="42" y="468" fill="#2388af"/><use xlink:href="#refer" x="84" y="468" fill="#68b8d6"/><use xlink:href="#myAccount" fill="#68b8d6"/><use xlink:href="#myAccount" x="64" fill="#ccc"/><use xlink:href="#myAccount" x="160" fill="#34aadc"/><use xlink:href="#search" y="832" fill="#15768d"/><use xlink:href="#search" x="30" y="832" fill="#e98780"/><use xlink:href="#search" x="60" y="832" fill="#6ec9c0"/><use xlink:href="#search-checked" y="1260" fill="#15768d"/><use xlink:href="#search-checked" x="30" y="1260" fill="#e98780"/><use xlink:href="#search-checked" x="60" y="1260" fill="#6ec9c0"/><use xlink:href="#exit" x="150" y="728" fill="#ccc"/><use xlink:href="#exit" x="150" y="700" fill="#333"/><use xlink:href="#exit" x="150" y="670" fill="#979797"/><use xlink:href="#downArrow" x="100" y="206" fill="#15768d"/><use xlink:href="#downArrow" x="200" y="206" fill="#7a69d6"/><use xlink:href="#downArrow" x="230" y="206" fill="#868686"/><svg id="eye" height="10" width="18" viewBox="0 0 18 10" x="96" y="0"><path fill-rule="evenodd" d="m9 9c1.98 0 3.99-.87 5.9-2.32.68-.52 1.3-1.08 1.85-1.63.32-.33.54-.58.65-.72v1.34c-.11-.14-.33-.39-.65-.72-.55-.55-1.17-1.11-1.85-1.63-1.91-1.45-3.92-2.32-5.9-2.32-1.98 0-3.99.87-5.9 2.32-.68.52-1.3 1.08-1.85 1.63-.32.33-.54.58-.65.72v-1.34c.11.14.33.39.65.72.55.55 1.17 1.11 1.85 1.63 1.91 1.45 3.92 2.32 5.9 2.32m-9-4c0 0 4.03-5 9-5 4.97 0 9 5 9 5 0 0-4.03 5-9 5-4.97 0-9-5-9-5m9 3c-1.66 0-3-1.34-3-3 0-1.66 1.34-3 3-3 1.66 0 3 1.34 3 3 0 1.66-1.34 3-3 3m0-1c1.1 0 2-.9 2-2 0-1.1-.9-2-2-2-1.1 0-2 .9-2 2 0 1.1.9 2 2 2"/></svg><svg width="12" height="16" viewBox="0 0 24 32" y="52"><path fill="#6a3db1" d="m20 32c0 0-16 0-16 0-2.21 0-4-1.79-4-4 0 0 0-20 0-20 0-2.21 1.79-4 4-4 0 0 0 2 0 2s2 0 2 0c0 0 0 2 0 2s12 0 12 0c0 0 0-2 0-2s2 0 2 0c0 0 0-2 0-2 2.208 0 4 1.79 4 4 0 0 0 20 0 20 0 2.21-1.792 4-4 4m0-20c0 0-16 0-16 0s0 2 0 2c0 0 16 0 16 0s0-2 0-2m0 4c0 0-16 0-16 0s0 2 0 2c0 0 16 0 16 0s0-2 0-2m0 4c0 0-16 0-16 0s0 2 0 2c0 0 16 0 16 0s0-2 0-2m0 4c0 0-16 0-16 0s0 2 0 2c0 0 16 0 16 0s0-2 0-2m-14-22c0 0 2 0 2 0s0-2 0-2c0 0 8 0 8 0s0 2 0 2c0 0 2 0 2 0s0 4 0 4c0 0-12 0-12 0s0-4 0-4"/></svg><svg x="32" y="52" viewBox="0 0 14.5 14.5" width="14.5" height="14.5" stroke="#f1f1f1" stroke-width="1"><polygon fill="#f1f1f1" points="14.5,0.5 14,0 7.2,6.7 0.5,0 0,0.5 6.7,7.2 0,14 0.5,14.5 7.2,7.8 14,14.5 14.5,14 7.8,7.2 "/></svg><svg id="answer2" height="35" width="26" viewBox="0 0 26 35" x="64" y="42"><path fill="#6a3db1" fill-rule="evenodd" d="m21.67 35h-17.34c-2.39 0-4.33-1.96-4.33-4.37v-21.88c0-2.42 1.94-4.37 4.33-4.37v4.37h17.34v-4.37c2.39 0 4.33 1.95 4.33 4.37v21.88c0 2.41-1.94 4.37-4.33 4.37m0-21.87h-17.34v2.18h17.34v-2.18m0 4.37h-17.34v2.19h17.34v-2.19m0 4.38h-17.34v2.18h17.34v-2.18m0 4.37h-17.34v2.19h17.34v-2.19m-15.17-21.87c0-1.21.97-2.19 2.17-2.19 0-1.21.97-2.19 2.16-2.19h4.34c1.19 0 2.16.98 2.16 2.19 1.2 0 2.17.98 2.17 2.19v2.18h-13v-2.18"/></svg><svg width="16" height="14" viewBox="0 0 37 32" y="104"><path fill="#acdabc" d="m30.21 24.576c0 0-3.631.005-3.631.005s-.066 7.382-.066 7.382c0 0-8.465-7.367-8.465-7.367s-10.663.02-10.663.02c-3.707 0-7.385-4.187-7.385-7.882 0 0 0-10.04 0-10.04 0-3.695 3.01-6.69 6.713-6.69 0 0 23.498 0 23.498 0 3.707 0 6.713 2.996 6.713 6.69 0 0 0 10.04 0 10.04 0 3.695-3.01 7.842-6.713 7.842"/></svg><svg x="32" y="104" viewBox="0 0 14.5 14.5" width="14.5" height="14.5" stroke="#fff" stroke-width="1"><polygon fill="#fff" points="14.5,0.5 14,0 7.2,6.7 0.5,0 0,0.5 6.7,7.2 0,14 0.5,14.5 7.2,7.8 14,14.5 14.5,14 7.8,7.2 "/></svg><svg x="32" y="156" viewBox="0 0 14.5 14.5" width="16" height="16" stroke="#34aadc" stroke-width="1"><polygon fill="#34aadc" points="14.5,0.5 14,0 7.2,6.7 0.5,0 0,0.5 6.7,7.2 0,14 0.5,14.5 7.2,7.8 14,14.5 14.5,14 7.8,7.2 "/></svg><svg width="12" height="15" viewBox="0 0 26 32" y="156"><path fill="#acdabc" d="m25.466.117c0 0-1.758 2.044-6.784 2.044-2.063 0-4.03-.429-5.929-.843-1.922-.418-3.908-1.318-6.01-1.318-4.196 0-6.287 1.387-6.434 1.493 0 0-.307.215-.307.215s0 .239 0 .239c0 0 0 15.819 0 15.819s0 14.167 0 14.167c0 0 2.089 0 2.089 0s0-13.975 0-13.975c.567-.226 1.954-.962 4.653-.962 1.952 0 3.78.732 5.715 1.154 1.973.431 4.01 1.01 6.225 1.01 4.314 0 6.197-1.079 6.31-1.12 0 0 .476-.171.476-.171s-.002-17.749-.002-17.749"/></svg><svg width="12" height="5" viewBox="0 0 72 32" y="208"><path fill="#d8d8d8 " d="m4.464 0c.864 0 1.72.256 2.488.8 0 0 29.06 20.584 29.06 20.584s28.96-20.584 28.96-20.584c2.072-1.464 4.856-.872 6.224 1.336 1.384 2.192.824 5.168-1.24 6.632 0 0-31.448 22.344-31.448 22.344-1.504 1.072-3.472 1.08-4.984.008 0 0-31.536-22.344-31.536-22.344-2.072-1.464-2.632-4.44-1.256-6.64.864-1.384 2.288-2.136 3.736-2.136"/></svg><svg id="rightArrow" width="8" height="12" viewBox="0 0 8 12" x="32" y="204"><g fill="none" fill-rule="evenodd"><path d="m53.925 5.939l-4.596-4.596-1.414 1.414 4.243 4.243-4.243 4.243 1.414 1.414 5.657-5.657-1.061-1.061" transform="translate(-47-1)" fill="#15768d"/></g></svg><svg width="8" height="13" viewBox="0 0 8 13" x="64" y="204"><path fill="#c7c7cc" fill-rule="evenodd" d="M0 1.5L1.5 0 8 6.5 1.5 13 0 11.5l5-5-5-5zm0 0"/></svg><svg width="8" height="13" viewBox="0 0 8 13" x="140" y="204"><path fill="#aaaaaa" fill-rule="evenodd" d="M0 1.5L1.5 0 8 6.5 1.5 13 0 11.5l5-5-5-5zm0 0"/></svg><svg width="13" height="8" viewBox="0 0 12 8" x="165" y="207"><path fill="#ffffff" fill-rule="evenodd" d="M0 1.5L1.5 0 8 6.5 1.5 13 0 11.5l5-5-5-5zm0 0" transform="rotate(90 6 6)"/></svg><svg width="16" height="16" viewBox="0 0 32 32" y="260"><path fill="#3b5998" d="m30.23 0c0 0-28.466 0-28.466 0-.976 0-1.767.791-1.767 1.767 0 0 0 28.469 0 28.469 0 .974.791 1.765 1.767 1.765 0 0 16.411 0 16.411 0s0-12.393 0-12.393c0 0-4.169 0-4.169 0s0-4.827 0-4.827c0 0 4.169 0 4.169 0s0-3.561 0-3.561c0-4.135 1.438-6.384 5.127-6.384 1.765 0 3.282.13 3.726.19 0 0 0 4.32 0 4.32s-1.845 0-1.845 0c-2 0-2.393.953-2.393 2.352 0 0 0 3.083 0 3.083s4.069 0 4.069 0c0 0-.622 4.827-.622 4.827s-3.447 0-3.447 0c0 0 0 12.393 0 12.393s7.44 0 7.44 0c.976 0 1.767-.791 1.767-1.765 0 0 0-28.469 0-28.469 0-.976-.791-1.767-1.767-1.767"/></svg><svg width="16" height="16" viewBox="0 0 32 32" y="364"><path fill="#517fa4" d="m27.429 32c0 0-22.857 0-22.857 0-2.526 0-4.571-2.046-4.571-4.571 0 0 0-22.857 0-22.857 0-2.526 2.046-4.571 4.571-4.571 0 0 22.857 0 22.857 0 2.526 0 4.571 2.046 4.571 4.571 0 0 0 22.857 0 22.857 0 2.526-2.046 4.571-4.571 4.571m-11.429-20.571c-2.526 0-4.571 2.046-4.571 4.571s2.046 4.571 4.571 4.571c2.526 0 4.571-2.046 4.571-4.571s-2.046-4.571-4.571-4.571m11.429-6.858c0 0-4.571 0-4.571 0s0 4.571 0 4.571c0 0 4.571 0 4.571 0s0-4.571 0-4.571m0 6.858c0 0-3.554 0-3.554 0 .786 1.349 1.269 2.898 1.269 4.571 0 5.05-4.094 9.143-9.143 9.143s-9.143-4.094-9.143-9.143c0-1.673.482-3.223 1.269-4.571 0 0-3.554 0-3.554 0s0 13.714 0 13.714c0 1.262 1.024 2.286 2.286 2.286 0 0 18.286 0 18.286 0 1.262 0 2.286-1.024 2.286-2.286 0 0 0-13.714 0-13.714z"/></svg><svg width="16" height="16" viewBox="0 0 32 32" y="416"><path fill="#d8d8d8" d="m30.568 16.874c-1.786-.48-2.19-4.672-.726-5.518.48-.278.854-.674 1.1-1.13-.382-1.39-1.682-3.394-2.416-4.286-.536-.024-1.084.098-1.584.386-1.598.924-4.902-1.548-4.41-3.388.154-.574.072-1.272-.054-1.678-.908-.47-3.06-1.104-4.658-1.26-.344.25-.738.856-.892 1.436-.52 1.946-4.646 2.228-5.53.694-.296-.512-.84-.988-1.216-1.146-1.034.314-3.28 1.616-4.188 2.37.062.532.074 1.152.38 1.68.884 1.534-1.51 4.944-3.402 4.436-.622-.166-1.274-.118-1.806.102-.44.972-1.104 3.536-1.166 4.57.126.282.874.778 1.472.938 2.574.69 2.594 4.468.728 5.546-.526.304-.978.726-1.166 1.26.314 1 1.574 3.208 2.388 4.15.532.062 1.15-.076 1.678-.382 1.666-.962 4.996 1.302 4.434 3.406-.146.546-.066 1.122.028 1.688 1.254.532 3.52 1.282 4.774 1.25.406-.376.658-.9.8-1.436.494-1.84 4.562-2.428 5.524-.76.268.466.644.908 1.082 1.158 1.316-.376 3.628-1.672 4.412-2.486.03-.596-.194-1.092-.472-1.576-1.038-1.8 1.388-4.952 3.384-4.416.548.146 1.142.098 1.644-.028.438-1.098 1.166-3.058 1.29-4.688-.438-.502-.854-.738-1.432-.892m-6.082 1.216c-1.218 4.552-5.892 7.254-10.442 6.03-4.548-1.22-7.246-5.9-6.03-10.452 1.218-4.554 5.894-7.256 10.442-6.04s7.248 5.9 6.03 10.454"/></svg><svg width="16" height="14" viewBox="0 0 34 32" y="624"><path fill="#15768d" d="m-.001 12.308c0 0 12.752 0 12.752 0s3.984-12.308 3.984-12.308c0 0 3.908 12.308 3.908 12.308s12.75 0 12.75 0c0 0-10.322 7.384-10.322 7.384s4.352 12.31 4.352 12.31c0 0-10.726-7.386-10.726-7.386s-10.22 7.386-10.22 7.386c0 0 3.846-12.326 3.846-12.326s-10.324-7.368-10.324-7.368"/></svg><svg width="32" height="32" viewBox="0 0 32 32" x="0" y="676"><path fill="#d0011b" d="M0 6.5C0 3 2.9.1 6.4.1h19.2C29.1.1 32 3 32 6.5v19.2c0 3.5-2.9 6.4-6.4 6.4H6.4c-3.5 0-6.4-2.9-6.4-6.4V6.5z"/><path fill="#ffffff" d="M15.4 19.6c-.6 2.9-1.2 5.7-3.3 7.2-.6-4.4.9-7.8 1.6-11.3-1.2-2.1.1-6.2 2.7-5.2 3.2 1.3-2.8 7.6 1.2 8.4 4.1.8 5.8-7.2 3.3-9.8-3.7-3.8-10.8-.1-10 5.3.2 1.3 1.6 1.7.5 3.5-2.4-.5-3.1-2.4-3-4.9.1-4.1 3.7-7 7.2-7.4 4.5-.5 8.7 1.6 9.3 5.9.7 4.8-2 9.9-6.8 9.5-1.2 0-1.7-.6-2.7-1.2"/></svg><svg width="14" height="14" viewBox="0 0 32 32" y="728"><path fill="#f3b276" d="m27.429 0h-22.857c-2.514 0-4.571 2.057-4.571 4.571v22.857c0 2.514 2.057 4.571 4.571 4.571h22.857c2.514 0 4.571-2.057 4.571-4.571v-22.857c0-2.514-2.057-4.571-4.571-4.571m-19.429 11.429c-1.829 0-3.429-1.6-3.429-3.429s1.6-3.429 3.429-3.429 3.429 1.6 3.429 3.429-1.6 3.429-3.429 3.429m8 8c-1.829 0-3.429-1.6-3.429-3.429s1.6-3.429 3.429-3.429 3.429 1.6 3.429 3.429-1.6 3.429-3.429 3.429m8 8c-1.829 0-3.429-1.6-3.429-3.429s1.6-3.429 3.429-3.429 3.429 1.6 3.429 3.429-1.6 3.429-3.429 3.429"/></svg><svg width="45" height="32" viewBox="0 0 45 32" y="780"><path fill="#6ec9c0" d="m38.4 32c0 0-32 0-32 0-3.533 0-6.4-2.864-6.4-6.4 0 0 0-19.2 0-19.2 0-3.533 2.867-6.4 6.4-6.4 0 0 32 0 32 0 3.536 0 6.4 2.867 6.4 6.4 0 0 0 19.2 0 19.2 0 3.536-2.864 6.4-6.4 6.4m3.2-12.8c0 0-38.4 0-38.4 0s0 3.2 0 3.2c0 0 38.4 0 38.4 0s0-3.2 0-3.2"/></svg><svg width="17" height="15" viewBox="0 0 17 15" y="780" x="70"><g transform="translate(.793 .5)" fill="none" fill-rule="evenodd"><rect fill="#3AB7E1" transform="rotate(-21 8.06 6.613)" x="1.3" y="2.3" width="13.6" height="8.6" rx="1"/><path fill="#FFF" d="M1 6.6L13.4 2l.6 1.4L1.6 8z"/></g></svg><svg width="16" height="14" viewBox="0 0 16 14" y="884"><g fill="none" fill-rule="evenodd"><path d="m41.37 135.42c-.079.097-.146.202-.202.315l-.166.26h.066c-.043.146-.066.301-.066.461 0 .908.736 1.643 1.643 1.643.512 0 .97-.235 1.271-.602.301.368.759.602 1.271.602.512 0 .97-.235 1.271-.602.301.368.759.602 1.271.602.512 0 .97-.235 1.271-.602.301.368.759.602 1.271.602.512 0 .97-.235 1.271-.602.301.368.759.602 1.271.602.512 0 .97-.235 1.271-.602.301.368.759.602 1.271.602.908 0 1.643-.736 1.643-1.643 0-.16-.023-.315-.066-.461h.066l-.149-.224c-.072-.158-.169-.302-.285-.428l-1.566-2.348h-12.08l-1.552 2.425m.632 2.772v8.804h14v-8.8c-.211.08-.44.124-.679.124-.488 0-.933-.182-1.272-.482-.346.298-.796.479-1.289.479-.483 0-.925-.173-1.268-.461-.335.287-.771.461-1.247.461-.474 0-.907-.172-1.241-.456-.334.285-.768.456-1.241.456-.504 0-.962-.194-1.304-.512-.35.318-.815.512-1.326.512-.468 0-.898-.163-1.236-.435-.331.272-.754.435-1.216.435-.24 0-.469-.044-.681-.124m3 2.804h3v6h-3v-6m4 0h5v3h-5v-3" transform="translate(-41-133)" fill="#e6877f"/></g></svg><svg width="24" height="24" viewBox="0 0 32 32" y="936"><path fill="#63b5d4" d="m16 32c-8.836 0-16-7.164-16-16s7.164-16 16-16c8.836 0 16 7.164 16 16s-7.164 16-16 16m0-30.6c-8.06 0-14.6 6.536-14.6 14.6s6.537 14.6 14.6 14.6c8.06 0 14.6-6.536 14.6-14.6s-6.536-14.6-14.6-14.6m8 15.251c0 0 0-1.3 0-1.3s4.3 0 4.3 0c0 0 0 1.3 0 1.3s-4.3 0-4.3 0m-2.815-6.779c0 0 2.829-2.828 2.829-2.828s.943.943.943.943c0 0-2.829 2.828-2.829 2.828s-.943-.943-.943-.943m-5.185 12.779c-3.673 0-6.649-2.977-6.649-6.651s2.976-6.649 6.649-6.649c3.673 0 6.651 2.976 6.651 6.649s-2.977 6.651-6.651 6.651m0-12c-2.955 0-5.349 2.395-5.349 5.349s2.395 5.351 5.349 5.351c2.955 0 5.351-2.396 5.351-5.351s-2.396-5.349-5.351-5.349m0 9.349c-2.209 0-4-1.791-4-4s1.791-4 4-4c2.209 0 4 1.791 4 4s-1.791 4-4 4m-.649-16.3c0 0 1.3 0 1.3 0s0 4.3 0 4.3c0 0-1.3 0-1.3 0s0-4.3 0-4.3m-8.307 4.287c0 0 .943-.943.943-.943s2.828 2.828 2.828 2.828c0 0-.943.943-.943.943s-2.828-2.828-2.828-2.828m.956 8.664c0 0-4.3 0-4.3 0s0-1.3 0-1.3c0 0 4.3 0 4.3 0s0 1.3 0 1.3m2.815 5.477c0 0-2.828 2.829-2.828 2.829s-.943-.944-.943-.944c0 0 2.828-2.828 2.828-2.828s.943.943.943.943m5.836 6.172c0 0-1.3 0-1.3 0s0-4.3 0-4.3c0 0 1.3 0 1.3 0s0 4.3 0 4.3m8.306-4.287c0 0-.943.944-.943.944s-2.829-2.829-2.829-2.829c0 0 .943-.943.943-.943s2.829 2.828 2.829 2.828"/></svg><svg id="dailyGoal" width="24" height="24" viewBox="0 0 24 24" x="42" y="936"><path fill="#15768d" fill-rule="evenodd" d="M12 24C5.37 24 0 18.63 0 12S5.37 0 12 0s12 5.37 12 12-5.37 12-12 12zm7.75-4.95c-1.91 2.1-4.68 3.42-7.75 3.42-5.78 0-10.48-4.68-10.48-10.47C1.52 6.21 6.22 1.52 12 1.52V12l7.75 7.05zm0 0"/></svg><svg width="15" height="12" viewBox="0 0 40 32" y="988"><path fill="#59c7fb" d="m40.02 3.752c-1.475.643-3.056 1.077-4.715 1.272 1.693-1 2.995-2.581 3.608-4.469-1.587.925-3.341 1.597-5.211 1.96-1.499-1.568-3.632-2.549-5.992-2.549-4.533 0-8.208 3.616-8.208 8.08 0 .635.072 1.251.211 1.84-6.821-.336-12.869-3.552-16.917-8.44-.707 1.195-1.112 2.581-1.112 4.061 0 2.803 1.451 5.277 3.653 6.725-1.347-.043-2.613-.405-3.72-1.01 0 .035 0 .067 0 .101 0 3.915 2.829 7.179 6.584 7.923-.688.184-1.413.283-2.163.283-.528 0-1.043-.051-1.544-.144 1.045 3.208 4.077 5.544 7.667 5.611-2.808 2.165-6.347 3.459-10.192 3.459-.664 0-1.317-.04-1.96-.115 3.632 2.293 7.947 3.632 12.584 3.632 15.1 0 23.355-12.312 23.355-22.987 0-.352-.008-.701-.024-1.045 1.603-1.141 2.995-2.563 4.096-4.184"/></svg><svg width="16" height="11" viewBox="0 0 47 32" y="1040"><path fill="#ffcd02" d="m0 26.18c0 0 0-26.18 0-26.18s46.545 0 46.545 0c0 0 0 26.18 0 26.18s-46.545 0-46.545 0m43.636-23.273c0 0-40.727 0-40.727 0s0 20.364 0 20.364c0 0 40.727 0 40.727 0s0-20.364 0-20.364m-2.909 17.455c0 0-34.909 0-34.909 0s0-14.545 0-14.545c0 0 34.909 0 34.909 0s0 14.545 0 14.545m-2.909 11.636c0 0-29.09 0-29.09 0s0-2.909 0-2.909c0 0 29.09 0 29.09 0s0 2.909 0 2.909"/></svg><svg width="27" height="32" viewBox="0 0 27 32" y="1060"><path fill="#63b5d4" d="m26.667 19.03h-3.093c-.515 5.183-4.895 9.231-10.221 9.231-5.673 0-10.271-4.592-10.271-10.256s4.599-10.256 10.271-10.256v-3.077c-7.375 0-13.353 5.97-13.353 13.333s5.978 13.333 13.353 13.333c7.03 0 12.789-5.423 13.314-12.308m-13.314-18.462l10.271 6.154-10.271 6.154v-12.308"/></svg><svg width="16" height="12" viewBox="0 0 16 12" x="32" y="0"><path fill="#e62d27" fill-rule="evenodd" d="m273.28 605.49v-4.445l4.275 2.23-4.274 2.215m9.385-5.215c0 0-.155-1.09-.629-1.57-.602-.63-1.276-.633-1.585-.67-2.214-.16-5.535-.16-5.535-.16h-.007c0 0-3.321 0-5.535.16-.309.037-.983.04-1.585.67-.474.48-.629 1.57-.629 1.57 0 0-.158 1.28-.158 2.56v1.2c0 1.28.158 2.56.158 2.56 0 0 .154 1.09.629 1.57.602.63 1.392.61 1.744.676 1.266.121 5.379.159 5.379.159 0 0 3.324-.005 5.538-.165.309-.037.984-.04 1.585-.67.474-.48.629-1.57.629-1.57 0 0 .158-1.28.158-2.56v-1.2c0-1.28-.158-2.56-.158-2.56" transform="translate(-267-597)"/></svg><svg viewBox="0 0 16 9" width="16" height="9" x="0" y="1120"><g fill="none" fill-rule="evenodd"><path d="m36 364.06v-2.064h15.75v2.135c-.982.337-1.688 1.269-1.688 2.365 0 1.096.706 2.028 1.688 2.365v2.135h-15.75v-2.064c1.11-.255 1.938-1.249 1.938-2.436 0-1.187-.828-2.181-1.938-2.436m3 .936c0-.552.456-1 .995-1h8.01c.55 0 .995.444.995 1v3c0 .552-.456 1-.995 1h-8.01c-.55 0-.995-.444-.995-1v-3m1 0h8v3h-8v-3" transform="translate(-36-362)" fill="#e6837c"/></g></svg><svg viewBox="0 0 16 16" width="16" height="16" y="1170"><g fill="none" fill-rule="evenodd"><circle fill="#15768d" cx="8" cy="8" r="8"/><path d="m4.154 7.6l-1.154 1.2 3.077 3.2 6.923-6.8-1.154-1.2-5.769 5.6-1.923-2" fill="#fff"/></g></svg><svg viewBox="0 0 16 16" width="16" height="16" x="90" y="1170"><g fill="none" fill-rule="evenodd"><circle fill="#cccccc" cx="8" cy="8" r="8"/><path d="m4.154 7.6l-1.154 1.2 3.077 3.2 6.923-6.8-1.154-1.2-5.769 5.6-1.923-2" fill="#fff"/></g></svg><svg viewBox="0 0 16 16" width="16" height="16" x="30" y="1170"><g fill="none" fill-rule="evenodd"><circle fill="#fff" cx="8" cy="8" r="8"/><path d="m4.154 7.6l-1.154 1.2 3.077 3.2 6.923-6.8-1.154-1.2-5.769 5.6-1.923-2" fill="#15768d"/></g></svg><svg width="12" height="12" viewBox="0 0 12 12" x="60" y="1170"><path fill="#15768d" fill-rule="evenodd" d="M4 1h4v1h1V1h1v2H7V1h1V0h1v1h2c.55 0 1 .44 1 1v9c0 .55-.46 1-1 1H1c-.55 0-1-.44-1-1V2c0-.55.46-1 1-1h2V0h1v1h1v2H2V1h1v1h1V1zM0 4h12v1H0V4zm0 0"/></svg><svg viewBox="0 0 16 16" width="16" height="16" y="1220"><g fill="none" fill-rule="evenodd"><circle fill="#ccc" cx="8" cy="8" r="8"/></g></svg><svg id="notifcation" viewBox="0 0 57 58" width="32" height="32" x="150" y="780"><g fill="none" fill-rule="evenodd" transform="translate(0 3)"><path d="m3 13.01v33.989c0 2.77 2.238 5.01 5.01 5.01h33.989c2.77 0 5.01-2.238 5.01-5.01v-33.989c0-2.77-2.238-5.01-5.01-5.01h-33.989c-2.77 0-5.01 2.238-5.01 5.01m-3 0c0-4.421 3.576-8.01 8.01-8.01h33.989c4.421 0 8.01 3.576 8.01 8.01v33.989c0 4.421-3.576 8.01-8.01 8.01h-33.989c-4.421 0-8.01-3.576-8.01-8.01v-33.989" fill="#ccc"/><circle stroke="#fff" stroke-width="3" fill="#f83838" cx="46" cy="8" r="8"/></g></svg><path style="fill:#6ec9c0;fill-rule:evenodd" d="m 57.589749,1120.5545 c -0.25,-0.39 -0.62,-0.63 -1.04,-0.69 -0.26,-0.03 -0.51,0 -0.76,0.08 0.01,-0.44 0.03,-0.89 0.03,-1.33 0,-0.11 -0.03,-0.2 -0.1,-0.29 0,0 0,-0.02 -0.01,-0.02 -0.42,-0.56 -1.98,-0.82 -3.44,-0.82 -1.47,0 -3.03,0.26 -3.45,0.82 0,0 0,0 -0.01,0.02 -0.07,0.09 -0.1,0.18 -0.1,0.29 0,0.46 0.02,0.89 0.03,1.33 -0.23,-0.06 -0.49,-0.11 -0.74,-0.08 -0.44,0.06 -0.8,0.3 -1.05,0.69 -0.32,0.49 -0.28,1.2 0.13,2.05 0.48,0.98 1.59,2.35 2.58,2.93 0.21,0.58 0.44,1.09 0.69,1.51 0.36,0.59 0.36,1.31 0.03,1.89 -0.42,0.71 -0.75,1.6 -0.75,1.87 0,0.7 1.67,0.89 2.65,0.89 0.98,0 2.65,-0.19 2.65,-0.89 0,-0.28 -0.34,-1.2 -0.78,-1.92 -0.34,-0.58 -0.34,-1.31 -0.01,-1.88 0.23,-0.41 0.45,-0.88 0.63,-1.41 1.03,-0.53 2.2,-1.96 2.7,-2.99 0.4,-0.87 0.45,-1.56 0.12,-2.05 l 0,0 z m -7.91,-2.11 c 0.58,-0.18 1.53,-0.42 2.59,-0.42 1.06,0 2.01,0.24 2.58,0.42 -0.57,0.19 -1.52,0.42 -2.58,0.42 -1.06,0 -2.01,-0.23 -2.59,-0.42 l 0,0 z m -1.45,3.68 c -0.3,-0.58 -0.26,-0.86 -0.23,-0.89 0.07,-0.11 0.14,-0.12 0.17,-0.12 0.17,-0.02 0.43,0.09 0.68,0.23 0.07,0.73 0.16,1.42 0.28,2.07 -0.35,-0.39 -0.67,-0.84 -0.9,-1.29 l 0,0 z m 8.07,0 c -0.25,0.5 -0.61,0.97 -0.97,1.37 0.04,-0.16 0.07,-0.3 0.1,-0.45 0.09,-0.55 0.19,-1.11 0.23,-1.68 0.25,-0.16 0.53,-0.28 0.7,-0.25 0.03,0 0.1,0.01 0.17,0.12 0.04,0.03 0.07,0.3 -0.23,0.89 l 0,0 z m 0,0" id="path3804"/><g transform="translate(84.896718,1117.0895)" id="g3798"><path style="fill:#15768d;fill-rule:evenodd" d="m 7.5,14 0,0 C 11.09,14 14,11.09 14,7.5 14,3.91 11.09,1 7.5,1 3.91,1 1,3.91 1,7.5 1,11.09 3.91,14 7.5,14 l 0,0 z m 0,1 0,0 C 3.36,15 0,11.64 0,7.5 0,3.36 3.36,0 7.5,0 11.64,0 15,3.36 15,7.5 15,11.64 11.64,15 7.5,15 l 0,0 z m 0,0" id="path3788"/><path style="fill:#15768d;fill-rule:evenodd" d="M 9.28,5.53 C 9.1,5.3 8.87,5.13 8.59,5 8.31,4.86 8.04,4.8 7.77,4.8 7.64,4.8 7.5,4.81 7.36,4.83 7.22,4.86 7.1,4.9 6.98,4.97 6.87,5.04 6.78,5.13 6.7,5.23 6.63,5.34 6.59,5.48 6.59,5.65 6.59,5.79 6.62,5.91 6.68,6 6.74,6.1 6.83,6.18 6.94,6.26 7.06,6.33 7.2,6.39 7.36,6.45 c 0.15,0.06 0.33,0.12 0.53,0.19 0.29,0.09 0.59,0.2 0.9,0.31 0.31,0.12 0.59,0.27 0.85,0.47 0.25,0.19 0.46,0.42 0.63,0.71 0.17,0.28 0.25,0.63 0.25,1.05 0,0.49 -0.09,0.91 -0.27,1.26 -0.18,0.36 -0.42,0.65 -0.72,0.88 -0.3,0.23 -0.65,0.41 -1.04,0.52 C 8.1,11.95 7.7,12 7.28,12 6.68,12 6.09,11.9 5.53,11.69 4.96,11.48 4.49,11.18 4.12,10.79 L 5.46,9.42 c 0.2,0.26 0.48,0.47 0.81,0.64 0.34,0.17 0.68,0.26 1.01,0.26 0.15,0 0.3,-0.02 0.45,-0.05 C 7.87,10.24 7.99,10.19 8.1,10.12 8.21,10.04 8.3,9.95 8.36,9.83 8.42,9.71 8.45,9.57 8.45,9.4 8.45,9.24 8.41,9.1 8.34,8.99 8.26,8.88 8.14,8.78 7.99,8.69 7.85,8.6 7.66,8.51 7.44,8.44 7.23,8.36 6.98,8.28 6.7,8.19 6.43,8.1 6.16,8 5.9,7.88 5.64,7.76 5.41,7.61 5.21,7.42 5.01,7.23 4.84,7.01 4.72,6.74 4.6,6.47 4.54,6.15 4.54,5.77 4.54,5.3 4.63,4.89 4.82,4.56 5.01,4.22 5.26,3.95 5.57,3.73 5.89,3.52 6.24,3.36 6.63,3.26 7.02,3.16 7.41,3.11 7.81,3.11 c 0.48,0 0.97,0.09 1.46,0.27 0.5,0.17 0.94,0.43 1.31,0.77 l -1.3,1.38 z m 0,0" id="path3790"/></g><svg width="38" height="36" viewBox="0 0 38 36" x="110" y="40"><g fill="none" fill-rule="evenodd"><path d="M13.95164 23.21414s-.35776-1.9319-1.2363-2.78738c-.87852-.8555-3.95916-4.1886-3.95916-8.67846 0-4.48986 4.0101-10.3033 10.33504-10.3033 6.32495 0 10.25932 6.25317 10.25932 9.69808 0 3.4449-4.32982 10.22292-4.32982 10.22292l-.6494 2.58908" fill="#F2E27C"/><path d="M14.00155 26.69935c0 .38616.28128.69894.62946.69894h5.84962L14.434 29.63654c-.33228.1197-.51044.51857-.4025.8826.08907.29597.33745.48085.5995.48085.0658 0 .13492-.01312.20108-.03484l9.73432-3.6013c.29385-.1074.47607-.437.42507-.77642C24.9412 26.24924 24.6784 26 24.36903 26h-9.7384c-.3478.0004-.62908.31237-.62908.69935zm9.91883 6.65942c-.0107.0112-1.47144 1.40726-4.41803 1.40726-1.58936 0-2.74478-.40048-3.4722-.77562l8.53596-2.78485c.33266-.1096.51008-.46124.40252-.78285-.1131-.32523-.4683-.49996-.80096-.38962l-9.7335 3.1741c-.2092.06802-.3674.2384-.4173.44606-.05064.20874.01478.42797.16965.57882C14.26008 34.30406 16.03387 36 19.502 36c3.4633 0 5.23822-1.69595 5.31214-1.76794.24727-.24165.24727-.63525 0-.8733-.24764-.242-.6461-.242-.89374 0z" fill="#8F8F8F"/><path d="M19.00196 1C12.93404 1 8 5.78412 8 11.66265c0 2.95505 1.64023 5.31764 3.08475 7.39846 1.11546 1.60207 2.0807 2.98662 2.0807 4.29093 0 .35783.29847.64797.66793.64797.36947 0 .67304-.29014.67304-.64797 0-1.70207-1.12487-3.31326-2.31014-5.01913-1.40686-2.02035-2.85883-4.1084-2.85883-6.67025 0-5.1621 4.3359-9.36594 9.6649-9.36594 5.32508 0 9.6602 4.20423 9.6602 9.36595 0 2.56186-1.45628 4.64952-2.85883 6.67025-1.18566 1.70587-2.30543 3.31744-2.30543 5.01913 0 .35783.29885.64797.66832.64797.36907 0 .6691-.29014.6691-.64797 0-1.3043.96368-2.68886 2.07913-4.29092C28.35937 16.9803 30 14.6181 30 11.66266 30 5.78412 25.0644 1 19.00196 1z" fill="#D2C04E"/><path d="M20 4.6501C20 4.2913 19.70867 4 19.35024 4 15.298 4 12 7.29822 12 11.3457c0 .36337.29133.6543.64976.6543.363 0 .65434-.29093.65434-.6543 0-3.3295 2.71192-6.04166 6.04614-6.04166.35843 0 .64976-.29513.64976-.65393z" fill="#FAF5D3"/><path d="M8.03657 3.88386c.10802.0785.2345.11614.3571.11614.18938 0 .37166-.08603.49034-.25127.19686-.2735.13716-.65596-.1336-.8549L4.9634.11585c-.27146-.19858-.65023-.13513-.84743.13872-.19685.27027-.13715.65202.13395.8549l3.78665 2.7744zM30.6064 4c.12327 0 .2494-.03764.35775-.11614L34.75 1.10946c.27144-.20287.33112-.58462.13323-.8549-.19682-.27384-.5759-.3373-.84734-.1387l-3.78657 2.77797c-.27072.19894-.33005.5814-.13323.8549.11938.16524.30128.25127.4903.25127zM37.38398 11H32.62c-.344 0-.62.2231-.62.49825 0 .27865.276.50175.62.50175h4.76398c.33966 0 .61602-.2231.61602-.50175C38 11.2234 37.72364 11 37.38398 11zM6 11.49825C6 11.2231 5.7237 11 5.383 11H.61664C.27667 10.9997 0 11.2231 0 11.49825 0 11.7769.27667 12 .61664 12H5.383c.3407-.0003.617-.2234.617-.50175zM30.96415 19.11716c-.2725-.19852-.65158-.13904-.84805.1351-.19682.27375-.1375.65573.13323.85424l3.78656 2.77346c.10835.0792.23483.12004.35705.12004.18616 0 .37198-.08994.49028-.25477.1979-.27376.1382-.6561-.13323-.8546l-3.78585-2.77347zM8.0365 19.11716l-3.78648 2.77346c-.27146.1985-.3308.58085-.13395.8546.11973.16484.3045.25478.49032.25478.12612 0 .24906-.04085.35707-.12004l3.78685-2.77346c.2711-.1985.33043-.5805.1336-.85425-.1972-.27413-.5763-.3336-.8474-.1351z" fill="#E2B46E"/></g></svg><svg width="41" height="27" viewBox="0 0 41 27" x="80" y="1035"><g fill="none" fill-rule="evenodd" transform="translate(0 .667)"><path d="m24.14 19.02c0 .004.0001.008.0001.012.56 4.563 4.773 7.8 9.409 7.231 4.636-.569 7.94-4.73 7.38-9.292-.236-1.924-1.122-3.613-2.416-4.88l-8.04-10.292h-.0001c-.845-1.055-2.214-1.661-3.671-1.482-2.219.273-3.801 2.264-3.533 4.448.025.204.065.403.12.595l.728 13.67.023-.001m-7.29 0c0 .004-.0001.008-.0001.012-.56 4.563-4.773 7.8-9.409 7.231-4.636-.569-7.94-4.73-7.38-9.292.236-1.924 1.122-3.613 2.416-4.88l8.04-10.292h.0001c.845-1.055 2.214-1.661 3.671-1.482 2.219.273 3.801 2.264 3.533 4.448-.025.204-.065.403-.12.595l-.728 13.67-.023-.001" fill="#b76cad"/><g fill="#fff"><ellipse cx="8.759" cy="18.01" rx="6" ry="5.905"/><path d="m32.24 23.917c3.314 0 6-2.644 6-5.905 0-3.261-2.686-5.905-6-5.905-3.314 0-6 2.644-6 5.905 0 3.261 2.686 5.905 6 5.905"/></g><path fill="#b76cad" d="m15.944 6.574h9.111v13.459h-9.111z"/></g></svg><svg width="16" height="11" viewBox="0 0 47 32" x="40" y="1040"><path fill="#b76cad" d="m0 26.18c0 0 0-26.18 0-26.18s46.545 0 46.545 0c0 0 0 26.18 0 26.18s-46.545 0-46.545 0m43.636-23.273c0 0-40.727 0-40.727 0s0 20.364 0 20.364c0 0 40.727 0 40.727 0s0-20.364 0-20.364m-2.909 17.455c0 0-34.909 0-34.909 0s0-14.545 0-14.545c0 0 34.909 0 34.909 0s0 14.545 0 14.545m-2.909 11.636c0 0-29.09 0-29.09 0s0-2.909 0-2.909c0 0 29.09 0 29.09 0s0 2.909 0 2.909"/></svg><svg height="57" width="232" viewBox="0 0 232 57" y="1290"><path d="M.38 5.58h17.76v2.7H.38v-2.7zm18-4.92h3.36l14.1 49.74h-3.36L18.38.66zM65.66 49.5v3h-30v-3h30zM82.28.66c-2.880014 4.160021-5.129992 8.609976-6.75 13.35-1.620008 4.740024-2.43 9.649975-2.43 14.73 0 5.000025.839992 9.839977 2.52 14.52s3.899986 9.079979 6.66 13.2h-3.06c-1.640008-2.280011-3.099994-4.489989-4.38-6.63-1.280006-2.140011-2.359996-4.319989-3.24-6.54-.880004-2.220011-1.539998-4.539988-1.98-6.96s-.66-5.049986-.66-7.89c0-2.760014.229998-5.349988.69-7.77.460002-2.420012 1.129996-4.749989 2.01-6.99.880004-2.240011 1.949994-4.429989 3.21-6.57 1.260006-2.140011 2.709992-4.289989 4.35-6.45h3.06zm27.36.06l-3.06 1.8c1.62 2.46 3.18 5.04 4.74 7.8.84 1.56 2.22 4.14 4.14 7.8l3.12-1.86c-3.24-6.3-6.24-11.46-8.94-15.54zm25.32 1.98c-1.86 10.2-5.04 18.72-9.6 25.44-5.28 7.74-12.42 13.44-21.54 17.16l2.22 3.12c9.54-3.84 17.1-9.96 22.62-18.3 4.74-7.2 8.04-16.14 9.96-26.82l-3.66-.6zM95.72 5.4l-3.06 1.92c1.62 2.46 3.24 5.1 4.8 7.86 1.08 1.92 2.4 4.44 4.08 7.68l3.18-1.8c-3.12-6.12-6.12-11.34-9-15.66zM149 56.46c2.880014-4.160021 5.129992-8.609976 6.75-13.35 1.620008-4.740024 2.43-9.649975 2.43-14.73 0-5.000025-.839992-9.839977-2.52-14.52S151.760014 4.780021 149 .66h3.06c1.640008 2.280011 3.099994 4.489989 4.38 6.63 1.280006 2.140011 2.349996 4.319989 3.21 6.54.860004 2.220011 1.519998 4.539988 1.98 6.96s.69 5.049986.69 7.89c0 2.760014-.229998 5.349988-.69 7.77-.460002 2.420012-1.129996 4.749989-2.01 6.99-.880004 2.240011-1.959994 4.429989-3.24 6.57-1.280006 2.140011-2.719992 4.289989-4.32 6.45H149zm46.62-6.96v3h-30v-3h30zm3.18.9h-3.36L209.54.66h3.36L198.8 50.4zm14.88-44.82h17.76v2.7h-17.76v-2.7z" fill="#999" fill-rule="evenodd"/></svg><svg width="32" height="32" viewBox="0 0 32 32" x="25" y="718"><path fill="#385591" d="M0 6.5C0 3 2.9.1 6.4.1h19.2C29.1.1 32 3 32 6.5v19.2c0 3.5-2.9 6.4-6.4 6.4H6.4c-3.5 0-6.4-2.9-6.4-6.4V6.5z"/><path fill="#ffffff" d="M21.1 5.5v3.4h-1.9s-1.7-.2-1.7 1.4v2.6h3.6l-.4 3.7h-3.1v10.3h-4.1V16.5h-2.8v-3.6h2.9V9.8s-.4-1.7 1.2-3.1c1.5-1.4 3.5-1.3 3.5-1.3h2.8z"/></svg><svg width="32" height="32" viewBox="0 0 32 32" x="65" y="718"><path fill="#e0218a" d="M0 6.5C0 3 2.9.1 6.4.1h19.2C29.1.1 32 3 32 6.5v19.2c0 3.5-2.9 6.4-6.4 6.4H6.4c-3.5 0-6.4-2.9-6.4-6.4V6.5z"/><path fill="#fefefe" d="M21.6 26.6c1.4 0 2.7-.5 3.7-1.5s1.5-2.3 1.5-3.7V10.5c0-1.4-.6-2.7-1.5-3.7-1-1-2.3-1.5-3.7-1.5H11.4c-1.4 0-2.7.6-3.7 1.5-1 1-1.5 2.3-1.5 3.7v10.9c0 1.4.5 2.7 1.5 3.7s2.3 1.5 3.7 1.5h10.2zm-10.2 1.9c-3.9 0-7.1-3.2-7.1-7.1V10.5c0-3.9 3.2-7.1 7.1-7.1h10.3c3.9 0 7.1 3.2 7.1 7.1v10.9c0 3.9-3.2 7.1-7.1 7.1H11.4z"/><path fill="#fefefe" d="M11.9 15.4c0 2.4 2 4.4 4.4 4.4 2.4 0 4.4-2 4.4-4.4 0-2.4-2-4.4-4.4-4.4-2.4 0-4.4 2-4.4 4.4zm4.5 6.8c-3.7 0-6.8-3-6.8-6.7s3-6.7 6.8-6.7c3.7 0 6.7 3 6.7 6.7s-3 6.7-6.7 6.7z"/><path fill="#fefefe" d="M24.5 9.2c0 .9-.7 1.6-1.6 1.6-.9 0-1.6-.7-1.6-1.6 0-.9.7-1.6 1.6-1.6.9 0 1.6.7 1.6 1.6"/></svg><svg width="32" height="32" viewBox="0 0 32 32" x="105" y="718"><path fill="#1da1f2" d="M0 6.5C0 3 2.9.1 6.4.1h19.2C29.1.1 32 3 32 6.5v19.2c0 3.5-2.9 6.4-6.4 6.4H6.4c-3.5 0-6.4-2.9-6.4-6.4V6.5z"/><path fill="#ffffff" d="M27.7 9.6c-.8.4-1.6.6-2.5.7.9-.5 1.6-1.4 1.9-2.4-.8.5-1.8.9-2.8 1.1-.8-.9-1.9-1.4-3.2-1.4-2.4 0-4.4 2-4.4 4.4 0 .4 0 .7.1 1-3.6-.2-6.9-1.9-9-4.6-.4.7-.6 1.4-.6 2.2 0 1.5.8 2.9 1.9 3.6-.7 0-1.4-.2-2-.5v.1c0 2.1 1.5 3.9 3.5 4.3-.4.1-.8.2-1.2.2-.3 0-.6 0-.8-.1.6 1.7 2.2 3 4.1 3-1.3 1.1-3.2 1.8-5.3 1.8-.4 0-.7 0-1-.1 1.9 1.2 4.2 2 6.7 2 8.1 0 12.4-6.7 12.4-12.4v-.6c.9-.6 1.6-1.4 2.2-2.3"/></svg><svg width="17" height="14" viewBox="0 0 17 14" x="40" y="417"><path d="M.5 7.32l4.74 5.165L16.315 1" stroke-width="1.5" stroke="#D9D9D9" fill="none" fill-rule="evenodd"/></svg><svg width="17" height="14" viewBox="0 0 17 14" x="80" y="417"><path d="M.5 7.32l4.74 5.165L16.315 1" stroke-width="1.5" stroke="#aaaaaa" fill="none" fill-rule="evenodd"/></svg><svg width="17" height="17" viewBox="0 0 50 45" x="130" y="0"><g fill="none" fill-rule="evenodd"><circle stroke="#979797" stroke-width="2" fill="#FFF" cx="23.276" cy="22.5" r="22.5"/><path d="M42.99 11.63l-2.214-2.87s-1.084-1.786-1.912-2.51c-.827-.724-3.088-2.245-3.088-2.245l-2.5-1.745L30.546 1l-.75 2.5-1.5 2.75-2.5 1.75-3.5-.25s1 2.25.5 2-1.76-1-2.51-1.5c-.75-.5-2 1-1.5 1.25s1.5 3 1.5 3-3.5.75-2.5 1.5 3 1.25 3 1.25l3-2.75 2.75.75 1.75 1.5 1.5.25s1.99 2.25.25 2-3.5 0-3.5 0l-2.5-1.25-3.5 1-2.5-1.25-2.25 2.25-1.75 1.75s-1.25 2.75.25 3.5 3 2 4.75 2.5 3.75.5 4.25 1.5.75 4.25.75 4.25l.5 2s-.02 1.26-.01 2.01c.01.75 1.99 1.25 2 1.75.01.5 4.48 2.25 4.25.25-.23-2 2.25-4 2.25-4s2.25-1.75 1.75-3.25.75-3.5.75-3.5l1.25-3.25h-2.75l-2.25-3.25.5-2s1.75 0 2.5 1 3.5-.25 3.5-.25l-2.5-1.75-1.5-1.75h2.25l1.25 1.25 1.75.25 1.5 2 1.25 3 2.5-3.5-.165-1.07-.334-2.18-1.287-3.38z" fill="#979797"/><path d="M19.026 3.13l1.854 1.245s-1.354.5-1.854.875-.5 1.25-.5 1.25l-.375.75-.955-1.5-2.17 1.375-.874 1 .876-1.5 2.5-1.5.625-1-.955.074-.67.05-2.5 1.5-1.874-.5-1.374 1.25L12.4 7.625s-.874.5-1.25 1.125c-.374.625-1.5 1.625-1.5 1.625l-2.624.875-1.25 2.125s-1.25 1.75-1.375 2.25c-.124.5-1.5 3.625-1.5 3.625l-1.25.875 1.126 2.5 1 1-.625 2.25 1.5 2.375 1.25.5 1.126 1.125L6.65 31s-.874.5-.874 1 .375 1.625.375 1.625 1.376-.375 1.5.5c.126.875-.874 2-.874 2l-.25 1.25L4.4 33.75s-1.374-2-1.5-2.375C2.777 31 1.277 25 1.277 25l-.25-2.875-.25-3 1.375-3.5 1.876-3.25 3.75-5.125 2.375-2.125 4.626-3 2.887-.085L19.026 2v1.13z" stroke="#979797" fill="#979797"/></g></svg><svg width="17" height="17" viewBox="0 0 17 17" x="30" y="1220"><defs><linearGradient x1="17.5973294%" y1="0%" x2="50%" y2="100%" id="a"><stop stop-color="#65B8D8" offset="0%"/><stop stop-color="#71C9CE" offset="100%"/></linearGradient></defs><g fill="none" fill-rule="evenodd"><path d="M7.48037968,14.9062808 C11.5882258,14.9062808 14.918293,11.5762136 14.918293,7.46836752 C14.918293,4.7343639 13.4431883,2.34488945 11.2454408,1.05240603 C10.1410681,0.402930435 8.85422215,0.0304542162 7.48037968,0.0304542162 C3.37253359,0.0304542162 0.042466374,3.36052143 0.042466374,7.46836752 C0.042466374,11.5762136 3.37253359,14.9062808 7.48037968,14.9062808 Z" stroke="#65B8D8" fill="#FFF" transform="translate(1 1)"/><path d="M7.43618372,14.2311276 C11.178644,14.2311276 14.2125074,11.1972641 14.2125074,7.45480387 C14.2125074,4.96398518 12.8686108,2.78705036 10.8663491,1.60953112 C9.86020852,1.01782527 8.68782527,0.678480168 7.43618372,0.678480168 C3.69372348,0.678480168 0.659860019,3.71234363 0.659860019,7.45480387 C0.659860019,11.1972641 3.69372348,14.2311276 7.43618372,14.2311276 Z" fill="url(#a)" transform="translate(1 1)"/><path d="M3.9965,8.341 C3.9965,8.50900084 4.02683303,8.65133275 4.0875,8.768 C4.14816697,8.88466725 4.22866616,8.9791663 4.329,9.0515 C4.42933383,9.1238337 4.54716599,9.17749982 4.6825,9.2125 C4.81783401,9.24750017 4.95783261,9.265 5.1025,9.265 C5.20050049,9.265 5.30549944,9.25683341 5.4175,9.2405 C5.52950056,9.22416658 5.63449951,9.1926669 5.7325,9.146 C5.83050049,9.0993331 5.91216634,9.03516708 5.9775,8.9535 C6.04283366,8.87183292 6.0755,8.76800063 6.0755,8.642 C6.0755,8.50666599 6.03233376,8.39700042 5.946,8.313 C5.85966624,8.22899958 5.7465007,8.15900028 5.6065,8.103 C5.4664993,8.04699972 5.30783422,7.99800021 5.1305,7.956 C4.95316578,7.91399979 4.77350091,7.86733359 4.5915,7.816 C4.4048324,7.7693331 4.22283422,7.712167 4.0455,7.6445 C3.86816578,7.576833 3.7095007,7.48933387 3.5695,7.382 C3.4294993,7.27466613 3.31633376,7.14050081 3.23,6.9795 C3.14366623,6.81849919 3.1005,6.62366781 3.1005,6.395 C3.1005,6.13833205 3.15533279,5.91550094 3.265,5.7265 C3.37466721,5.53749905 3.51816578,5.38000063 3.6955,5.254 C3.87283422,5.12799937 4.07349888,5.03466697 4.2975,4.974 C4.52150112,4.91333303 4.74549888,4.883 4.9695,4.883 C5.23083464,4.883 5.48166546,4.91216637 5.722,4.9705 C5.96233454,5.02883362 6.1758324,5.12333268 6.3625,5.254 C6.5491676,5.38466732 6.69733279,5.55149899 6.807,5.7545 C6.91666722,5.95750102 6.9715,6.20366522 6.9715,6.493 L5.9075,6.493 C5.89816662,6.34366592 5.86666693,6.22000049 5.813,6.122 C5.75933306,6.02399951 5.68816711,5.94700028 5.5995,5.891 C5.51083289,5.83499972 5.40933391,5.79533345 5.295,5.772 C5.1806661,5.74866655 5.05583401,5.737 4.9205,5.737 C4.83183289,5.737 4.74316711,5.74633324 4.6545,5.765 C4.56583289,5.78366676 4.48533369,5.8163331 4.413,5.863 C4.34066631,5.9096669 4.2811669,5.96799965 4.2345,6.038 C4.1878331,6.10800035 4.1645,6.19666613 4.1645,6.304 C4.1645,6.40200049 4.18316648,6.48133303 4.2205,6.542 C4.25783352,6.60266697 4.33133278,6.65866641 4.441,6.71 C4.55066721,6.76133359 4.70233237,6.81266641 4.896,6.864 C5.08966763,6.91533359 5.34283177,6.98066627 5.6555,7.06 C5.7488338,7.07866676 5.8783325,7.11249975 6.044,7.1615 C6.20966749,7.21050024 6.37416585,7.28866613 6.5375,7.396 C6.70083415,7.50333387 6.84199941,7.64683244 6.961,7.8265 C7.08000059,8.00616757 7.1395,8.2359986 7.1395,8.516 C7.1395,8.74466781 7.09516711,8.95699902 7.0065,9.153 C6.91783289,9.34900098 6.78600088,9.51816596 6.611,9.6605 C6.43599913,9.80283405 6.21900129,9.91366627 5.96,9.993 C5.7009987,10.0723337 5.40116837,10.112 5.0605,10.112 C4.78516529,10.112 4.51800129,10.078167 4.259,10.0105 C3.9999987,9.94283299 3.77133432,9.83666739 3.573,9.692 C3.37466568,9.54733261 3.21716725,9.36300112 3.1005,9.139 C2.98383275,8.91499888 2.92783331,8.64900154 2.9325,8.341 L3.9965,8.341 Z M8.8895,7.025 L10.0025,7.025 C10.198501,7.025 10.3594994,6.9783338 10.4855,6.885 C10.6115006,6.7916662 10.6745,6.64000105 10.6745,6.43 C10.6745,6.31333275 10.6535002,6.21766704 10.6115,6.143 C10.5694998,6.06833296 10.5135004,6.01000021 10.4435,5.968 C10.3734996,5.92599979 10.2930005,5.89683341 10.202,5.8805 C10.1109995,5.86416658 10.0165005,5.856 9.9185,5.856 L8.8895,5.856 L8.8895,7.025 Z M7.7905,5.002 L10.1425,5.002 C10.3805012,5.002 10.597499,5.02299979 10.7935,5.065 C10.989501,5.10700021 11.1574993,5.17583285 11.2975,5.2715 C11.4375007,5.36716714 11.5459996,5.49433254 11.623,5.653 C11.7000004,5.81166746 11.7385,6.0076655 11.7385,6.241 C11.7385,6.49300126 11.6813339,6.70299916 11.567,6.871 C11.4526661,7.03900084 11.2835011,7.17666613 11.0595,7.284 C11.3675015,7.37266711 11.5973326,7.52783222 11.749,7.7495 C11.9006674,7.97116777 11.9765,8.23833177 11.9765,8.551 C11.9765,8.80300126 11.9275005,9.02116575 11.8295,9.2055 C11.7314995,9.38983426 11.5996675,9.54033275 11.434,9.657 C11.2683325,9.77366725 11.0793344,9.85999972 10.867,9.916 C10.6546656,9.97200028 10.4365011,10 10.2125,10 L7.7905,10 L7.7905,5.002 Z M8.8895,9.146 L10.0655,9.146 C10.1728339,9.146 10.2754995,9.13550011 10.3735,9.1145 C10.4715005,9.0934999 10.557833,9.05850025 10.6325,9.0095 C10.707167,8.96049976 10.7666664,8.89400042 10.811,8.81 C10.8553336,8.72599958 10.8775,8.61866732 10.8775,8.488 C10.8775,8.23133205 10.8051674,8.04816721 10.6605,7.9385 C10.5158326,7.82883278 10.3245012,7.774 10.0865,7.774 L8.8895,7.774 L8.8895,9.146 Z" fill="#FFF" transform="translate(1 1)"/></g></svg></svg>
