<svg xmlns="http://www.w3.org/2000/svg" xmlns:xlink="http://www.w3.org/1999/xlink" width="150" height="600" viewBox="0 0 150 600"><svg viewBox="0 0 66 66" width="75" height="75"><path d="m33 0.5c17.9 0 32.5 14.6 32.5 32.5s-14.6 32.5-32.5 32.5-32.5-14.6-32.5-32.5c0-17.9 14.6-32.5 32.5-32.5z" stroke="#A397B5" stroke-miterlimit="10" clip-rule="evenodd" fill="none"/><path d="m49.3 49.5c0-0.1-0.5-3.6-0.5-3.6s-0.9-2.3-2.3-2.5-3.2-0.7-3.9-1.3c-0.4-0.3-1.9-0.9-2.5-1.2-0.3-0.1-0.8-1-1-1.4s-1.4-1.3-1.8-1.3v-1.7l3.7-1.1s0.9-0.4 1-0.4-0.4-0.7-0.5-0.9-0.4-1.4-0.4-1.4 1.2 1.5 1.9 1.8-1.2-2.3-1.6-3.6-0.6-3.3-0.6-3.5-0.8-5.6-1.2-6.5-1-2.1-1.9-2.7c-1-0.6-2.4-1.5-4.4-1.6h-0.1-0.1c-2 0.1-3.5 1-4.4 1.6-1 0.6-1.5 1.8-1.9 2.7s-1.2 6.3-1.2 6.5-0.2 2.3-0.6 3.6-1.6 3.5-1.6 3.5c0.6-0.3 1.9-1.8 1.9-1.8s-0.4 1.4-0.5 1.6c-0.1 0.2-0.5 0.8-0.4 0.8s1 0.4 1 0.4l3.7 1.1-0.1 1.7c-0.3 0-1.6 0.9-1.8 1.3s-0.7 1.3-1 1.4c-0.7 0.2-2.1 0.8-2.5 1.2-0.8 0.6-2.5 1.1-3.9 1.3s-2.3 2.3-2.3 2.3c0 0.1-0.5 3.7-0.5 3.8h32.3z" fill="#A397B5"/></svg><svg viewBox="0 0 75 75" y="75" width="75" height="75"><path fill="#6AB8D6" clip-rule="evenodd" d="m37.5 0c20.7 0 37.5 16.8 37.5 37.5s-16.8 37.5-37.5 37.5-37.5-16.8-37.5-37.5c0-20.7 16.8-37.5 37.5-37.5z" fill-rule="evenodd"/><path fill="#fff" clip-rule="evenodd" d="m28.5 51.2h3v-27.5h-3v27.5zm5 0h3v-12.5h-3v12.5zm5 0h3v-22.5h-3v22.5zm5-17.5v17.5h3v-17.5h-3z" fill-rule="evenodd"/></svg><svg viewBox="0 0 75 75" y="150" width="75" height="75"><path fill="#F2B276" clip-rule="evenodd" d="m37.5 0c20.7 0 37.5 16.8 37.5 37.5s-16.8 37.5-37.5 37.5-37.5-16.8-37.5-37.5c0-20.7 16.8-37.5 37.5-37.5z" fill-rule="evenodd"/><path fill="#fff" clip-rule="evenodd" d="m33 42c-0.8 0-1.5 0.7-1.5 1.5s0.7 1.5 1.5 1.5 1.5-0.7 1.5-1.5c0-0.8-0.7-1.5-1.5-1.5zm9 3c0.8 0 1.5-0.7 1.5-1.5s-0.7-1.5-1.5-1.5-1.5 0.7-1.5 1.5 0.7 1.5 1.5 1.5zm4.5 0c0.8 0 1.5-0.7 1.5-1.5s-0.7-1.5-1.5-1.5-1.5 0.7-1.5 1.5 0.7 1.5 1.5 1.5zm0-4c0.8 0 1.5-0.7 1.5-1.5s-0.7-1.5-1.5-1.5-1.5 0.7-1.5 1.5 0.7 1.5 1.5 1.5zm-4.5 0c0.8 0 1.5-0.7 1.5-1.5s-0.7-1.5-1.5-1.5-1.5 0.7-1.5 1.5 0.7 1.5 1.5 1.5zm0-4c0.8 0 1.5-0.7 1.5-1.5s-0.7-1.5-1.5-1.5-1.5 0.7-1.5 1.5 0.7 1.5 1.5 1.5zm0 9c-0.8 0-1.5 0.7-1.5 1.5s0.7 1.5 1.5 1.5 1.5-0.7 1.5-1.5c0-0.8-0.7-1.5-1.5-1.5zm4.5-9c0.8 0 1.5-0.7 1.5-1.5s-0.7-1.5-1.5-1.5-1.5 0.7-1.5 1.5 0.7 1.5 1.5 1.5zm4.5 0c0.8 0 1.5-0.7 1.5-1.5s-0.7-1.5-1.5-1.5-1.5 0.7-1.5 1.5c0 0.8 0.7 1.5 1.5 1.5zm-22-10.5c0.3 0 0.5-0.2 0.5-0.5v-5c0-0.3-0.2-0.5-0.5-0.5s-0.5 0.2-0.5 0.5v5c0 0.3 0.2 0.5 0.5 0.5zm17.5 0c0.3 0 0.5-0.2 0.5-0.5v-5c0-0.3-0.2-0.5-0.5-0.5s-0.5 0.2-0.5 0.5v5c0 0.3 0.2 0.5 0.5 0.5zm4.5 18.5c0.8 0 1.5-0.7 1.5-1.5s-0.7-1.5-1.5-1.5-1.5 0.7-1.5 1.5c0 0.8 0.7 1.5 1.5 1.5zm-18 1c-0.8 0-1.5 0.7-1.5 1.5s0.7 1.5 1.5 1.5 1.5-0.7 1.5-1.5c0-0.8-0.7-1.5-1.5-1.5zm17-22.5h-2v2.5c0 0.8-0.7 1.5-1.5 1.5s-1.5-0.7-1.5-1.5v-2.5h-14.5v2.5c0 0.8-0.7 1.5-1.5 1.5s-1.5-0.7-1.5-1.5v-2.5h-2.5c-2.2 0-4 1.8-4 4v23c0 2.2 1.8 4 4 4h25c2.2 0 4-1.8 4-4v-23c0-2.2-1.8-4-4-4zm3.5 26.5c0 2.2-1.8 4-4 4h-24c-2.2 0-4-1.8-4-4v-19h32v19zm-2.5-9c0.8 0 1.5-0.7 1.5-1.5s-0.7-1.5-1.5-1.5-1.5 0.7-1.5 1.5c0 0.8 0.7 1.5 1.5 1.5zm-27 0c0.8 0 1.5-0.7 1.5-1.5s-0.7-1.5-1.5-1.5-1.5 0.7-1.5 1.5c0 0.8 0.7 1.5 1.5 1.5zm4.5 0c0.8 0 1.5-0.7 1.5-1.5s-0.7-1.5-1.5-1.5-1.5 0.7-1.5 1.5 0.7 1.5 1.5 1.5zm0 4c0.8 0 1.5-0.7 1.5-1.5s-0.7-1.5-1.5-1.5-1.5 0.7-1.5 1.5 0.7 1.5 1.5 1.5zm0 4c0.8 0 1.5-0.7 1.5-1.5s-0.7-1.5-1.5-1.5-1.5 0.7-1.5 1.5 0.7 1.5 1.5 1.5zm-4.5 0c0.8 0 1.5-0.7 1.5-1.5s-0.7-1.5-1.5-1.5-1.5 0.7-1.5 1.5c0 0.8 0.7 1.5 1.5 1.5zm13.5-12c0.8 0 1.5-0.7 1.5-1.5s-0.7-1.5-1.5-1.5-1.5 0.7-1.5 1.5c0 0.8 0.7 1.5 1.5 1.5zm-13.5 8c0.8 0 1.5-0.7 1.5-1.5s-0.7-1.5-1.5-1.5-1.5 0.7-1.5 1.5c0 0.8 0.7 1.5 1.5 1.5zm13.5-4c0.8 0 1.5-0.7 1.5-1.5s-0.7-1.5-1.5-1.5-1.5 0.7-1.5 1.5c0 0.8 0.7 1.5 1.5 1.5zm0 4c0.8 0 1.5-0.7 1.5-1.5s-0.7-1.5-1.5-1.5-1.5 0.7-1.5 1.5c0 0.8 0.7 1.5 1.5 1.5zm0 4c0.8 0 1.5-0.7 1.5-1.5s-0.7-1.5-1.5-1.5-1.5 0.7-1.5 1.5c0 0.8 0.7 1.5 1.5 1.5zm-4.5-11c-0.8 0-1.5 0.7-1.5 1.5s0.7 1.5 1.5 1.5 1.5-0.7 1.5-1.5c0-0.8-0.7-1.5-1.5-1.5zm0-1c0.8 0 1.5-0.7 1.5-1.5s-0.7-1.5-1.5-1.5-1.5 0.7-1.5 1.5c0 0.8 0.7 1.5 1.5 1.5zm-4.5 0c0.8 0 1.5-0.7 1.5-1.5s-0.7-1.5-1.5-1.5-1.5 0.7-1.5 1.5c0 0.8 0.7 1.5 1.5 1.5z" fill-rule="evenodd"/></svg><svg viewBox="0 0 66 66" y="225" width="75" height="75"><path d="m33 0.5c17.9 0 32.5 14.6 32.5 32.5s-14.6 32.5-32.5 32.5-32.5-14.6-32.5-32.5c0-17.9 14.6-32.5 32.5-32.5z" stroke="#ADDABC" stroke-miterlimit="10" clip-rule="evenodd" fill="none"/><path d="m46 33c0-0.4-0.3-0.7-0.6-0.9l-24.7-10.8h-0.2c-0.1 0-0.2 0-0.3 0.1s-0.2 0.2-0.2 0.4v9.8c0 0.3 0.2 0.5 0.5 0.5l24.4 1-24.4 1c-0.3 0-0.5 0.2-0.5 0.5v9.8c0 0.2 0.1 0.3 0.2 0.4s0.2 0.1 0.3 0.1h0.2l24.4-10.9c0.5-0.2 0.9-0.5 0.9-1z" fill="#ADDABC"/></svg><svg viewBox="0 0 66 66" y="300" width="75" height="75"><path d="m33 0.5c17.9 0 32.5 14.6 32.5 32.5s-14.6 32.5-32.5 32.5-32.5-14.6-32.5-32.5c0-17.9 14.6-32.5 32.5-32.5z" stroke="#6FC9BF" stroke-miterlimit="10" clip-rule="evenodd" fill="none"/><path fill="#6FC9BF" clip-rule="evenodd" d="m46.2 21.8h-26.4c-2.1 0-3.8 1.7-3.8 3.7v15c0 2.1 1.7 3.8 3.8 3.8h26.4c2.1 0 3.8-1.7 3.8-3.8v-15c0-2.1-1.7-3.7-3.8-3.7zm2.8 18.5h-32v-2.5h32v2.5z" fill-rule="evenodd"/></svg><svg viewBox="0 0 109 73" y="375" width="109" height="73"><path stroke="#fff" stroke-miterlimit="10" d="m96.5 0.5h-84c-6.6 0-12 5.4-12 12v48c0 6.6 5.4 12 12 12h84c6.6 0 12-5.4 12-12v-48c0-6.6-5.4-12-12-12zm10 60c0 5.5-4.5 10-10 10h-84c-5.5 0-10-4.5-10-10v-1h104v1zm-104-9v-39c0-5.5 4.5-10 10-10h84c5.5 0 10 4.5 10 10v39h-104z" fill="#fff"/></svg><svg viewBox="0 0 66 66" y="450" width="75" height="75"><path d="m33 0.5c17.9 0 32.5 14.6 32.5 32.5s-14.6 32.5-32.5 32.5-32.5-14.6-32.5-32.5c0-17.9 14.6-32.5 32.5-32.5z" stroke="#34AADB" stroke-miterlimit="10" clip-rule="evenodd" fill="none"/><path d="m33.1 36.4c0-1.1-0.3-2.1-1-3s-1.8-1.6-3.4-2.3c-0.6-0.3-1.2-0.5-1.6-0.7s-0.7-0.4-0.9-0.6-0.4-0.4-0.4-0.5c-0.1-0.2-0.1-0.4-0.1-0.6 0-0.5 0.2-0.8 0.6-1.1s1-0.4 1.8-0.4c0.5 0 1.1 0.1 1.8 0.3 0.6 0.2 1.3 0.6 1.8 1.3l2.9-2.7c-0.8-0.9-1.7-1.5-2.9-2s-2.4-0.7-3.7-0.7c-1.1 0-2.1 0.1-3 0.4s-1.7 0.7-2.3 1.2-1.1 1.1-1.5 1.9c-0.3 0.7-0.5 1.5-0.5 2.4 0 1.2 0.4 2.2 1.2 3.1 0.8 0.8 1.9 1.5 3.3 2.1 0.6 0.2 1.1 0.4 1.4 0.6 0.4 0.2 0.6 0.4 0.8 0.6s0.3 0.4 0.4 0.6 0.1 0.4 0.1 0.6c0 0.4-0.2 0.7-0.5 1s-0.9 0.4-1.7 0.4c-0.9 0-1.7-0.2-2.4-0.5-0.8-0.3-1.4-0.8-2.1-1.4l-3 3.3c0.9 0.9 2 1.6 3.4 2 1.3 0.4 2.7 0.7 4.2 0.7 1.1 0 2.1-0.1 3-0.4s1.7-0.6 2.4-1.2c0.7-0.5 1.2-1.1 1.6-1.9 0.1-0.6 0.3-1.5 0.3-2.5zm13.8-5.3c0.3-0.3 0.6-0.7 0.8-1.2s0.3-1 0.3-1.6c0-0.5-0.1-1-0.2-1.5-0.2-0.5-0.5-1-0.9-1.4s-1-0.8-1.7-1c-0.7-0.3-1.6-0.4-2.7-0.4h-6.9l-3.5 18.1h7.4c1.3 0 2.4-0.1 3.4-0.3s1.8-0.5 2.5-1 1.2-1.1 1.6-1.8 0.5-1.6 0.5-2.7c0-0.5-0.1-1-0.3-1.4s-0.4-0.8-0.7-1.1-0.6-0.6-0.9-0.8-0.6-0.4-0.9-0.4c0.3-0.1 0.7-0.3 1.1-0.5 0.5-0.3 0.8-0.6 1.1-1zm-4.3 6.3c-0.2 0.3-0.4 0.6-0.6 0.8-0.3 0.2-0.5 0.3-0.9 0.4-0.3 0.1-0.7 0.1-1 0.1h-2.7l0.9-4.4h2.6c0.8 0 1.3 0.2 1.6 0.5 0.3 0.4 0.4 0.8 0.4 1.3-0.1 0.5-0.2 0.9-0.3 1.3zm0-6.6c-0.5 0.4-1.1 0.5-1.7 0.5h-2l0.8-4h2c0.7 0 1.1 0.2 1.4 0.5s0.4 0.7 0.4 1.2c-0.2 0.8-0.4 1.4-0.9 1.8z" fill="#34AADB"/></svg><svg viewBox="0 0 72 72" y="525" width="75" height="75"><path fill="#A397B5" clip-rule="evenodd" d="m36 0c19.9 0 36 16.1 36 36s-16.1 36-36 36-36-16.1-36-36c0-19.9 16.1-36 36-36z" fill-rule="evenodd"/><path d="m53 28.8c-0.9-2.2-2.3-4.2-4-5.9s-3.7-3-5.9-4c-2.3-1-4.7-1.5-7.2-1.5s-4.9 0.5-7.2 1.5c-2.2 0.9-4.2 2.3-5.9 4s-3 3.7-4 5.9c-1 2.3-1.5 4.7-1.5 7.2s0.5 4.9 1.5 7.2c0.9 2.2 2.3 4.2 4 5.9s3.7 3 5.9 4c2.3 1 4.7 1.5 7.2 1.5s4.9-0.5 7.2-1.5c2.2-0.9 4.2-2.3 5.9-4s3-3.7 4-5.9c1-2.3 1.5-4.7 1.5-7.2s-0.5-4.9-1.5-7.2zm-17 22.1c-8.2 0-14.9-6.7-14.9-14.9s6.7-14.9 14.9-14.9 14.9 6.7 14.9 14.9c0 8.2-6.7 14.9-14.9 14.9zm-0.6-23.8h1.3c0.1 0 0.1 0 0.1-0.1v-3c0-0.1 0-0.1-0.1-0.1h-1.3c-0.1 0-0.1 0-0.1 0.1v3c-0.1 0 0 0.1 0.1 0.1zm5.7-2.1h-0.1l-1.4 2.7v0.1l1.1 0.6h0.1l1.4-2.7v-0.1l-1.1-0.6zm5.3 4.7l-0.7-1.1c0-0.1-0.1-0.1-0.2 0l-2.5 1.7c-0.1 0-0.1 0.1 0 0.2l0.7 1.1s0.1 0.1 0.2 0l2.5-1.7c0.1 0 0.1-0.1 0-0.2zm-1.6 4.7l0.1 1.3c0 0.1 0.1 0.1 0.1 0.1l3-0.3c0.1 0 0.1-0.1 0.1-0.1l-0.1-1.3c0-0.1 0-0.1-0.1-0.1l-3 0.3-0.1 0.1zm2.7 5.4l-2.8-1.1c-0.1 0-0.1 0-0.1 0.1l-0.6 1.1c0 0.1 0 0.1 0.1 0.1l2.8 1.1c0.1 0 0.1 0 0.1-0.1l0.5-1.2v0zm-21.1-11.2h-0.2l-0.7 1.1v0.2l2.5 1.7h0.2l0.7-1.1v-0.2l-2.5-1.7zm0.6 7.1l0.1-1.3c0-0.1 0-0.1-0.1-0.1l-3-0.3v0.1l-0.1 1.3c0 0.1 0 0.1 0.1 0.1l3 0.3v-0.1zm0.3 3l-2.8 1.1c-0.1 0-0.1 0.1-0.1 0.1l0.5 1.2c0 0.1 0.1 0.1 0.1 0.1l2.8-1.1c0.1 0 0.1-0.1 0.1-0.1l-0.5-1.2c0.1-0.1 0-0.1-0.1-0.1zm8.7-5.7h-0.5l-4.3-8.1c0-0.1-0.1-0.1-0.1 0l-1.5 0.8c-0.1 0-0.1 0.1 0 0.1l4.3 8.1c-0.5 0.5-0.8 1.3-0.8 2 0 1.6 1.3 3 3 3 1.6 0 3-1.3 3-3-0.1-1.5-1.5-2.9-3.1-2.9z" fill="#fff"/></svg></svg>