<?xml version="1.0" encoding="utf-8"?>
<!-- Generator: Avocode 2.6.0 - http://avocode.com -->
<svg height="35" width="155" xmlns:xlink="http://www.w3.org/1999/xlink" xmlns="http://www.w3.org/2000/svg" viewBox="0 0 155 35">
    <path fill="#006eae" fill-rule="evenodd" d="M 90.76 18.64 C 90.76 14.98 89.22 11.76 83.99 11.76 C 81.31 11.76 79.18 12.52 78.01 13.2 L 78.86 16.14 C 79.93 15.46 81.62 14.9 83.22 14.9 C 85.88 14.9 86.31 16.42 86.31 17.4 L 86.31 17.62 C 80.53 17.62 76.87 19.64 76.87 23.75 C 76.87 26.27 78.74 28.62 81.97 28.62 C 83.96 28.62 85.62 27.82 86.62 26.54 L 86.72 26.54 C 86.72 26.54 87.38 29.32 91.02 28.26 C 90.83 27.1 90.76 25.86 90.76 24.37 L 90.76 18.64 Z M 86.45 22.5 C 86.45 22.8 86.42 23.1 86.34 23.37 C 86.01 24.49 84.86 25.43 83.43 25.43 C 82.23 25.43 81.28 24.74 81.28 23.3 C 81.28 21.08 83.7 20.47 86.45 20.48 L 86.45 22.5 Z M 86.45 22.5" />
    <path fill="#006eae" fill-rule="evenodd" d="M 0.7 6.79 C 0.7 6.79 4.48 22.41 5.08 24.94 C 5.78 27.91 7.05 28.99 10.71 28.26 L 13.07 18.57 C 13.66 16.17 14.07 14.45 14.45 12 L 14.52 12 C 14.79 14.48 15.17 16.17 15.66 18.58 C 15.66 18.58 16.62 22.98 17.12 25.29 C 17.61 27.6 18.98 29.05 22.56 28.26 L 28.18 6.79 L 23.65 6.79 L 21.73 16.07 C 21.21 18.77 20.74 20.88 20.38 23.36 L 20.32 23.36 C 19.99 20.91 19.57 18.88 19.05 16.25 L 17.05 6.79 L 12.32 6.79 L 10.19 16.01 C 9.58 18.81 9.01 21.08 8.65 23.46 L 8.59 23.46 C 8.22 21.21 7.72 18.37 7.19 15.66 C 7.19 15.66 5.92 9.06 5.48 6.79 L 0.7 6.79 Z M 0.7 6.79" />
    <path fill="#006eae" fill-rule="evenodd" d="M 41.07 18.64 C 41.07 14.98 39.53 11.76 34.3 11.76 C 31.61 11.76 29.49 12.52 28.32 13.2 L 29.18 16.14 C 30.24 15.46 31.93 14.9 33.53 14.9 C 36.18 14.9 36.62 16.42 36.62 17.4 L 36.62 17.62 C 30.84 17.62 27.19 19.64 27.19 23.75 C 27.19 26.27 29.05 28.62 32.28 28.62 C 34.27 28.62 35.93 27.82 36.93 26.54 L 37.03 26.54 C 37.03 26.54 37.69 29.32 41.33 28.26 C 41.14 27.1 41.07 25.86 41.07 24.37 L 41.07 18.64 Z M 36.76 22.5 C 36.76 22.8 36.73 23.1 36.65 23.37 C 36.32 24.49 35.17 25.43 33.74 25.43 C 32.54 25.43 31.59 24.74 31.59 23.3 C 31.59 21.08 34.01 20.47 36.76 20.48 L 36.76 22.5 Z M 36.76 22.5" />
    <path fill="#006eae" fill-rule="evenodd" d="M 48.28 23.7 L 48.28 6.78 L 43.96 6.78 L 43.96 28.26 L 48.28 28.26 L 48.28 23.7 Z M 48.28 23.7" />
    <path fill="#006eae" fill-rule="evenodd" d="M 104.8 6.79 L 104.8 22.63 C 104.8 24.81 105.2 26.34 106.08 27.28 C 106.84 28.09 108.09 28.62 109.59 28.62 C 110.87 28.62 112.13 28.38 112.72 28.16 L 112.66 24.75 C 112.22 24.86 111.71 24.94 111.02 24.94 C 109.55 24.94 109.06 24 109.06 22.03 L 109.06 15.97 L 112.82 15.97 L 112.82 11.86 L 109.06 11.86 L 109.06 6.79 L 104.8 6.79 Z M 104.8 6.79" />
    <path fill="#006eae" fill-rule="evenodd" d="M 93.64 12.13 L 93.64 28.26 L 98.1 28.26 L 98.1 20 C 98.1 19.55 98.13 19.16 98.2 18.81 C 98.53 17.08 99.84 15.97 101.72 15.97 C 102.24 15.97 102.61 16.03 103 16.09 L 103 11.86 C 102.67 11.79 102.44 11.76 102.02 11.76 C 100.36 11.76 98.47 12.85 97.68 15.17 L 97.55 15.17 L 97.55 12.13 L 93.64 12.13 Z M 93.64 12.13" />
    <path fill="#006eae" fill-rule="evenodd" d="M 51.3 12.13 L 51.3 28.26 L 55.64 28.26 L 55.64 18.8 C 55.64 18.35 55.69 17.88 55.85 17.48 C 56.21 16.53 57.09 15.41 58.49 15.41 C 60.24 15.41 61.06 16.91 61.06 19.07 L 61.06 28.26 L 65.4 28.26 L 65.4 18.69 C 65.4 18.26 65.45 17.75 65.58 17.38 C 65.94 16.29 66.88 15.41 68.19 15.41 C 69.96 15.41 70.81 16.88 70.81 19.42 L 70.81 28.26 L 75.16 28.26 L 75.16 18.76 C 75.16 13.75 72.63 11.76 69.79 11.76 C 68.53 11.76 67.53 12.08 66.64 12.64 C 65.88 13.11 65.2 13.77 64.61 14.65 L 64.55 14.65 C 63.86 12.91 62.25 11.76 60.14 11.76 C 57.44 11.76 56.23 13.14 55.49 14.32 L 55.42 14.32 L 55.42 12.13 L 51.3 12.13 Z M 51.3 12.13" />
    <path fill="#f6ab2e" fill-rule="evenodd" d="M 137.04 12.36 C 137.82 12.36 138.47 11.95 138.56 11.42 L 139.34 2.55 C 139.34 1.67 138.32 0.95 137.04 0.95 C 135.76 0.95 134.75 1.67 134.75 2.55 L 135.52 11.42 C 135.61 11.95 136.26 12.36 137.04 12.36 L 137.04 12.36 Z M 137.04 12.36" />
    <path fill="#f6ab2e" fill-rule="evenodd" d="M 132.29 15.13 C 132.68 14.45 132.65 13.67 132.24 13.33 L 125.02 8.22 C 124.27 7.78 123.14 8.31 122.5 9.43 C 121.86 10.54 121.97 11.79 122.72 12.23 L 130.72 15.99 C 131.22 16.18 131.9 15.82 132.29 15.13 L 132.29 15.13 Z M 132.29 15.13" />
    <path fill="#f6ab2e" fill-rule="evenodd" d="M 141.79 15.13 C 142.19 15.82 142.86 16.18 143.37 15.99 L 151.36 12.23 C 152.11 11.79 152.22 10.54 151.58 9.43 C 150.94 8.31 149.82 7.78 149.06 8.22 L 141.84 13.33 C 141.43 13.67 141.4 14.45 141.79 15.13 L 141.79 15.13 Z M 141.79 15.13" />
    <path fill="#f6ab2e" fill-rule="evenodd" d="M 137.04 23.44 C 137.82 23.44 138.47 23.85 138.56 24.39 L 139.34 33.26 C 139.34 34.13 138.32 34.85 137.04 34.85 C 135.76 34.85 134.75 34.13 134.75 33.26 L 135.52 24.39 C 135.61 23.85 136.26 23.44 137.04 23.44 L 137.04 23.44 Z M 137.04 23.44" />
    <path fill="#f6ab2e" fill-rule="evenodd" d="M 141.79 20.68 C 142.19 19.99 142.86 19.63 143.37 19.82 L 151.36 23.57 C 152.11 24.01 152.22 25.26 151.58 26.38 C 150.94 27.5 149.82 28.03 149.06 27.59 L 141.84 22.48 C 141.43 22.13 141.4 21.36 141.79 20.67 L 141.79 20.68 Z M 141.79 20.68" />
    <path fill="#f6ab2e" fill-rule="evenodd" d="M 132.29 20.67 C 132.68 21.36 132.65 22.13 132.24 22.48 L 125.02 27.59 C 124.27 28.02 123.14 27.5 122.5 26.38 C 121.86 25.26 121.97 24.01 122.72 23.57 L 130.72 19.82 C 131.22 19.63 131.9 19.99 132.29 20.67 L 132.29 20.67 Z M 132.29 20.67" />
    <path fill="#f6ab2e" fill-rule="evenodd" d="M 152.1 29.04 C 152.18 29.09 152.3 29.13 152.42 29.13 C 152.59 29.13 152.67 29.06 152.67 28.94 C 152.67 28.84 152.6 28.78 152.43 28.71 C 152.21 28.63 152.06 28.51 152.06 28.31 C 152.06 28.09 152.25 27.91 152.55 27.91 C 152.69 27.91 152.8 27.95 152.87 27.99 L 152.81 28.19 C 152.76 28.16 152.67 28.12 152.54 28.12 C 152.38 28.12 152.31 28.21 152.31 28.29 C 152.31 28.4 152.39 28.44 152.57 28.51 C 152.81 28.6 152.92 28.73 152.92 28.92 C 152.92 29.14 152.76 29.34 152.41 29.34 C 152.26 29.34 152.11 29.3 152.04 29.25 L 152.1 29.04 Z M 152.1 29.04" />
    <path fill="#f6ab2e" fill-rule="evenodd" d="M 154.31 28.75 C 154.3 28.58 154.29 28.36 154.29 28.18 L 154.28 28.18 C 154.24 28.34 154.18 28.53 154.12 28.7 L 153.92 29.3 L 153.73 29.3 L 153.55 28.71 C 153.5 28.53 153.45 28.35 153.41 28.18 L 153.41 28.18 C 153.4 28.35 153.39 28.57 153.38 28.76 L 153.35 29.32 L 153.12 29.32 L 153.21 27.94 L 153.54 27.94 L 153.72 28.49 C 153.77 28.65 153.81 28.82 153.84 28.97 L 153.85 28.97 C 153.88 28.82 153.93 28.65 153.98 28.49 L 154.17 27.94 L 154.49 27.94 L 154.58 29.32 L 154.33 29.32 L 154.31 28.75 Z M 154.31 28.75" />
</svg>