<?xml version="1.0" encoding="utf-8"?>
<!-- Generator: Avocode 2.6.0 - http://avocode.com -->
<svg height="82" width="76" xmlns:xlink="http://www.w3.org/1999/xlink" xmlns="http://www.w3.org/2000/svg" viewBox="0 0 76 82">
    <path fill="#379fc6" fill-rule="evenodd" d="M 44.19 60.58 C 32.77 63.77 20.57 57.71 16.36 46.42 C 11.93 34.51 18.02 21.23 29.95 16.8 C 41.88 12.38 55.2 18.46 59.63 30.37 C 60.61 33 61.08 35.71 61.08 38.37 C 61.08 42.65 59.86 46.81 57.67 50.4 L 70.32 57.54 C 75.91 48.12 77.37 36.36 73.25 25.32 L 73.25 25.31 C 66.03 5.92 44.33 -4 24.9 3.21 C 5.46 10.42 -4.48 32.07 2.74 51.47 C 9.97 70.87 31.66 80.78 51.1 73.57 C 56.67 71.51 61.45 68.26 65.27 64.22 C 65.27 64.22 44.81 60.41 44.19 60.58" />
    <path fill="#2d82a1" fill-rule="evenodd" d="M 41.2 33.25 L 40.74 33.25 L 40.56 33.67 L 37.94 39.88 L 35.37 33.68 L 35.19 33.25 L 34.72 33.25 L 33.71 33.25 L 32.66 33.25 L 33.07 34.21 L 37.19 44.06 L 37.37 44.49 L 37.84 44.49 L 38.03 44.49 C 38.13 44.49 38.22 44.47 38.3 44.44 C 38.35 44.42 38.38 44.39 38.42 44.36 C 38.46 44.34 38.49 44.32 38.53 44.29 C 38.59 44.23 38.64 44.15 38.68 44.07 L 42.86 34.21 L 43.27 33.25 L 42.22 33.25 L 41.2 33.25 Z M 41.2 33.25" />
    <path fill="#2d82a1" fill-rule="evenodd" d="M 54.11 41.37 L 53.37 40.81 L 52.85 40.4 L 52.42 40.91 C 51.66 41.79 50.75 42.22 49.65 42.22 C 48.63 42.22 47.82 41.9 47.16 41.27 C 46.5 40.62 46.18 39.85 46.18 38.9 C 46.18 38.28 46.33 37.71 46.62 37.21 C 46.91 36.71 47.31 36.32 47.85 36.02 C 48.39 35.72 48.96 35.57 49.58 35.57 C 50.16 35.57 50.7 35.69 51.17 35.91 C 51.65 36.14 52.06 36.47 52.39 36.92 L 52.81 37.47 L 53.37 37.05 L 54.11 36.47 L 54.65 36.07 L 54.25 35.52 C 53.75 34.81 53.08 34.25 52.27 33.85 C 51.45 33.45 50.57 33.26 49.57 33.26 C 47.94 33.26 46.56 33.79 45.46 34.85 C 44.36 35.92 43.81 37.26 43.81 38.82 C 43.81 40.3 44.27 41.58 45.17 42.62 C 46.25 43.86 47.73 44.49 49.58 44.49 C 50.56 44.49 51.43 44.31 52.23 43.93 C 53.03 43.56 53.71 43.04 54.24 42.35 L 54.67 41.8 L 54.11 41.37 Z M 54.11 41.37" />
    <path fill="#2d82a1" fill-rule="evenodd" d="M 26.84 35.59 C 28.65 35.59 30.12 37.07 30.12 38.88 C 30.12 40.69 28.65 42.16 26.84 42.16 C 25.03 42.16 23.56 40.69 23.56 38.88 C 23.56 37.07 25.03 35.59 26.84 35.59 L 26.84 35.59 Z M 31.06 42.56 C 31.95 41.54 32.46 40.24 32.46 38.88 C 32.46 35.78 29.94 33.26 26.84 33.26 C 23.74 33.26 21.21 35.78 21.21 38.88 C 21.21 41.98 23.74 44.5 26.84 44.5 C 27.67 44.5 28.49 44.31 29.24 43.95 L 29.83 44.7 L 30.05 44.97 L 30.38 44.97 L 31.54 44.97 L 32.97 44.97 L 32.08 43.85 L 31.06 42.56 Z M 31.06 42.56" />
    <path fill="#92c3d0" fill-rule="evenodd" d="M 64.24 62.44 L 44.7 60.48 L 43.96 60.65 L 61.3 81.72 L 72.53 72.51 L 64.24 62.44 Z M 64.24 62.44" />
</svg>