<?xml version="1.0" encoding="utf-8"?>
<!-- Generator: Avocode 2.6.0 - http://avocode.com -->
<svg height="38" width="148" xmlns:xlink="http://www.w3.org/1999/xlink" xmlns="http://www.w3.org/2000/svg" viewBox="0 0 148 38">
    <path fill="#336699" fill-rule="evenodd" d="M 120.24 7.9 C 118.71 7.04 116.31 6.61 113.03 6.61 C 111.4 6.61 109.77 6.74 108.14 6.99 C 106.93 7.18 106.81 7.21 106.06 7.37 C 104.53 7.7 104.29 9.24 104.29 9.24 L 103.8 11.27 C 103.52 12.56 104.26 12.51 104.59 12.41 C 105.26 12.2 105.62 12 106.99 11.7 C 108.3 11.4 109.68 11.18 110.78 11.19 C 112.4 11.19 113.63 11.36 114.44 11.7 C 115.26 12.06 115.67 12.67 115.67 13.53 C 115.67 13.74 115.67 13.93 115.6 14.1 C 115.53 14.26 115.4 14.42 115.02 14.47 C 112.71 14.61 111.05 14.82 109.06 15.11 C 107.09 15.38 105.37 15.86 103.93 16.51 C 102.39 17.19 101.25 18.1 100.46 19.26 C 99.69 20.41 99.3 21.82 99.3 23.47 C 99.3 25.03 99.86 26.3 100.94 27.29 C 102.04 28.27 103.48 28.75 105.21 28.75 C 106.29 28.74 107.13 28.66 107.74 28.51 C 108.34 28.36 109 28.15 109.69 27.85 C 110.2 27.63 110.76 27.32 111.35 26.93 C 111.94 26.53 112.35 26.26 112.87 25.91 L 112.89 25.95 L 112.74 26.59 C 112.74 26.6 112.73 26.6 112.73 26.61 L 112.74 26.62 C 112.57 27.4 113.04 28.05 113.82 28.13 L 113.83 28.15 L 113.9 28.15 L 113.9 28.15 C 114.41 28.15 116.18 28.15 117.01 28.15 L 117.58 28.15 C 117.62 28.15 117.63 28.13 117.64 28.12 C 118.43 28.03 119.19 27.38 119.37 26.61 L 122.32 13.89 C 122.39 13.6 122.44 13.25 122.47 12.85 C 122.51 12.45 122.55 12.12 122.54 11.88 C 122.55 10.08 121.77 8.75 120.24 7.9 M 113.1 23.05 C 112.6 23.36 112.07 23.63 111.51 23.86 C 110.76 24.16 110.06 24.32 109.4 24.32 C 108.4 24.32 107.63 24.18 107.11 23.88 C 106.58 23.59 106.31 23.09 106.32 22.37 C 106.32 21.55 106.51 20.91 106.9 20.4 C 107.3 19.92 107.89 19.53 108.63 19.24 C 109.36 18.99 110.26 18.79 111.29 18.64 C 112.21 18.53 114.03 18.32 114.27 18.32 C 114.5 18.31 114.65 18.19 114.55 18.81 C 114.5 19.08 113.98 21.23 113.74 22.21 C 113.67 22.51 113.28 22.93 113.1 23.05" />
    <path fill="#1c3664" fill-rule="evenodd" d="M 69.49 6.89 C 68.63 6.89 67.49 7.59 66.95 8.44 C 66.95 8.44 61.16 18.35 60.6 19.34 C 60.29 19.87 59.97 19.53 59.92 19.33 C 59.88 19.09 58.13 8.5 58.13 8.5 C 57.93 7.65 57.04 6.92 55.92 6.92 L 52.31 6.93 C 51.44 6.93 50.9 7.62 51.09 8.46 C 51.09 8.46 53.85 24.08 54.39 27.75 C 54.66 29.79 54.36 30.15 54.36 30.15 L 50.79 36.37 C 50.26 37.22 50.55 37.91 51.41 37.91 L 55.6 37.91 C 56.46 37.91 57.61 37.22 58.13 36.37 L 74.22 9.19 C 74.22 9.19 75.76 6.87 74.34 6.89 C 73.37 6.91 69.49 6.89 69.49 6.89" />
    <path fill="#1c3664" fill-rule="evenodd" d="M 18.69 12.42 C 17.47 13.31 15.78 13.75 13.59 13.75 L 12.6 13.75 C 11.73 13.75 11.18 13.06 11.37 12.21 L 12.58 6.98 C 12.77 6.13 13.64 5.44 14.51 5.44 L 15.84 5.44 C 17.38 5.44 18.55 5.7 19.35 6.22 C 20.13 6.73 20.52 7.54 20.51 8.63 C 20.53 10.26 19.91 11.52 18.69 12.42 M 27.41 4.35 C 26.91 3.37 26.16 2.58 25.2 1.98 C 24.2 1.36 23.04 0.94 21.69 0.69 C 20.33 0.44 18.74 0.32 16.92 0.31 L 8.49 0.31 C 7.61 0.32 6.75 1.01 6.55 1.85 L 0.86 26.54 C 0.67 27.38 1.22 28.08 2.09 28.08 L 6.13 28.08 C 7 28.08 7.87 27.4 8.06 26.54 L 9.46 20.55 C 9.64 19.71 10.51 19.01 11.38 19.01 L 12.54 19.01 C 17.48 19.01 21.31 18 24.06 15.98 C 26.81 13.96 28.19 11.29 28.18 7.99 C 28.19 6.54 27.94 5.32 27.41 4.35" />
    <path fill="#336699" fill-rule="evenodd" d="M 92.04 12.52 C 90.83 13.4 89.13 13.84 86.94 13.84 L 85.94 13.84 C 85.07 13.85 84.5 13.15 84.71 12.3 L 85.92 7.06 C 86.1 6.23 86.99 5.53 87.84 5.54 L 89.17 5.53 C 90.72 5.54 91.88 5.79 92.68 6.31 C 93.47 6.83 93.85 7.64 93.86 8.71 C 93.86 10.36 93.25 11.62 92.04 12.52 M 100.76 4.44 C 100.25 3.46 99.49 2.68 98.53 2.06 C 97.55 1.45 96.37 1.02 95.02 0.77 C 93.68 0.54 92.08 0.41 90.27 0.4 L 81.82 0.41 C 80.95 0.42 80.09 1.1 79.89 1.94 L 74.21 26.64 C 74 27.47 74.57 28.17 75.42 28.17 L 79.48 28.16 C 80.34 28.17 81.21 27.47 81.42 26.64 L 82.79 20.64 C 82.98 19.8 83.85 19.1 84.73 19.11 L 85.88 19.11 C 90.83 19.11 94.66 18.1 97.41 16.08 C 100.15 14.05 101.53 11.38 101.53 8.07 C 101.52 6.63 101.27 5.41 100.76 4.44" />
    <path fill="#1c3664" fill-rule="evenodd" d="M 46.88 7.88 C 45.35 7.02 42.95 6.59 39.67 6.59 C 38.04 6.59 36.41 6.72 34.77 6.97 C 33.57 7.16 33.45 7.19 32.7 7.35 C 31.17 7.69 30.93 9.22 30.93 9.22 L 30.44 11.25 C 30.16 12.54 30.9 12.49 31.23 12.39 C 31.89 12.19 32.26 11.99 33.63 11.67 C 34.93 11.38 36.32 11.16 37.42 11.17 C 39.04 11.17 40.26 11.34 41.08 11.68 C 41.9 12.04 42.3 12.65 42.3 13.51 C 42.31 13.72 42.31 13.92 42.24 14.08 C 42.17 14.24 42.04 14.4 41.65 14.45 C 39.35 14.59 37.69 14.8 35.7 15.09 C 33.73 15.36 32.01 15.84 30.57 16.49 C 29.03 17.17 27.89 18.08 27.1 19.24 C 26.32 20.39 25.94 21.8 25.94 23.45 C 25.94 25.01 26.5 26.28 27.58 27.27 C 28.68 28.25 30.11 28.73 31.84 28.73 C 32.93 28.72 33.77 28.64 34.38 28.49 C 34.98 28.34 35.64 28.13 36.32 27.83 C 36.84 27.61 37.4 27.3 37.99 26.91 C 38.58 26.52 38.99 26.24 39.51 25.89 L 39.53 25.93 L 39.38 26.57 C 39.38 26.58 39.37 26.58 39.37 26.59 L 39.38 26.6 C 39.21 27.39 39.68 28.04 40.46 28.11 L 40.47 28.13 L 40.53 28.13 L 40.54 28.13 C 41.05 28.13 42.82 28.13 43.64 28.13 L 44.22 28.13 C 44.26 28.13 44.27 28.11 44.28 28.1 C 45.07 28.01 45.83 27.36 46.01 26.59 L 48.96 13.88 C 49.03 13.58 49.08 13.23 49.11 12.83 C 49.15 12.43 49.19 12.1 49.18 11.86 C 49.19 10.06 48.41 8.73 46.88 7.88 M 39.74 23.03 C 39.23 23.34 38.71 23.61 38.15 23.84 C 37.4 24.14 36.69 24.3 36.04 24.3 C 35.04 24.3 34.27 24.16 33.74 23.86 C 33.22 23.57 32.95 23.07 32.96 22.35 C 32.96 21.53 33.15 20.89 33.54 20.38 C 33.94 19.9 34.53 19.51 35.27 19.22 C 36 18.97 36.9 18.77 37.93 18.62 C 38.85 18.51 40.67 18.3 40.91 18.3 C 41.14 18.3 41.29 18.17 41.19 18.79 C 41.14 19.06 40.62 21.21 40.38 22.19 C 40.3 22.49 39.91 22.92 39.74 23.03" />
    <path fill="#336699" fill-rule="evenodd" d="M 134.17 0.6 L 130.56 0.6 C 130.56 0.6 130.55 0.6 130.55 0.6 L 130.55 0.6 C 129.72 0.6 128.88 1.24 128.65 2.04 C 128.64 2.07 128.62 2.11 128.62 2.14 C 128.62 2.14 128.53 2.53 128.38 3.21 L 123.42 25.68 C 123.3 26.19 123.22 26.52 123.2 26.61 L 123.21 26.62 C 123.04 27.41 123.51 28.06 124.29 28.13 L 124.3 28.14 L 128.05 28.14 C 128.87 28.14 129.71 27.52 129.95 26.72 C 129.96 26.68 129.98 26.65 129.99 26.61 L 135.4 2.14 L 135.39 2.14 C 135.58 1.3 135.04 0.6 134.17 0.6" />
    <path fill="#336699" fill-rule="evenodd" d="M 141.02 5.59 C 140.89 5.62 140.76 5.65 140.61 5.67 C 140.47 5.69 140.33 5.7 140.22 5.7 C 139.82 5.7 139.51 5.59 139.3 5.38 C 139.09 5.16 138.99 4.81 138.99 4.34 L 138.99 2.25 L 138.54 2.25 L 138.54 1.69 L 138.99 1.69 L 138.99 0.57 L 139.65 0.57 L 139.65 1.69 L 141.02 1.69 L 141.02 2.25 L 139.65 2.25 L 139.65 4.04 C 139.65 4.25 139.66 4.41 139.67 4.52 C 139.68 4.64 139.71 4.75 139.76 4.85 C 139.82 4.94 139.89 5.01 139.98 5.05 C 140.07 5.1 140.21 5.12 140.39 5.12 C 140.5 5.12 140.61 5.1 140.73 5.07 C 140.85 5.04 140.93 5.01 140.98 4.99 L 141.02 4.99 L 141.02 5.59" />
    <path fill="#336699" fill-rule="evenodd" d="M 147.56 5.62 L 146.89 5.62 L 146.89 3.39 C 146.89 3.22 146.89 3.05 146.87 2.9 C 146.85 2.74 146.82 2.62 146.77 2.52 C 146.72 2.42 146.64 2.34 146.54 2.29 C 146.44 2.24 146.3 2.22 146.1 2.22 C 145.92 2.22 145.73 2.26 145.55 2.35 C 145.36 2.45 145.18 2.56 144.99 2.71 C 145 2.76 145.01 2.82 145.01 2.9 C 145.02 2.97 145.02 3.04 145.02 3.11 L 145.02 5.62 L 144.36 5.62 L 144.36 3.39 C 144.36 3.21 144.35 3.05 144.33 2.89 C 144.32 2.74 144.28 2.61 144.24 2.52 C 144.18 2.42 144.1 2.34 144 2.29 C 143.9 2.24 143.76 2.22 143.57 2.22 C 143.39 2.22 143.21 2.26 143.02 2.35 C 142.84 2.44 142.66 2.55 142.48 2.69 L 142.48 5.62 L 141.82 5.62 L 141.82 1.69 L 142.48 1.69 L 142.48 2.13 C 142.69 1.96 142.89 1.83 143.1 1.73 C 143.3 1.63 143.52 1.59 143.75 1.59 C 144.02 1.59 144.25 1.64 144.43 1.75 C 144.62 1.87 144.76 2.02 144.85 2.22 C 145.12 2 145.36 1.83 145.58 1.74 C 145.8 1.64 146.04 1.59 146.29 1.59 C 146.72 1.59 147.04 1.72 147.25 1.98 C 147.45 2.24 147.56 2.6 147.56 3.07 L 147.56 5.62" />
</svg>