<?xml version="1.0" encoding="utf-8"?>
<!-- Generator: Avocode 2.6.0 - http://avocode.com -->
<svg height="45" width="138" xmlns:xlink="http://www.w3.org/1999/xlink" xmlns="http://www.w3.org/2000/svg" viewBox="0 0 138 45">
    <path fill="#231f20" fill-rule="evenodd" d="M 5.52 0 C 5.52 0 -0.61 10.36 0.9 21.37 C 2.05 29.75 4.94 34.87 1.67 44.62 C 1.67 44.62 7.06 37.67 7.06 27.55 C 7.06 21.67 1.96 9.36 5.52 0" />
    <path fill="#1a1818" fill-rule="evenodd" d="M 21.13 23.9 C 20.89 23.76 20.63 23.64 20.38 23.52 C 19.63 23.14 18.95 22.75 19.1 21.96 C 19.27 20.98 19.95 20.77 20.45 20.77 C 20.88 20.77 21.4 21 21.74 21.19 C 21.96 21.3 22.1 21.39 22.1 21.39 L 22.35 20.14 C 22.35 20.14 21.87 19.8 21.41 19.66 C 20.94 19.52 19.01 19.16 18.05 20.92 C 17.01 22.85 18.45 24.08 19.63 24.73 C 19.64 24.74 19.65 24.74 19.66 24.75 C 20.63 25.28 21.82 25.74 21.63 26.77 C 21.45 27.76 20.59 27.93 20.09 27.93 C 19.39 27.93 18.21 27.24 18.21 27.24 L 17.79 28.57 C 17.79 28.57 18.24 28.9 18.7 29.04 C 19.16 29.18 21.54 29.57 22.5 27.81 C 23.54 25.88 22.31 24.55 21.13 23.9" />
    <path fill="#1a1818" fill-rule="evenodd" d="M 36.25 21.15 L 40.38 21.15 L 40.38 19.8 L 34.88 19.8 L 34.88 28.95 L 40.38 28.95 L 40.38 27.6 L 36.25 27.6 L 36.25 24.85 L 39.15 24.85 L 39.15 23.5 L 36.25 23.5 L 36.25 21.15 Z M 36.25 21.15" />
    <path fill="#1a1818" fill-rule="evenodd" d="M 55.86 24.22 L 53.76 24.22 L 53.76 20.88 L 55.21 20.88 C 55.21 20.88 57.13 20.86 57.13 22.55 C 57.13 23.98 55.86 24.22 55.86 24.22 M 54.73 19.8 L 52.47 19.8 L 52.47 28.95 L 53.76 28.95 L 53.76 25.18 L 55.78 25.18 C 55.78 25.18 58.23 25.2 58.23 22.39 C 58.23 19.67 54.73 19.8 54.73 19.8" />
    <path fill="#1a1818" fill-rule="evenodd" d="M 76.33 23.4 L 71.71 23.4 L 71.71 19.8 L 70.33 19.8 L 70.33 28.95 L 71.71 28.95 L 71.71 24.74 L 76.33 24.74 L 76.33 28.95 L 77.7 28.95 L 77.7 19.78 L 76.33 19.78 L 76.33 23.4 Z M 76.33 23.4" />
    <path fill="#1a1818" fill-rule="evenodd" d="M 94.42 27.75 C 92.62 27.75 91.15 26.26 91.15 24.41 C 91.15 22.56 92.62 21.07 94.42 21.07 C 96.23 21.07 97.69 22.56 97.69 24.41 C 97.69 26.26 96.23 27.75 94.42 27.75 M 94.42 19.7 C 91.88 19.7 89.82 21.81 89.82 24.41 C 89.82 27.01 91.88 29.11 94.42 29.11 C 96.96 29.11 99.02 27.01 99.02 24.41 C 99.02 21.81 96.96 19.7 94.42 19.7" />
    <path fill="#1a1818" fill-rule="evenodd" d="M 112.39 24 L 112.39 20.88 L 113.85 20.88 C 113.85 20.88 115.59 20.86 115.59 22.55 C 115.59 23.74 114.46 24 114.46 24 L 112.39 24 Z M 115.11 24.8 C 115.11 24.8 116.7 24.42 116.7 22.3 C 116.7 19.59 113.69 19.8 113.69 19.8 L 111.11 19.8 L 111.11 28.95 L 112.39 28.95 L 112.39 24.97 L 113.75 24.97 L 116.52 28.95 L 118.02 28.95 L 115.11 24.8 Z M 115.11 24.8" />
    <path fill="#1a1818" fill-rule="evenodd" d="M 132.27 26 L 133.56 21.49 L 133.87 21.49 L 135.43 26 L 132.27 26 Z M 134.44 19.78 L 133.26 19.78 L 130.11 28.95 L 131.28 28.95 L 132.04 26.73 L 135.65 26.73 L 136.45 28.95 L 137.63 28.95 L 134.44 19.78 Z M 134.44 19.78" />
</svg>