<?xml version="1.0" encoding="utf-8"?>
<!-- Generator: Avocode 2.6.0 - http://avocode.com -->
<svg height="57" width="147" xmlns:xlink="http://www.w3.org/1999/xlink" xmlns="http://www.w3.org/2000/svg" viewBox="0 0 147 57">
    <path fill="#d73530" fill-rule="evenodd" d="M 18.47 17.25 C 24.31 17.25 28.3 20.84 28.3 26.22 L 8.13 26.22 C 8.13 20.51 13.33 17.25 18.47 17.25 M 18.72 12.57 C 8.96 12.57 0.82 16.73 0.82 29.25 C 0.82 39.18 6.29 45.43 18.97 45.43 C 33.89 45.43 34.85 35.57 34.85 35.57 L 27.62 35.57 C 27.62 35.57 26.07 40.88 18.53 40.88 C 12.39 40.88 7.97 36.72 7.97 30.89 L 35.61 30.89 L 35.61 27.23 C 35.61 21.46 31.96 12.57 18.72 12.57" />
    <path fill="#3d579a" fill-rule="evenodd" d="M 53.5 17.45 C 60.12 17.45 64.33 22.38 64.33 29 C 64.33 36.1 59.47 40.74 53.54 40.74 C 46.47 40.74 42.66 35.2 42.66 29.06 C 42.66 23.35 46.08 17.45 53.5 17.45 L 53.5 17.45 Z M 35.6 0.44 L 35.6 39.14 C 35.6 41.33 35.44 44.42 35.44 44.42 L 42.34 44.42 C 42.34 44.42 42.59 42.2 42.59 40.18 C 42.59 40.18 46 45.52 55.26 45.52 C 65.02 45.52 71.64 38.73 71.64 29 C 71.64 19.95 65.55 12.67 55.28 12.67 C 45.65 12.67 42.66 17.88 42.66 17.88 L 42.66 0.44 L 35.6 0.44 Z M 35.6 0.44" />
    <path fill="#eba015" fill-rule="evenodd" d="M 96.85 29.76 L 96.85 31.78 C 96.85 34.42 95.23 40.97 85.67 40.97 C 80.44 40.97 78.2 38.35 78.2 35.32 C 78.2 29.79 85.75 29.76 96.85 29.76 M 88.78 12.57 C 74.1 12.57 73.16 20.64 73.16 21.93 L 80.46 21.93 C 80.46 21.93 80.85 17.22 88.28 17.22 C 93.11 17.22 96.85 19.43 96.85 23.69 L 96.85 25.21 L 88.28 25.21 C 76.9 25.21 70.89 28.55 70.89 35.32 C 70.89 41.98 76.44 45.61 83.95 45.61 C 94.19 45.61 97.49 39.94 97.49 39.94 C 97.49 42.19 97.66 44.42 97.66 44.42 L 104.16 44.42 C 104.16 44.42 103.9 41.66 103.9 39.9 L 103.9 24.66 C 103.9 14.68 95.87 12.57 88.78 12.57" />
    <path fill="#74a933" fill-rule="evenodd" d="M 99.97 13.84 L 108.19 13.84 L 119.99 37.54 L 131.77 13.84 L 139.22 13.84 L 117.77 56.04 L 109.96 56.04 L 116.14 44.28 L 99.97 13.84 Z M 99.97 13.84" />
    <path fill="#090605" fill-rule="evenodd" d="M 143.05 10.83 C 143.05 10.53 143.04 10.29 143.03 10.07 L 143.58 10.07 L 143.61 10.44 L 143.63 10.44 C 143.75 10.24 143.98 10.01 144.41 10.01 C 144.75 10.01 145.01 10.2 145.12 10.48 L 145.13 10.48 C 145.22 10.34 145.32 10.23 145.44 10.16 C 145.59 10.06 145.75 10.01 145.96 10.01 C 146.38 10.01 146.81 10.3 146.81 11.12 L 146.81 12.63 L 146.18 12.63 L 146.18 11.21 C 146.18 10.79 146.04 10.53 145.73 10.53 C 145.51 10.53 145.35 10.69 145.28 10.88 C 145.26 10.94 145.25 11.02 145.25 11.09 L 145.25 12.63 L 144.62 12.63 L 144.62 11.14 C 144.62 10.79 144.47 10.53 144.18 10.53 C 143.93 10.53 143.77 10.72 143.71 10.9 C 143.69 10.97 143.68 11.04 143.68 11.11 L 143.68 12.63 L 143.05 12.63 L 143.05 10.83 L 143.05 10.83 Z M 141.95 9.33 L 141.95 10.07 L 142.56 10.07 L 142.56 10.55 L 141.95 10.55 L 141.95 11.68 C 141.95 11.99 142.03 12.15 142.28 12.15 C 142.39 12.15 142.47 12.14 142.53 12.12 L 142.54 12.62 C 142.44 12.65 142.28 12.68 142.07 12.68 C 141.84 12.68 141.64 12.6 141.52 12.47 C 141.38 12.32 141.32 12.09 141.32 11.75 L 141.32 10.55 L 140.95 10.55 L 140.95 10.07 L 141.32 10.07 L 141.32 9.49 L 141.95 9.33 Z M 141.95 9.33" />
</svg>