<?xml version="1.0" encoding="utf-8"?>
<!-- Generator: Avocode 2.6.0 - http://avocode.com -->
<svg height="87" width="71" xmlns:xlink="http://www.w3.org/1999/xlink" xmlns="http://www.w3.org/2000/svg" viewBox="0 0 71 87">
    <path fill="#dd2516" fill-rule="evenodd" d="M 68.01 34.54 C 68.01 53.18 52.96 68.29 34.4 68.29 C 15.84 68.29 0.79 53.18 0.79 34.54 C 0.79 15.9 15.84 0.78 34.4 0.78 C 52.96 0.78 68.01 15.9 68.01 34.54 M 34.4 12.02 C 22.01 12.02 11.97 22.1 11.97 34.54 C 11.97 46.97 22.01 57.05 34.4 57.05 C 46.78 57.05 56.82 46.97 56.82 34.54 C 56.82 22.1 46.78 12.02 34.4 12.02" />
    <path fill="#dd2516" fill-rule="evenodd" d="M 34.4 22.97 C 28.04 22.97 22.88 28.15 22.88 34.54 C 22.88 40.93 28.04 46.11 34.4 46.11 C 40.76 46.11 45.92 40.93 45.92 34.54 C 45.92 28.15 40.76 22.97 34.4 22.97" />
    <path fill="#dd2516" fill-rule="evenodd" d="M 4.12 76.24 L 0.42 76.24 L 0.42 73.95 L 10.52 73.95 L 10.52 76.24 L 6.83 76.24 L 6.83 86.33 L 4.12 86.33 L 4.12 76.24 Z M 4.12 76.24" />
    <path fill="#dd2516" fill-rule="evenodd" d="M 15.38 77 L 15.41 77 L 16.96 81.54 L 13.77 81.54 L 15.38 77 Z M 9.35 86.33 L 12.09 86.33 L 13.06 83.57 L 17.67 83.57 L 18.6 86.33 L 21.42 86.33 L 16.81 73.95 L 14.03 73.95 L 9.35 86.33 Z M 9.35 86.33" />
    <path fill="#dd2516" fill-rule="evenodd" d="M 25.2 76.07 L 28.17 76.07 C 29.38 76.07 30.03 76.58 30.03 77.78 C 30.03 79.03 29.38 79.55 28.17 79.55 L 25.2 79.55 L 25.2 76.07 Z M 22.49 86.33 L 25.2 86.33 L 25.2 81.49 L 27.91 81.49 C 29.27 81.49 29.78 82.06 29.97 83.36 C 30.1 84.35 30.07 85.55 30.39 86.33 L 33.11 86.33 C 32.63 85.63 32.64 84.17 32.59 83.4 C 32.5 82.15 32.12 80.85 30.79 80.5 L 30.79 80.47 C 32.16 79.91 32.74 78.82 32.74 77.36 C 32.74 75.49 31.34 73.95 29.14 73.95 L 22.49 73.95 L 22.49 86.33 L 22.49 86.33 Z M 22.49 86.33" />
    <path fill="#dd2516" fill-rule="evenodd" d="M 43.52 84.92 C 42.57 86.16 41.33 86.63 40.13 86.63 C 36.32 86.63 34.08 83.77 34.08 80.19 C 34.08 76.51 36.32 73.65 40.13 73.65 C 42.66 73.65 45.03 75.22 45.33 78.02 L 42.74 78.02 C 42.43 76.65 41.41 75.94 40.13 75.94 C 37.7 75.94 36.78 78.02 36.78 80.19 C 36.78 82.25 37.7 84.33 40.13 84.33 C 41.89 84.33 42.91 83.38 43.07 81.67 L 40.34 81.67 L 40.34 79.63 L 45.52 79.63 L 45.52 86.33 L 43.8 86.33 L 43.52 84.92" />
    <path fill="#dd2516" fill-rule="evenodd" d="M 47.37 73.95 L 56.59 73.95 L 56.59 76.24 L 50.08 76.24 L 50.08 78.89 L 56.05 78.89 L 56.05 81 L 50.08 81 L 50.08 84.04 L 56.72 84.04 L 56.72 86.33 L 47.37 86.33 L 47.37 73.95 Z M 47.37 73.95" />
    <path fill="#dd2516" fill-rule="evenodd" d="M 61.62 76.24 L 57.94 76.24 L 57.94 73.95 L 68.03 73.95 L 68.03 76.24 L 64.34 76.24 L 64.34 86.33 L 61.62 86.33 L 61.62 76.24 Z M 61.62 76.24" />
    <path fill="#dd2516" fill-rule="evenodd" d="M 65.97 84.23 C 65.97 83.02 66.95 82.13 68.1 82.13 C 69.24 82.13 70.21 83.02 70.21 84.23 C 70.21 85.45 69.24 86.33 68.1 86.33 C 66.95 86.33 65.97 85.45 65.97 84.23 L 65.97 84.23 Z M 68.1 85.99 C 69.04 85.99 69.79 85.24 69.79 84.23 C 69.79 83.23 69.04 82.48 68.1 82.48 C 67.14 82.48 66.39 83.23 66.39 84.23 C 66.39 85.24 67.14 85.99 68.1 85.99 L 68.1 85.99 Z M 67.65 85.45 L 67.29 85.45 L 67.29 83.02 L 68.21 83.02 C 68.78 83.02 69.06 83.23 69.06 83.71 C 69.06 84.15 68.79 84.33 68.44 84.38 L 69.12 85.45 L 68.71 85.45 L 68.08 84.4 L 67.65 84.4 L 67.65 85.45 Z M 68.09 84.09 C 68.4 84.09 68.68 84.06 68.68 83.69 C 68.68 83.39 68.41 83.33 68.15 83.33 L 67.65 83.33 L 67.65 84.09 L 68.09 84.09 L 68.09 84.09 Z M 68.09 84.09" />
</svg>