<?xml version="1.0" encoding="utf-8"?>
<!-- Generator: Avocode 2.6.0 - http://avocode.com -->
<svg height="42" width="137" xmlns:xlink="http://www.w3.org/1999/xlink" xmlns="http://www.w3.org/2000/svg" viewBox="0 0 137 42">
    <path fill="#ff9900" fill-rule="evenodd" d="M 85.28 32.35 C 77.37 38.23 65.91 41.36 56.04 41.36 C 42.21 41.36 29.75 36.2 20.32 27.63 C 19.58 26.95 20.24 26.03 21.13 26.55 C 31.3 32.52 43.88 36.11 56.87 36.11 C 65.63 36.11 75.27 34.28 84.13 30.49 C 85.47 29.92 86.59 31.38 85.28 32.35" />
    <path fill="#ff9900" fill-rule="evenodd" d="M 88.57 28.56 C 87.56 27.26 81.88 27.95 79.34 28.25 C 78.56 28.35 78.44 27.67 79.14 27.17 C 83.67 23.97 91.08 24.9 91.94 25.97 C 92.81 27.05 91.71 34.54 87.47 38.12 C 86.82 38.67 86.2 38.38 86.49 37.65 C 87.44 35.25 89.58 29.87 88.57 28.56" />
    <path fill="#000000" fill-rule="evenodd" d="M 79.52 4.54 L 79.52 1.43 C 79.52 0.96 79.87 0.64 80.3 0.64 L 94.14 0.64 C 94.58 0.64 94.94 0.97 94.94 1.43 L 94.94 4.1 C 94.94 4.54 94.56 5.13 93.9 6.06 L 86.73 16.37 C 89.39 16.31 92.2 16.71 94.62 18.08 C 95.17 18.39 95.31 18.85 95.36 19.3 L 95.36 22.62 C 95.36 23.08 94.86 23.61 94.34 23.33 C 90.08 21.08 84.42 20.84 79.71 23.36 C 79.23 23.62 78.73 23.1 78.73 22.64 L 78.73 19.48 C 78.73 18.97 78.74 18.11 79.24 17.34 L 87.55 5.33 L 80.32 5.33 C 79.87 5.33 79.52 5.01 79.52 4.54" />
    <path fill="#000000" fill-rule="evenodd" d="M 29.02 23.99 L 24.81 23.99 C 24.41 23.96 24.09 23.66 24.05 23.27 L 24.06 1.48 C 24.06 1.05 24.42 0.7 24.87 0.7 L 28.79 0.7 C 29.2 0.72 29.53 1.03 29.56 1.43 L 29.56 4.27 L 29.64 4.27 C 30.66 1.52 32.59 0.24 35.18 0.24 C 37.81 0.24 39.46 1.52 40.64 4.27 C 41.67 1.52 43.99 0.24 46.46 0.24 C 48.23 0.24 50.16 0.97 51.34 2.62 C 52.67 4.46 52.4 7.12 52.4 9.45 L 52.4 23.2 C 52.4 23.64 52.03 23.99 51.58 23.99 L 47.38 23.99 C 46.95 23.96 46.62 23.62 46.62 23.2 L 46.62 11.65 C 46.62 10.74 46.7 8.45 46.5 7.58 C 46.19 6.11 45.24 5.69 44.03 5.69 C 43 5.69 41.94 6.38 41.51 7.48 C 41.08 8.58 41.12 10.42 41.12 11.65 L 41.12 23.2 C 41.12 23.64 40.75 23.99 40.3 23.99 L 36.1 23.99 C 35.67 23.96 35.34 23.62 35.34 23.2 L 35.34 11.65 C 35.34 9.23 35.73 5.65 32.74 5.65 C 29.71 5.65 29.83 9.13 29.83 11.65 L 29.83 23.2 C 29.83 23.64 29.47 23.99 29.02 23.99" />
    <path fill="#000000" fill-rule="evenodd" d="M 106.9 4.69 C 103.79 4.69 103.59 8.95 103.59 11.61 C 103.59 14.27 103.55 19.95 106.86 19.95 C 110.12 19.95 110.28 15.37 110.28 12.57 C 110.28 10.74 110.2 8.54 109.65 6.8 C 109.18 5.28 108.23 4.69 106.9 4.69 M 106.86 0.24 C 113.11 0.24 116.49 5.65 116.49 12.53 C 116.49 19.17 112.75 24.45 106.86 24.45 C 100.72 24.45 97.38 19.03 97.38 12.3 C 97.38 5.51 100.76 0.24 106.86 0.24" />
    <path fill="#000000" fill-rule="evenodd" d="M 124.59 23.99 L 120.4 23.99 C 119.98 23.96 119.64 23.62 119.64 23.2 L 119.64 1.41 C 119.67 1.01 120.02 0.7 120.44 0.7 L 124.35 0.7 C 124.72 0.72 125.02 0.97 125.1 1.31 L 125.1 4.64 L 125.18 4.64 C 126.36 1.66 128.01 0.24 130.92 0.24 C 132.8 0.24 134.65 0.93 135.83 2.81 C 136.93 4.55 136.93 7.48 136.93 9.59 L 136.93 23.3 C 136.89 23.69 136.54 23.99 136.13 23.99 L 131.9 23.99 C 131.51 23.96 131.2 23.67 131.15 23.3 L 131.15 11.47 C 131.15 9.09 131.43 5.6 128.52 5.6 C 127.5 5.6 126.55 6.29 126.08 7.35 C 125.49 8.68 125.41 10 125.41 11.47 L 125.41 23.2 C 125.41 23.64 125.04 23.99 124.59 23.99" />
    <path fill="#000000" fill-rule="evenodd" d="M 72.73 23.93 C 72.45 24.18 72.04 24.2 71.73 24.03 C 70.33 22.86 70.08 22.32 69.32 21.2 C 67.01 23.58 65.37 24.29 62.37 24.29 C 58.83 24.29 56.07 22.08 56.07 17.67 C 56.07 14.23 57.92 11.88 60.56 10.73 C 62.85 9.72 66.04 9.54 68.48 9.26 L 68.48 8.71 C 68.48 7.7 68.56 6.51 67.97 5.63 C 67.46 4.85 66.47 4.53 65.6 4.53 C 64 4.53 62.57 5.36 62.22 7.08 C 62.15 7.46 61.87 7.84 61.49 7.86 L 57.41 7.42 C 57.06 7.34 56.68 7.06 56.78 6.53 C 57.72 1.54 62.19 0.03 66.19 0.03 C 68.24 0.03 70.92 0.58 72.54 2.14 C 74.59 4.07 74.39 6.65 74.39 9.45 L 74.39 16.06 C 74.39 18.05 75.21 18.92 75.98 19.99 C 76.25 20.38 76.31 20.84 75.97 21.12 C 75.11 21.85 73.58 23.19 72.74 23.94 L 72.73 23.93 Z M 68.48 13.58 C 68.48 15.24 68.52 16.61 67.69 18.09 C 67.02 19.28 65.96 20.01 64.78 20.01 C 63.16 20.01 62.22 18.77 62.22 16.94 C 62.22 13.32 65.43 12.66 68.48 12.66 L 68.48 13.58 Z M 68.48 13.58" />
    <path fill="#000000" fill-rule="evenodd" d="M 17.52 23.93 C 17.24 24.18 16.84 24.2 16.52 24.03 C 15.12 22.86 14.87 22.32 14.11 21.2 C 11.8 23.58 10.16 24.29 7.16 24.29 C 3.62 24.29 0.86 22.08 0.86 17.67 C 0.86 14.23 2.71 11.88 5.35 10.73 C 7.64 9.72 10.83 9.54 13.27 9.26 L 13.27 8.71 C 13.27 7.7 13.35 6.51 12.76 5.63 C 12.25 4.85 11.26 4.53 10.4 4.53 C 8.79 4.53 7.36 5.36 7.01 7.08 C 6.94 7.46 6.66 7.84 6.28 7.86 L 2.2 7.42 C 1.85 7.34 1.47 7.06 1.57 6.53 C 2.51 1.54 6.98 0.03 10.99 0.03 C 13.03 0.03 15.71 0.58 17.33 2.14 C 19.38 4.07 19.18 6.65 19.18 9.45 L 19.18 16.06 C 19.18 18.05 20 18.92 20.77 19.99 C 21.04 20.38 21.1 20.84 20.76 21.12 C 19.9 21.85 18.37 23.19 17.53 23.94 L 17.52 23.93 Z M 13.27 13.58 C 13.27 15.24 13.31 16.61 12.48 18.09 C 11.81 19.28 10.75 20.01 9.57 20.01 C 7.95 20.01 7.01 18.77 7.01 16.94 C 7.01 13.32 10.23 12.66 13.27 12.66 L 13.27 13.58 Z M 13.27 13.58" />
</svg>