<svg width="24" height="24" viewBox="0 0 24 24" fill="none" xmlns="http://www.w3.org/2000/svg"><path fill-rule="evenodd" clip-rule="evenodd" d="M1 3C1 2.44772 1.44772 2 2 2C2.55228 2 3 2.44772 3 3V19C3 19.5523 3.44772 20 4 20L22 20C22.5523 20 23 20.4477 23 21C23 21.5523 22.5523 22 22 22H3C1.89543 22 1 21.1046 1 20V3ZM15.2001 2C14.6478 2 14.2001 2.44772 14.2001 3V17C14.2001 17.5523 14.6478 18 15.2001 18C15.7524 18 16.2001 17.5523 16.2001 17V3C16.2001 2.44772 15.7524 2 15.2001 2ZM5.40002 10C5.40002 9.44772 5.84774 9 6.40002 9C6.95231 9 7.40002 9.44772 7.40002 10V17C7.40002 17.5523 6.95231 18 6.40002 18C5.84774 18 5.40002 17.5523 5.40002 17V10ZM9.80005 13C9.80005 12.4477 10.2478 12 10.8 12C11.3523 12 11.8 12.4477 11.8 13V17C11.8 17.5523 11.3523 18 10.8 18C10.2478 18 9.80005 17.5523 9.80005 17V13ZM18.6001 6C18.6001 5.44772 19.0478 5 19.6001 5C20.1524 5 20.6001 5.44772 20.6001 6V17C20.6001 17.5523 20.1524 18 19.6001 18C19.0478 18 18.6001 17.5523 18.6001 17V6Z" fill="#555"/></svg>
