<svg width="24" height="24" xmlns="http://www.w3.org/2000/svg"><path fill-rule="evenodd" clip-rule="evenodd" d="M10 3C10 2.44772 10.4477 2 11 2H13C13.5523 2 14 2.44772 14 3H15C15.5523 3 16 3.44772 16 4H19C19.5523 4 20 4.44772 20 5V21C20 21.5523 19.5523 22 19 22H5C4.44772 22 4 21.5523 4 21V5C4 4.44772 4.44772 4 5 4H8C8 3.44772 8.44772 3 9 3H10ZM9 7C8.44772 7 8 6.55228 8 6H6V20H18V6H16C16 6.55228 15.5523 7 15 7H9ZM9.5 4.5C9.22386 4.5 9 4.72386 9 5C9 5.27614 9.22386 5.5 9.5 5.5H14.5C14.7761 5.5 15 5.27614 15 5C15 4.72386 14.7761 4.5 14.5 4.5H9.5ZM11.4918 16.1706C11.1854 16.477 10.7296 16.543 10.3588 16.3686C10.2495 16.3201 10.1471 16.2511 10.0575 16.1614L8.29289 14.3968C7.90237 14.0063 7.90237 13.3731 8.29289 12.9826C8.68342 12.5921 9.31658 12.5921 9.70711 12.9826L10.7792 14.0547L14.9599 9.87407C15.3504 9.48355 15.9836 9.48355 16.3741 9.87407C16.7646 10.2646 16.7646 10.8978 16.3741 11.2883L11.4918 16.1706Z" fill="#000"/></svg>