<svg width="21" height="31" xmlns="http://www.w3.org/2000/svg"><path d="M21.0115 9.47127L19.9814 18.4501C19.7301 20.6159 18.9291 21.6224 17.5783 21.4695C16.1517 21.3056 15.5556 20.1464 15.7899 17.9919L16.4313 12.4266C16.6271 10.4086 15.6789 9.25772 13.5867 8.97392C11.5012 8.73666 10.3377 9.67437 10.0961 11.7871L9.44729 17.3226C8.71853 23.6638 11.1476 27.132 16.7345 27.7271C22.4413 28.3998 25.6468 25.5418 26.3509 19.1532L27.3841 10.1783C27.6499 8.09614 28.4806 7.13524 29.8763 7.29564C31.3118 7.48711 31.9088 8.63377 31.6672 10.7356L29.9204 25.8258L29.7553 27.1366C29.5139 29.2577 28.3323 30.1958 26.2103 29.9507L9.89838 28.0815C7.70856 27.8298 6.73771 26.6926 6.98583 24.6698L8.51899 11.3763C8.52028 11.3494 8.51918 11.3276 8.52205 11.3026L8.686 9.87602C8.93844 7.6899 10.0726 6.71931 12.0886 6.96424L16.8692 7.51546C18.9744 7.71764 20.1521 6.80866 20.4023 4.78851C20.6343 2.70724 19.6677 1.55364 17.5027 1.3277L12.8782 0.785397C6.65108 0.0697551 3.17485 2.85202 2.51527 9.14156L2.39231 10.2115C2.35796 10.3846 2.3387 10.5523 2.30662 10.7527L0.80185 23.8778C0.085388 30.112 2.87161 33.5905 9.16052 34.3133L25.3563 36.1709C31.7282 36.9056 35.2712 34.1557 35.9853 27.9212L36.038 27.4937C36.0627 27.3574 35.8597 29.1553 35.8785 29.0075L37.9202 11.4145C38.6286 5.14561 36.173 1.6726 30.5534 0.995456C25.0164 0.343466 21.8358 3.16873 21.0115 9.47127Z" fill="#66b7cb"/></svg>
