<svg width="194" height="120" xmlns="http://www.w3.org/2000/svg"><path d="M128.747 40.414L91.9663 60.9479C83.0867 65.8901 77.0983 65.5974 74.0011 60.0699C70.7397 54.2252 73.5043 48.815 82.295 43.8394L105.101 31.1231C113.27 26.373 115.045 19.6531 110.426 10.9636C105.649 2.42606 98.9347 0.574532 90.2824 5.40902L67.5692 18.0163C41.5895 32.5133 35.0749 51.1425 48.0251 73.9038C61.008 97.3303 80.5455 101.684 106.637 86.9646L143.412 66.4534C152.015 61.7935 157.911 62.3225 161.102 68.0406C164.283 73.9938 161.569 79.3729 152.957 84.1781L91.0995 118.629L85.6898 121.571C77.0061 126.429 70.241 124.51 65.3946 115.813L28.0824 48.9989C23.0761 40.0273 24.7379 33.2589 33.0678 28.6938L87.5452 -1.67669C87.6507 -1.74515 87.7302 -1.80868 87.8325 -1.86576L93.6772 -5.12718C102.637 -10.1204 109.396 -8.46944 113.955 -0.174181L124.877 19.4169C129.84 27.9335 136.485 29.9168 144.81 25.3668C153.318 20.5813 155.053 13.7846 150.017 4.97671L139.485 -13.9991C125.249 -39.5112 105.262 -45.0953 79.6657 -30.4771L75.2822 -28.0311C74.5336 -27.69 73.8468 -27.3068 73.0009 -26.8826L19.2379 3.13706C-6.30332 17.3895 -11.8852 37.3983 2.49219 63.1636L39.5321 129.507C54.09 155.619 74.1369 161.544 99.6727 147.282L101.434 146.318C102.017 146.04 94.6611 150.164 95.2715 149.833L167.403 109.688C193.054 95.3109 199.515 76.5681 186.786 53.4596C174.187 30.7323 154.84 26.3838 128.747 40.414Z" fill="#66b7cb"/></svg>
