<svg width="77" height="72" xmlns="http://www.w3.org/2000/svg"><path d="M19.7961 10.0199L-0.836921 21.5389C-5.81814 24.3113 -9.17747 24.1471 -10.9149 21.0463C-12.7445 17.7676 -11.1936 14.7327 -6.26226 11.9415L6.53107 4.80801C11.1138 2.1433 12.1096 -1.62634 9.51847 -6.50092C6.83879 -11.2902 3.0721 -12.3289 -1.78158 -9.61689L-14.5231 -2.54458C-29.0969 5.58785 -32.7515 16.0383 -25.4867 28.8068C-18.2037 41.9484 -7.24372 44.3906 7.39309 36.1335L28.0225 24.6273C32.8484 22.0132 36.1564 22.31 37.9463 25.5177C39.731 28.8572 38.208 31.8748 33.3774 34.5704L-1.32319 53.8962L-4.3579 55.5466C-9.22919 58.272 -13.0242 57.1954 -15.743 52.3169L-36.6741 14.8358C-39.4824 9.80301 -38.5502 6.00614 -33.8774 3.4452L-3.31706 -13.5918C-3.25787 -13.6302 -3.21327 -13.6658 -3.15589 -13.6978L0.122813 -15.5274C5.14895 -18.3285 8.94065 -17.4023 11.4979 -12.7489L17.6251 -1.75886C20.4093 3.01871 24.1367 4.13129 28.8071 1.57886C33.5794 -1.10565 34.5529 -4.9184 31.7277 -9.8594L25.8199 -20.5043C17.8339 -34.8159 6.62129 -37.9484 -7.73726 -29.748L-10.1963 -28.3758C-10.6162 -28.1845 -11.0015 -27.9695 -11.476 -27.7316L-41.6355 -10.8914C-55.9635 -2.89619 -59.0948 8.32823 -51.0294 22.7818L-30.2511 59.9988C-22.0845 74.6467 -10.8387 77.9703 3.48614 69.9697L4.47433 69.429C4.80134 69.2734 0.67474 71.5868 1.0172 71.4011L41.4811 48.8808C55.8703 40.8156 59.4946 30.3014 52.3541 17.3382C45.2863 4.58877 34.4337 2.14936 19.7961 10.0199Z" fill="#66b7cb"/></svg>
