<svg width="83" height="69" xmlns="http://www.w3.org/2000/svg"><path d="M44.9686 19.5705L42.7118 39.242C42.1612 43.9869 40.4062 46.192 37.4468 45.8571C34.3214 45.4979 33.0153 42.9582 33.5288 38.2381L34.934 26.0452C35.3629 21.6241 33.2855 19.1026 28.7018 18.4809C24.1328 17.961 21.5836 20.0155 21.0543 24.6441L19.6329 36.7717C18.0363 50.6645 23.358 58.2628 35.5982 59.5666C48.1011 61.0404 55.1239 54.779 56.6665 40.7824L58.9302 21.1196C59.5125 16.5578 61.3325 14.4525 64.3903 14.804C67.5352 15.2234 68.8431 17.7356 68.3139 22.3405L64.4867 55.4011L64.125 58.273C63.5962 62.9201 61.0074 64.9752 56.3585 64.4383L20.6212 60.3431C15.8235 59.7918 13.6965 57.3002 14.2401 52.8686L17.5991 23.7443C17.6019 23.6852 17.5995 23.6374 17.6058 23.5827L17.965 20.4572C18.518 15.6677 21.0029 13.5413 25.4196 14.0779L35.8934 15.2856C40.5056 15.7285 43.0858 13.737 43.634 9.31116C44.1422 4.75136 42.0246 2.22397 37.2812 1.72898L27.1495 0.540849C13.5067 -1.02703 5.89078 5.06856 4.44572 18.8481L4.17632 21.1923C4.10107 21.5715 4.05886 21.9388 3.98859 22.378L0.691828 51.1334C-0.877846 64.7918 5.22641 72.4127 19.0046 73.9961L54.4876 78.0661C68.4475 79.6757 76.2097 73.651 77.7742 59.992L77.8897 59.0553C77.9438 58.7567 77.4991 62.6957 77.5402 62.3719L82.0134 23.8278C83.5654 10.0935 78.1855 2.4846 65.8737 1.00106C53.7428 -0.427366 46.7745 5.76244 44.9686 19.5705Z" fill="#66b7cb"/></svg>
