<svg width="24" height="24" xmlns="http://www.w3.org/2000/svg">
<path fill-rule="evenodd" clip-rule="evenodd" d="M12 22C17.5228 22 22 17.5228 22 12C22 6.47715 17.5228 2 12 2C6.47715 2 2 6.47715 2 12C2 17.5228 6.47715 22 12 22ZM12 24C18.6274 24 24 18.6274 24 12C24 5.37258 18.6274 0 12 0C5.37258 0 0 5.37258 0 12C0 18.6274 5.37258 24 12 24Z" fill="#15768d"/>
<path fill-rule="evenodd" clip-rule="evenodd" d="M7.83337 6.92503C7.83337 6.60287 8.09453 6.3417 8.4167 6.3417H11.4208H12.5875C13.8278 6.34171 14.8333 7.3472 14.8333 8.58753C14.8333 9.82787 13.8278 10.8333 12.5875 10.8333H12.2375C11.5932 10.8333 11.0708 11.3557 11.0708 12C11.0708 12.6443 11.5932 13.1667 12.2375 13.1667H12.5875C13.8278 13.1667 14.8333 14.1722 14.8333 15.4125C14.8333 16.6528 13.8278 17.6583 12.5875 17.6583L11.4208 17.6584H8.4167C8.09453 17.6584 7.83337 17.3972 7.83337 17.075V6.92503ZM12.5875 18.825L7.83334 18.825C7.18901 18.825 6.66667 18.3027 6.66667 17.6584V6.3417C6.66667 5.69737 7.18901 5.17503 7.83334 5.17503H12.5875C14.4722 5.17504 16 6.70287 16 8.58753C16 10.4689 14.4775 11.9947 12.5973 12C14.4775 12.0053 16 13.5311 16 15.4125C16 17.2972 14.4722 18.825 12.5875 18.825ZM13.7542 5.17503C15.6389 5.17504 17.1667 6.70287 17.1667 8.58753C17.1667 10.4689 15.6442 11.9947 13.764 12C15.6442 12.0053 17.1667 13.5311 17.1667 15.4125C17.1667 17.2972 15.6389 18.825 13.7542 18.825H14.9209C16.8055 18.825 18.3334 17.2972 18.3334 15.4125C18.3334 13.5311 16.8108 12.0053 14.9307 12C16.8108 11.9947 18.3334 10.4689 18.3334 8.58753C18.3334 6.70287 16.8055 5.17504 14.9209 5.17503H13.7542Z" fill="#15768d"/>
</svg>
