<svg width="24" height="24" fill="none" xmlns="http://www.w3.org/2000/svg"><path fill-rule="evenodd" clip-rule="evenodd" d="M12 22c5.523 0 10-4.477 10-10S17.523 2 12 2 2 6.477 2 12s4.477 10 10 10zm0 2c6.627 0 12-5.373 12-12S18.627 0 12 0 0 5.373 0 12s5.373 12 12 12z" fill="#000"/><path fill-rule="evenodd" clip-rule="evenodd" d="M7.833 6.925c0-.322.261-.584.584-.584h4.17a2.246 2.246 0 110 4.492h-.35a1.167 1.167 0 000 2.333h.35a2.246 2.246 0 110 4.492h-4.17a.583.583 0 01-.584-.583V6.925zm4.754 11.9H7.833a1.167 1.167 0 01-1.167-1.167V6.341c0-.644.523-1.166 1.167-1.166h4.754a3.412 3.412 0 01.01 6.825 3.413 3.413 0 01-.01 6.825zm1.167-13.65a3.412 3.412 0 01.01 6.825 3.413 3.413 0 01-.01 6.825h1.167A3.413 3.413 0 0014.93 12a3.413 3.413 0 00-.01-6.825h-1.167z" fill="#333"/></svg>
