<svg width="24" height="24" viewBox="0 0 24 24" fill="none" xmlns="http://www.w3.org/2000/svg"><path d="M14.0794 4.95123L12.4697 6.61666C12.0808 7.01792 11.7651 7.09354 11.5225 6.84353C11.2667 6.57896 11.3306 6.24583 11.7143 5.84414L12.7127 4.81233C13.0674 4.43224 13.0606 4.04377 12.6922 3.64693C12.3179 3.26066 11.9414 3.26353 11.5628 3.65552L10.5676 4.68005C9.43049 5.85604 9.36653 6.95729 10.3758 7.9838C11.3965 9.04559 12.4767 8.98165 13.6164 7.79199L15.2261 6.12788C15.6048 5.74603 15.9192 5.68452 16.1695 5.94335C16.4228 6.21497 16.3609 6.54567 15.984 6.93547L13.2755 9.73191L13.0376 9.97267C12.6577 10.3664 12.2776 10.3664 11.8973 9.97267L8.97129 6.94869C8.5786 6.54259 8.56517 6.15324 8.931 5.78064L11.3159 3.31622C11.3204 3.31093 11.3236 3.3063 11.3281 3.30167L11.5839 3.0371C11.9761 2.63188 12.352 2.61755 12.7114 2.99411L13.5684 3.88107C13.9522 4.26336 14.3269 4.26865 14.6928 3.89694C15.0646 3.50979 15.0545 3.1178 14.6627 2.72095L13.8351 1.86111C12.7184 0.706289 11.5967 0.710919 10.4813 1.88757L10.2894 2.08599C10.2555 2.11576 10.2255 2.14684 10.1877 2.18256L7.8348 4.61722C6.71685 5.77336 6.72176 6.93458 7.84951 8.10087L10.7544 11.1037C11.8966 12.2858 13.0265 12.2986 14.144 11.142L14.2214 11.0633C14.2476 11.0395 13.9259 11.3735 13.9528 11.3464L17.1116 8.08698C18.2333 6.92246 18.2928 5.81592 17.29 4.76736C16.2995 3.73732 15.2293 3.79861 14.0794 4.95123Z" fill="#156477"/><path fill-rule="evenodd" clip-rule="evenodd" d="M1 2.5C1 1.94772 1.44772 1.5 2 1.5H3.5C3.95563 1.5 4.35365 1.80799 4.468 2.24904L7.57961 14.251C7.69395 14.692 8.09198 15 8.5476 15H17.9582C18.4125 15 18.8097 14.6938 18.9253 14.2545L20.7028 7.5H19.5C18.9477 7.5 18.5 7.05228 18.5 6.5C18.5 5.94772 18.9477 5.5 19.5 5.5H20.7028C22.0141 5.5 22.9707 6.74082 22.6369 8.00899L20.6633 15.509C20.432 16.3876 19.6377 17 18.7291 17H7.7738C6.86255 17 6.0665 16.384 5.83781 15.5019L2.90845 4.20296C2.80114 3.78904 2.4276 3.5 2 3.5C1.44772 3.5 1 3.05228 1 2.5Z" fill="#156477"/><path fill-rule="evenodd" clip-rule="evenodd" d="M8.6 22.2C9.48366 22.2 10.2 21.4837 10.2 20.6C10.2 19.7163 9.48366 19 8.6 19C7.71634 19 7 19.7163 7 20.6C7 21.4837 7.71634 22.2 8.6 22.2Z" fill="#156477"/><path fill-rule="evenodd" clip-rule="evenodd" d="M17.6 22.2C18.4837 22.2 19.2 21.4837 19.2 20.6C19.2 19.7163 18.4837 19 17.6 19C16.7163 19 16 19.7163 16 20.6C16 21.4837 16.7163 22.2 17.6 22.2Z" fill="#156477"/></svg>
