<svg xmlns="http://www.w3.org/2000/svg" viewBox="18.1 0 361 172.3"><path fill="#2b8449" d="m143 41.5-.5-1.8a18.8 18.8 0 0 0 12.8-10.1l1.8.7a20 20 0 0 1-5.7 7.1 22 22 0 0 1-8.4 4.1Zm-23.8-26.3-2-.4a20 20 0 0 1 7.6-10.7 22.2 22.2 0 0 1 25.9 0c3.7 2.7 6.3 6.4 7.5 10.7l-2 .4c-1-3.8-3.4-7.2-6.7-9.6a20 20 0 0 0-23.5 0 17.7 17.7 0 0 0-6.8 9.6Z"/><path fill="#2b8449" d="M156.9 30.9h-1a2 2 0 0 1-1.5-.6 2 2 0 0 1-.6-1.3V16c0-.6.3-1 .6-1.4a2 2 0 0 1 1.5-.5h1a5.4 5.4 0 0 1 3.5 1.3 4.7 4.7 0 0 1 1.5 3.3v7.5a4.7 4.7 0 0 1-1.5 3.3A5 5 0 0 1 157 31Zm-1-15V29h1c.8 0 1.5-.3 2.1-.8.6-.5.9-1.2.9-2v-7.5c0-.7-.3-1.4-.9-2-.6-.5-1.3-.8-2.1-.8h-1ZM139.8 45h-4c-1.1 0-2.2-.5-3-1.2a3.6 3.6 0 0 1-1-2.6c0-1 .3-2 1-2.7.8-.7 1.9-1 3-1h4c1 0 2 .3 2.8 1a3.6 3.6 0 0 1 0 5.3c-.8.7-1.8 1.1-2.8 1.1Zm-4-5.7a2 2 0 0 0-1.5.6c-.4.3-.6.8-.6 1.3s.2 1 .6 1.3c.4.4.9.6 1.4.6h4a2 2 0 0 0 1.5-.6c.4-.3.6-.8.6-1.3s-.2-1-.6-1.3a2 2 0 0 0-1.4-.6h-4Zm-9.1-28a1 1 0 0 1-.7-.3l-4-3.8 1.4-1.3 3.3 3a15.8 15.8 0 0 1 11-4.2A16.7 16.7 0 0 1 148.8 9l3.3-3 1.4 1.2-4 3.8-.7.3a1 1 0 0 1-.7-.4 14.6 14.6 0 0 0-21 .2 1 1 0 0 1-.4.2Z"/><path fill="#156477" d="M23.5 70.4c1-1.7 3.4-.2 2.9 1.5-1 2.7-2 5.3-2.8 8 0 .6-.2 1.1-.3 1.6.3.5.4 1 .3 1.7l-.6 2.4-.1 2.3a73 73 0 0 0 1.7 16.9c2.2 5.4 5.9 10 10 14 4.6 4.4 9.7 8.4 15 11.8a40 40 0 0 0 12.1 5.3c1.9.1 3.7 0 5.5-.5.6-.2 1 0 1.4.2.4 0 .9.4 1 1h.2l.4-.6c1-1.2 2.6-.7 3 .7.3.8 0 1.8-.3 2.6a31.3 31.3 0 0 1-6.8 12.6c-.6.6-1.4 1-2.2.6-.4.4-.9.5-1.5.7-1.6.4-2.5-1.6-1.7-2.8a29.5 29.5 0 0 0 4.4-8 72.6 72.6 0 0 1-31.5-15.5 45.6 45.6 0 0 1-15.2-28 37 37 0 0 1 .2-11 50.6 50.6 0 0 1 4.9-17.5Z"/><path fill="#2d8ca4" d="M72.5 135.5c.4 7.8-4.2 15.7-10 16.3a59.9 59.9 0 0 0 61.7-34.4c10-23.3 2.8-49-17.2-64.4-20.1-15.5-51.3-19-71-3-9.7 8-20 30-14 50.5 5.2 18.6 31 37.2 50.4 35Z"/><path fill="#ebf5f8" d="M23.3 91.3c2 13.2 11.3 23.3 20.3 32.5 2.7 2.8 5.6 6 9.6 6.6 1.5.3 1.4 2.8-.2 2.5a18 18 0 0 1-9.3-5.2c-2.7-2.5-5.4-5.2-8-8-4.9-5-9.4-10.5-12.4-17A36 36 0 0 1 20 91.8c-.3-2 3-2.7 3.3-.5ZM69.8 148c5 0 10.1-.7 15.1-1.5 4.5-.7 9.5-1.2 13.3-4 1.5-1 3.3 1.2 1.8 2.3-4.1 3-9.2 3.8-14.1 4.8-5.4 1-11 2-16.5 2-2.3 0-2-3.7.4-3.7Z"/><path fill="#156477" d="M104.9 129.3a41.9 41.9 0 0 0 12.1-21c.2-.9 1-1.7 2-1.6 1 0 2 1 1.7 2a36.4 36.4 0 0 1-14 22.8c-1.5 1-3-1-1.8-2.2Zm-8.3 7.1.4-.4c.2 0 .3-.2.5-.3l.7-.6.3-.5c.2-.3.7-.5 1-.6.4 0 .9 0 1.2.3.3.2.6.6.6 1s0 .8-.2 1.1a5.5 5.5 0 0 1-2 1.8l-.7.2h-1c-.6 0-1-.3-1.1-.8v-.6c0-.2.1-.5.3-.6ZM30.7 68.3c1-1.4 3.2.2 2.2 1.6-1.2 1.8-2 3.8-2.2 5.9-.3 2.2 0 4.2.4 6.4.2 1.4-1.8 2-2.3.7-2.1-4.7-1-10.5 1.9-14.6Z"/><path fill="#0a5061" d="M62.2 153.7h.3a61.2 61.2 0 0 0 63.2-35.2 55 55 0 0 0-17.7-66A67.3 67.3 0 0 0 71.7 39a51.5 51.5 0 0 0-36.1 10.6 54.2 54.2 0 0 0-14.6 52c5.5 19.1 31 37.1 50.5 36-.2 6.7-4.2 13-9 13.5a1.3 1.3 0 0 0-.3 2.6Zm28-108a62 62 0 0 1 16.2 9 52.2 52.2 0 0 1 16.8 62.8 58.6 58.6 0 0 1-55.4 34c4-3 6.6-9.1 6.3-15.5a1.3 1.3 0 0 0-1.5-1.2c-18.2 2-43.8-15.7-49-34a51.2 51.2 0 0 1 13.6-49.1c14.8-12 35.6-12.4 53-6Z"/><path fill="#156477" d="M193.6 96.6c-1-1.5-3.1-.1-2.6 1.4.9 2.4 1.8 4.7 2.5 7.1l.4 1.4c-.4.4-.4 1-.3 1.5l.6 2.2v2a65 65 0 0 1-1.3 15c-2 5-5.2 9-8.9 12.7-4 3.9-8.5 7.5-13.2 10.5-3.3 2.2-7 4-10.7 5-1.7 0-3.3-.1-5-.5-.4-.1-.8 0-1.1.2-.4 0-.8.4-1 .8h-.1a2 2 0 0 0-.3-.4c-1-1.1-2.4-.7-2.8.6-.2.8.2 1.6.4 2.3a27.4 27.4 0 0 0 6.1 11.2c.5.6 1.3.8 2 .5.4.3.8.5 1.3.6 1.4.4 2.3-1.5 1.6-2.5a26.5 26.5 0 0 1-4-7c10-2.7 20-7 27.8-14.1a40.6 40.6 0 0 0 13.4-25.1c.3-3.2.3-6.6-.3-9.8a45.2 45.2 0 0 0-4.5-15.6Z"/><path fill="#2d8ca4" d="M150.5 155c-.3 7 3.9 14 9.1 14.5a53.3 53.3 0 0 1-55.3-30.2A47.6 47.6 0 0 1 119 81.8c17.7-13.9 45.4-17.4 63-3.3a47 47 0 0 1 13 45c-4.5 16.5-27.2 33.3-44.6 31.5Z"/><path fill="#ebf5f8" d="M194 115.2c-1.7 11.8-10 20.9-17.8 29.2-2.4 2.5-5 5.3-8.6 6-1.3.2-1.2 2.4.2 2.2 3.3-.6 6-2.5 8.2-4.7a118 118 0 0 0 7-7.2c4.4-4.6 8.4-9.5 11-15.3a32 32 0 0 0 2.9-9.7c.2-2-2.7-2.4-3-.5ZM153 166c-4.5.1-9-.4-13.5-1-4-.7-8.4-1-11.8-3.5-1.4-1-3 1-1.6 2 3.7 2.7 8.2 3.4 12.6 4.2 4.8.9 9.7 1.8 14.6 1.6 2.1 0 1.8-3.2-.3-3.2Z"/><path fill="#156477" d="M121.6 149.8a36 36 0 0 1-11-18.5c-.2-.9-.9-1.6-1.8-1.5-.8 0-1.7 1-1.5 1.8 1.7 8 6 15.5 12.7 20.1 1.4 1 2.7-.8 1.6-1.9Zm7.4 6.2a5 5 0 0 0-.4-.3l-.4-.3-.6-.5a4 4 0 0 1-.3-.4c-.2-.3-.6-.5-1-.5-.2-.1-.7 0-1 .2-.2.2-.5.5-.5.9s0 .7.3 1a4.9 4.9 0 0 0 1.8 1.6l.6.2h1a1 1 0 0 0 .8-.7v-.6l-.3-.6Zm58.1-61.2c-.9-1.3-2.8.2-2 1.5 1.1 1.5 1.9 3.3 2.1 5.2.3 2 0 3.8-.3 5.7-.2 1.2 1.6 1.7 2 .6 2-4.2.8-9.4-1.8-13Z"/><path fill="#0a5061" d="M159.8 171.1h-.3a54.5 54.5 0 0 1-56.5-30.7 48.8 48.8 0 0 1 15-59 60 60 0 0 1 32.3-12.3c12.4-1 23.8 2.3 32.3 9 9 7.3 18.6 27.3 13.4 46.2-4.7 17.2-27.2 33.4-44.6 32.5.3 6 3.9 11.6 8 12a1.2 1.2 0 0 1 .4 2.3ZM134 75.2a56 56 0 0 0-14.5 8.1 46.5 46.5 0 0 0-14.4 56.1 52.2 52.2 0 0 0 49.7 30 17 17 0 0 1-5.7-13.9 1.2 1.2 0 0 1 1.3-1.1c16.2 1.7 38.9-14.4 43.3-30.7 5-18-4.1-37-12.5-43.7-13.3-10.6-31.9-10.7-47.2-4.8Z"/><path fill="#156477" d="M367.9 149.3c.9-1.6-1.7-2.9-2.8-1.5-1.7 2.1-3.3 4.4-5.2 6.4l-1 1.1c-.6 0-1.2.2-1.6.6l-1.7 1.8-1.9 1.3a71.1 71.1 0 0 1-14.8 7.3c-5.6 1-11.3.4-16.8-1-6-1.5-11.9-3.6-17.4-6.2a39 39 0 0 1-10.8-7.2 18 18 0 0 1-2.4-4.8c-.1-.5-.4-.8-.8-1-.4-.3-.9-.5-1.4-.4l-.1-.1.3-.6c.5-1.4-.8-2.5-2.2-2.1-.8.2-1.4 1-2 1.6a31.2 31.2 0 0 0-6.8 12.2c-.3.7 0 1.6.6 2 0 .6 0 1 .2 1.6.5 1.6 2.7 1.3 3.3 0 1-2.2 1.9-4.4 3.2-6.4l1-1.4a72 72 0 0 0 29.2 18 45.3 45.3 0 0 0 31-2c3.1-1.6 6.3-3.5 9-6a49.3 49.3 0 0 0 11.9-13.2Z"/><path fill="#2d8ca4" d="M288.7 142.8c-6.7 3.8-10.7 11.7-8.2 16.8a58.4 58.4 0 0 1-3.8-68.8 52 52 0 0 1 62-19.3c23.3 8.5 42.4 32.3 39.4 56.8a51.4 51.4 0 0 1-34.3 38c-18 5.2-46.8-6.3-55-23.5Z"/><path fill="#ebf5f8" d="M350.8 160.4c-12 5.2-25.2 2.8-37.4.2-3.7-.8-7.9-1.5-10.5-4.5-1-1.1-3 .3-2 1.5 2.4 2.7 5.7 4 9.2 5l10.7 2.4a64.2 64.2 0 0 0 20.5 1.4c3.7-.5 7.3-1.4 10.7-3 1.9-.9.7-3.9-1.2-3Zm-70.9-8.8a94.9 94.9 0 0 1-6.8-13.3c-1.7-4.1-3.8-8.4-3.6-13 .1-1.8-2.7-2.1-2.8-.3-.3 5 1.7 9.6 3.4 14.1 2 5 4 10.1 7 14.6 1.2 2 4-.2 2.8-2.1Z"/><path fill="#156477" d="M277 113a40.8 40.8 0 0 1 10.9-21c.7-.7 1-1.7.3-2.5-.5-.7-1.8-1-2.5-.4a35.5 35.5 0 0 0-11.5 23.5c0 1.7 2.4 2 2.7.3Zm-1.6 10.4v-.5l.1-.6.1-.8.2-.6a1 1 0 0 0 0-1.1c-.1-.4-.4-.7-.8-.9h-1.1a2 2 0 0 0-.9.9 5.3 5.3 0 0 0-.4 2.5l.2.7.5 1c.3.3.8.5 1.2.4l.6-.4c.2-.1.3-.4.3-.6Zm90.4 18.9c.7-1.5-1.7-2.5-2.4-1-.9 2-2.1 3.6-3.7 5a19.2 19.2 0 0 1-5.5 3c-1.3.4-.7 2.4.6 2.2 5-.7 9.1-4.7 11-9.2Z"/><path fill="#0a5061" d="m279 160.7-.1-.1a59.6 59.6 0 0 1-3.9-70.4 53.5 53.5 0 0 1 63.6-19.9 65.6 65.6 0 0 1 30 23 49.6 49.6 0 0 1 10.1 35.3 52.8 52.8 0 0 1-35.2 39c-18.7 5.5-46.8-6.2-56-22.8-5.5 3.6-8.5 10.2-6.5 14.3.3.6.1 1.3-.4 1.7-.5.3-1.1.3-1.5 0Zm74.5-79.1a62 62 0 0 0-15.8-8.8A51 51 0 0 0 277 91.6a57.2 57.2 0 0 0 .8 63.5c.5-5 4.1-10.3 9.5-13.3a1.3 1.3 0 0 1 1.8.6c7.8 16 35.8 28 53.6 22.7a50 50 0 0 0 33.4-36.8c2.2-18.4-8.4-35.8-22.7-46.7Z"/><path fill="#fff" d="M129.7 134.8 144 87.9h13.6l14.3 46.9h-11.3l-2.4-8.5h-14.9l-2.3 8.5h-11.3Zm16.1-18.3h9.9l-5-19.2-4.9 19.2ZM71 109.6c-2.7 0-5-.3-7.2-1a12 12 0 0 1-5.4-3.4 17.4 17.4 0 0 1-3.4-7.3 54 54 0 0 1-1-12.2c0-4.9.4-8.9 1.2-12a18 18 0 0 1 3.5-7.1A12 12 0 0 1 64 63c2.1-.7 4.5-1 7-1a50 50 0 0 1 15.1 2.3v8.5a43.4 43.4 0 0 0-7.4-.9l-5.3-.2c-1.5 0-2.9.2-4 .5-1.1.4-2 1-2.7 2a12 12 0 0 0-1.4 4.3 48 48 0 0 0-.1 14.3 11 11 0 0 0 1.3 4.2c.7 1 1.5 1.8 2.6 2.2 1.2.4 2.6.6 4.4.6a127.3 127.3 0 0 0 12.6-.6v8.5c-1 .4-2.4.7-3.8 1a59.9 59.9 0 0 1-11.3 1Zm251.9 26.1c-1 0-2.2 0-3.6-.3-1.4-.2-2.7-.7-4-1.3a8.6 8.6 0 0 1-3.1-3.2 12 12 0 0 1-1.3-6V99.7c0-2.2.4-4 1-5.5a9.3 9.3 0 0 1 6.4-5.1c1.3-.4 2.6-.6 3.9-.6a175.8 175.8 0 0 1 20.4.9v9.2h-17.1a4 4 0 0 0-2.7.8c-.6.5-1 1.3-1 2.5v5.1l17.7.7v8.6l-17.6.5v5c0 .9.1 1.6.4 2.2.3.5.7.9 1.2 1.1.5.3 1 .4 1.6.4h17.5v9.1a159.9 159.9 0 0 1-19.7 1.1Z"/><path fill="#156477" d="M184.6 112.4c1 1.7 3.5.2 3-1.5-1-2.7-2-5.3-2.8-8l-.4-1.6c.4-.5.5-1 .3-1.7l-.6-2.4v-2.4a73.1 73.1 0 0 1 1.7-16.8c2.1-5.4 5.8-10 10-14 4.6-4.4 9.7-8.4 15-11.8a40 40 0 0 1 12-5.3c2-.1 3.8 0 5.6.5.5.2 1 0 1.3-.2.5-.1 1-.5 1.1-1h.2l.3.6c1 1.2 2.7.7 3-.7.3-.8 0-1.8-.3-2.6a31.4 31.4 0 0 0-6.7-12.6c-.6-.7-1.4-1-2.2-.7l-1.5-.6c-1.6-.5-2.6 1.6-1.8 2.8a29.6 29.6 0 0 1 4.4 8A72.6 72.6 0 0 0 194.9 56a45.6 45.6 0 0 0-15.3 28 37 37 0 0 0 .2 11 50.5 50.5 0 0 0 5 17.5Z"/><path fill="#2d8ca4" d="M233.6 47.3c.4-7.8-4.2-15.7-10-16.3a59.9 59.9 0 0 1 61.7 34.4c10 23.3 2.9 49-17.2 64.4-20 15.4-51.2 19-70.8 3-9.8-8-20-30-14.1-50.5 5.3-18.6 31-37.2 50.4-35Z"/><path fill="#ebf5f8" d="M184.5 91.5c2-13.2 11.3-23.3 20.2-32.5 2.7-2.8 5.6-6 9.6-6.7 1.6-.2 1.4-2.7-.2-2.4-3.6.5-6.6 2.7-9.2 5.1-2.8 2.6-5.4 5.3-8 8-4.9 5-9.4 10.6-12.5 17a36 36 0 0 0-3.2 11c-.3 2 3 2.7 3.3.5ZM231 34.8c5 0 10 .7 15.1 1.5 4.5.7 9.4 1.2 13.2 4 1.5 1 3.4-1.2 1.8-2.3-4-3-9.2-3.8-14-4.8-5.5-1-11-2.1-16.5-2-2.4 0-2 3.6.3 3.6Z"/><path fill="#156477" d="M266 53.5a41.9 41.9 0 0 1 12.2 20.9c.2 1 1 1.8 2 1.7.9-.1 1.9-1 1.7-2a36.4 36.4 0 0 0-14.1-22.8c-1.5-1-3 1-1.8 2.2Zm-8.2-7.1.4.4.4.3.7.6.4.5c.2.3.6.5 1 .6.4 0 .9 0 1.2-.3.3-.2.5-.6.6-1 0-.4 0-.8-.3-1.2a5.5 5.5 0 0 0-2-1.7l-.7-.2c-.3-.1-.7-.2-1-.1-.5 0-1 .4-1 .8l-.1.7c0 .2.2.4.4.6Zm-65.9 68.1c1 1.4 3.1-.2 2.2-1.6-1.2-1.8-2-3.8-2.3-5.9-.3-2.2 0-4.3.4-6.4.3-1.4-1.7-2-2.3-.7-2 4.6-.9 10.5 2 14.6Z"/><path fill="#0a5061" d="M223.4 29.1h.3a61.2 61.2 0 0 1 63.1 35.2 54.9 54.9 0 0 1-17.6 66 67.3 67.3 0 0 1-36.3 13.5 51.5 51.5 0 0 1-36.2-10.6 54.2 54.2 0 0 1-14.5-52c5.4-19.1 31-37.2 50.4-36-.2-6.7-4.2-13-8.9-13.5a1.3 1.3 0 0 1-.3-2.6Zm27.9 108c6-2.3 11.5-5.3 16.3-9a52.2 52.2 0 0 0 16.8-62.8 58.6 58.6 0 0 0-55.4-34c3.9 3 6.6 9.1 6.2 15.5a1.3 1.3 0 0 1-1.4 1.2c-18.2-2-43.9 15.7-49 34a51.2 51.2 0 0 0 13.6 49.1c14.7 12 35.6 12.4 52.9 6Z"/><path fill="#fff" d="M221 116.1V69.3h19.7c2 0 3.8.2 5.4.7a10.8 10.8 0 0 1 7.3 7.1c.7 2 1 4.5 1 7.6a15 15 0 0 1-2 8.9c-.6 1-1.4 1.8-2.2 2.4-.8.7-1.7 1.2-2.5 1.7L256 116h-11.2l-7-16.7h-6V116H221Zm11-25.4h6.8c.7 0 1.4 0 2-.2.6-.2 1-.6 1.5-1a5 5 0 0 0 1-2c.2-.7.3-1.6.3-2.8 0-1.1-.1-2-.4-2.8a3.5 3.5 0 0 0-2.4-2.5 6 6 0 0 0-2-.4h-6.9v11.7Z"/><path fill="#2b8449" d="M22.7 30.4V17.8h-4.1V15h11.3v2.8h-4.2v12.6h-3Zm8.7 0V14.6h3v5.8a4.9 4.9 0 0 1 3.5-1.3 4 4 0 0 1 2 .4c.4.4.8.8 1 1.4.2.6.3 1.3.3 2v7.5h-3v-7c0-.4 0-.7-.2-1l-.5-.4c-.3-.2-.5-.2-.9-.2l-.8.1a3.9 3.9 0 0 0-1.4.7v7.8h-3Zm16.7.1c-1.2 0-2.2-.2-2.9-.5a3 3 0 0 1-1.6-1.8c-.3-.8-.4-2-.4-3.4 0-1.5.1-2.7.4-3.5a3 3 0 0 1 1.5-1.8c.7-.3 1.7-.4 2.9-.4 1 0 2 0 2.6.3.7.2 1.1.6 1.4 1.1.3.6.5 1.4.5 2.4 0 .7-.2 1.3-.5 1.8-.3.4-.7.7-1.2.9-.5.2-1.2.3-1.9.3h-2.7c0 .5 0 1 .2 1.3.2.4.4.6.8.8l1.7.2h3.2V30a52.4 52.4 0 0 1-4 .5Zm-2-6.5h2.5c.4 0 .7 0 1-.2l.2-.9c0-.4 0-.7-.2-1a1 1 0 0 0-.6-.5l-1-.1c-.5 0-.8 0-1.1.2-.3.2-.5.4-.6.8l-.2 1.7ZM65 30.5a8 8 0 0 1-2.4-.3 3 3 0 0 1-1.7-1.2c-.5-.5-.9-1.3-1.1-2.3a19 19 0 0 1-.3-4c0-1.7 0-3 .3-4s.6-1.8 1.1-2.3c.5-.6 1-1 1.8-1.2.6-.2 1.4-.3 2.3-.3a13.5 13.5 0 0 1 3.5.4l1.2.3V18a11.6 11.6 0 0 0-2.4-.3h-1.7l-1.5.1c-.4.2-.7.4-1 .8l-.5 1.5-.1 2.6.1 2.5c.1.7.3 1.2.5 1.5.3.4.6.7 1 .8l1.5.2a40.4 40.4 0 0 0 4-.2V30a10.4 10.4 0 0 1-2.8.5H65Zm9.7 0a3 3 0 0 1-2.3-.9c-.5-.6-.8-1.4-.8-2.5v-7.9h3v7c0 .6.2 1 .4 1.2.3.3.7.4 1.2.4l1.2-.2a4 4 0 0 0 1-.6v-7.8h3v11.2H79l-.5-1.2-1.7.9c-.7.3-1.3.4-2 .4Zm13 0a15.8 15.8 0 0 1-2.2-.1 19.8 19.8 0 0 1-2-.4v-1.8h5.6l.4-.4.1-.5v-.4c0-.3 0-.5-.3-.6-.1-.2-.5-.3-1-.3h-1.7c-.6 0-1.1 0-1.6-.3-.6-.1-1-.5-1.3-1-.2-.3-.4-1-.4-1.7v-.6c0-.7.2-1.3.4-1.8.3-.5.8-.9 1.4-1.1.6-.3 1.5-.4 2.6-.4a13 13 0 0 1 2.9.3l1.1.2v1.8h-4.6l-.9.2c-.2.2-.3.4-.3.8v.3c0 .2 0 .4.2.6l.4.2H89c1.1 0 2 .3 2.4.9.5.5.8 1.2.8 2v1c0 .8-.2 1.4-.5 1.9-.4.4-.9.7-1.5 1l-2.5.2Zm10.5-.1c-.8 0-1.5-.2-2-.4-.6-.3-1-.7-1.2-1.3a6 6 0 0 1-.3-2.3l.1-4.7h-1.7v-2l1.8-.5.4-3h2.4v3h2.6v2.5h-2.6v4.7l.1.7.2.5.4.2.4.1 1.4.2v2.3h-2Zm8.5.1c-1 0-1.7-.1-2.3-.3a3 3 0 0 1-1.6-1 4 4 0 0 1-.9-1.7c-.2-.8-.2-1.7-.2-2.7 0-1.2 0-2.1.2-2.8.2-.8.5-1.4.9-1.8.4-.4 1-.7 1.6-.9.6-.2 1.4-.2 2.3-.2.9 0 1.7 0 2.3.2.6.2 1.2.5 1.5 1 .5.3.8 1 1 1.7l.2 2.8c0 1 0 2-.3 2.7-.1.8-.4 1.3-.8 1.8-.4.4-1 .7-1.6.9-.6.2-1.4.3-2.3.3Zm0-2.5.9-.1c.3 0 .5-.2.6-.4.2-.2.3-.6.4-1V23c-.1-.4-.2-.8-.4-1a1 1 0 0 0-.6-.4l-1-.1-.8.1c-.3 0-.5.2-.7.4l-.3 1a11.7 11.7 0 0 0 0 3.5c0 .4.2.8.3 1l.7.4.9.1Zm7 2.4V19.2h2.5l.5 1.2 1.6-1a5 5 0 0 1 2-.4c.8 0 1.3.2 1.8.5s.8.6 1 1.1a8.7 8.7 0 0 1 2.5-1.3 4 4 0 0 1 3.4.2c.6.4 1 .9 1.1 1.5.2.6.3 1.3.3 2.1v7.3h-3v-7c0-.4 0-.7-.2-.9l-.5-.5c-.3-.2-.5-.2-.9-.2s-.8 0-1.2.3c-.4.1-.8.3-1.1.6a4.6 4.6 0 0 1 0 .8v6.9h-3v-7l-.1-.9c-.2-.2-.3-.4-.6-.5-.2-.2-.5-.2-.8-.2a3.4 3.4 0 0 0-1.6.4l-.7.4v7.8h-3Zm23.6.1c-1.2 0-2.2-.2-2.9-.5a3 3 0 0 1-1.6-1.8c-.3-.8-.4-2-.4-3.4 0-1.5.1-2.7.4-3.5a3 3 0 0 1 1.5-1.8c.7-.3 1.7-.4 2.9-.4 1 0 2 0 2.6.3.7.2 1.1.6 1.4 1.1.3.6.5 1.4.5 2.4 0 .7-.2 1.3-.5 1.8-.3.4-.7.7-1.2.9-.5.2-1.2.3-1.9.3h-2.7c0 .5 0 1 .2 1.3.2.4.4.6.8.8l1.7.2h3.2V30a52.7 52.7 0 0 1-4 .5Zm-2-6.5h2.5c.4 0 .7 0 .9-.2.2-.2.3-.5.3-.9s0-.7-.2-1a1 1 0 0 0-.6-.5l-1-.1c-.5 0-.8 0-1.1.2-.3.2-.5.4-.6.8l-.2 1.7Zm8.3 6.4V19.2h2.4l.7 1.7c.3-.5.8-1 1.3-1.3a3 3 0 0 1 1.8-.5 4.8 4.8 0 0 1 .9 0v3.2a8.8 8.8 0 0 0-2.4 0 3 3 0 0 0-.9.5l-.7.6v7h-3Zm64 138v-13h-4.3v-2.8H215v2.9h-4.3v13h-3.2Zm12.8.1c-1.2 0-2.2-.1-3-.4-.7-.4-1.3-1-1.6-1.8-.4-.9-.5-2-.5-3.6 0-1.5.1-2.7.4-3.6a3 3 0 0 1 1.6-1.8 10.9 10.9 0 0 1 5.8-.2c.7.3 1.1.7 1.4 1.2.4.6.5 1.4.5 2.5 0 .7-.1 1.3-.5 1.8a3 3 0 0 1-1.2 1l-2 .2h-2.9c0 .6.1 1 .3 1.4.1.4.4.6.8.8l1.8.2h3.3v1.9a56 56 0 0 1-4.2.4Zm-2-6.6h2.6c.4 0 .7 0 1-.2l.2-1c0-.3 0-.7-.2-1a1 1 0 0 0-.6-.4c-.2-.2-.6-.2-1-.2-.5 0-1 0-1.2.2-.3.2-.5.5-.6.9-.2.4-.2 1-.2 1.7Zm11.1 6.7a3 3 0 0 1-2-.8c-.6-.5-1-1.2-1-2.1v-1c0-1 .4-1.6 1-2.2.6-.6 1.6-.8 2.9-.8h2.9v-.8c0-.4 0-.7-.2-1-.1-.2-.4-.3-.7-.4l-1.6-.2h-3.4v-1.8a16 16 0 0 1 4.6-.7c1 0 1.7.1 2.4.4.7.2 1.2.6 1.5 1.1.4.6.6 1.4.6 2.3v7.8H234l-.6-1.2c0 .1-.2.3-.5.4a8.7 8.7 0 0 1-2 .8l-1.4.2Zm1.6-2.2h.5a111 111 0 0 0 1.7-.6v-2.7l-2 .2a2 2 0 0 0-1.2.4c-.2.2-.3.6-.3 1v.5l.1.7.5.4h.7Zm7.7 2V157h2.6l.6 1.1 1.6-1c.6-.2 1.3-.3 2.2-.3.7 0 1.3.1 1.8.4.5.3.8.7 1 1.2a9.2 9.2 0 0 1 2.6-1.4l1.5-.2c1 0 1.6.2 2.2.5.5.4.9.8 1.1 1.5.2.6.3 1.4.3 2.2v7.4h-3.1v-7.1l-.2-1-.6-.5-.9-.2-1.3.3-1.1.6a4.2 4.2 0 0 1 0 .9v7H246v-7.1c0-.4 0-.7-.2-1a1 1 0 0 0-.6-.5l-.8-.2a3.6 3.6 0 0 0-1.7.4l-.7.5v8h-3.2Z"/></svg>