<svg width="24" height="24" viewBox="0 0 24 24" fill="none" xmlns="http://www.w3.org/2000/svg"><path fill-rule="evenodd" clip-rule="evenodd" d="M21.9999 3.19958H4.59989C4.04761 3.19958 3.59989 3.6473 3.59989 4.19958C3.59989 4.75187 4.04761 5.19958 4.59989 5.19958H6.59989H20.9999C21.5522 5.19958 21.9999 5.6473 21.9999 6.19959L21.9999 14.1996L21.9999 16.1996C21.9999 16.7519 22.4476 17.1996 22.9999 17.1996C23.5522 17.1996 23.9999 16.7519 23.9999 16.1996L23.9999 16.1925V5.19958C23.9999 4.09502 23.1045 3.19958 21.9999 3.19958ZM18.4 9.79985C18.4 9.24756 17.9523 8.79985 17.4 8.79985H3C2.44771 8.79985 2 9.24756 2 9.79985L2 17.7998C2 18.3521 2.44771 18.7998 3 18.7998H17.4C17.9523 18.7998 18.4 18.3521 18.4 17.7998L18.4 9.79985ZM2 6.79985C0.89543 6.79985 0 7.69528 0 8.79985V18.7998C0 19.9044 0.895428 20.7998 2 20.7998H18.4C19.5046 20.7998 20.4 19.9044 20.4 18.7998V8.79985C20.4 7.69528 19.5046 6.79985 18.4 6.79985H2ZM11.3486 12.708L10.1779 13.8792C9.89509 14.1613 9.66547 14.2145 9.48903 14.0387C9.30297 13.8527 9.34949 13.6184 9.62856 13.3359L10.3546 12.6103C10.6126 12.343 10.6077 12.0698 10.3398 11.7907C10.0675 11.5191 9.79369 11.5211 9.51833 11.7968L8.79458 12.5173C7.96758 13.3443 7.92107 14.1187 8.65504 14.8406C9.39739 15.5873 10.183 15.5423 11.0119 14.7057L12.1826 13.5354C12.458 13.2669 12.6867 13.2236 12.8687 13.4057C13.0529 13.5967 13.0079 13.8292 12.7338 14.1034L10.764 16.0699L10.5909 16.2392C10.3146 16.5162 10.0382 16.5162 9.76159 16.2392L7.63362 14.1127C7.34802 13.8271 7.33826 13.5533 7.60431 13.2912L9.33879 11.5582L9.34212 11.5542C9.3439 11.552 9.34558 11.55 9.34762 11.5479L9.53368 11.3619C9.81896 11.0769 10.0923 11.0668 10.3537 11.3316L10.977 11.9554C11.2561 12.2242 11.5286 12.2279 11.7947 11.9665C12.0651 11.6943 12.0578 11.4186 11.7728 11.1395L11.1709 10.5349C10.3588 9.72275 9.54298 9.72601 8.73179 10.5535L8.59225 10.693C8.57647 10.7064 8.56183 10.7202 8.54613 10.735C8.53997 10.7408 8.53364 10.7467 8.52702 10.7529C8.52417 10.7555 8.52126 10.7582 8.5183 10.7609L6.80708 12.4731C5.99403 13.2861 5.99759 14.1027 6.81777 14.9229L8.9304 17.0346C9.76113 17.866 10.5829 17.875 11.3956 17.0616L11.4519 17.0062C11.4645 16.9952 11.3661 17.0945 11.3039 17.1573C11.2722 17.1893 11.2499 17.2118 11.2565 17.2053L13.5538 14.9132C14.3697 14.0942 14.4129 13.316 13.6836 12.5787C12.9632 11.8543 12.1849 11.8974 11.3486 12.708Z" fill="#555"/></svg>
