<svg width="24" height="24" fill="none" xmlns="http://www.w3.org/2000/svg"><path fill-rule="evenodd" clip-rule="evenodd" d="M6.414 17.586A2 2 0 0 1 7.828 17H21a2 2 0 0 0 2-2V3a2 2 0 0 0-2-2H3a2 2 0 0 0-2 2v19.034a.4.4 0 0 0 .683.283l4.731-4.731ZM3 17.689a.2.2 0 0 0 .341.141l2.245-2.244A2 2 0 0 1 7 15h13a1 1 0 0 0 1-1V4a1 1 0 0 0-1-1H4a1 1 0 0 0-1 1v13.689Z" fill="#333"/><path d="M8.042 13.167c0-.23.186-.417.416-.417h7.084a.417.417 0 1 1 0 .833H8.458a.417.417 0 0 1-.416-.416Z" fill="#333"/><mask id="a" style="mask-type:alpha" maskUnits="userSpaceOnUse" x="8" y="4" width="8" height="9"><path d="M8.042 4.417h7.762v7.762H8.042V4.417Z" fill="#C4C4C4"/></mask><g mask="url(#a)"><path fill-rule="evenodd" clip-rule="evenodd" d="M14.673 7.021a.417.417 0 0 0 0-.589l-.884-.884a.417.417 0 0 0-.589 0L9 9.748a.417.417 0 0 0-.123.295v1.134c0 .092.075.167.167.167h1.134c.11 0 .216-.044.295-.122l4.2-4.2Zm-3.733 4.912a.833.833 0 0 1-.59.244H8.295a.25.25 0 0 1-.25-.25V9.871c0-.221.088-.433.244-.59l4.617-4.617a.833.833 0 0 1 1.179 0l1.473 1.473a.833.833 0 0 1 0 1.179l-4.617 4.617Z" fill="#333"/></g><path d="M9.167 11V9.624L13.25 5.54l1.376 1.377L10.543 11H9.167Z" fill="#333" stroke="#333"/></svg>
