<svg width="24" height="24" viewBox="0 0 24 24" fill="none" xmlns="http://www.w3.org/2000/svg"><path d="M9.05925 19.3569C7.22432 20.8519 5.09925 21.8882 3.20674 21.928C2.96449 21.9332 2.30503 21.9425 2.12344 21.7733C1.96675 21.6274 1.95806 21.3819 2.10406 21.2252L19.6406 2.2762C19.7172 2.18575 19.8341 2.1314 19.9615 2.13946C19.9851 2.16581 20.7609 2.21539 21.1862 2.63116C21.4725 2.91116 21.6444 3.28957 21.7269 3.75495C21.7557 3.87701 21.7249 4.01074 21.633 4.1093L21.6326 4.109C19.7524 6.12433 16.6026 9.63634 14.7079 11.6381C14.603 11.7727 14.4176 11.8265 14.2525 11.7578L14.253 11.7567C13.8381 11.5843 13.6798 11.6381 13.6303 11.7571C13.5523 11.9447 13.5683 12.2555 13.5784 12.4531C13.5861 12.6014 13.5921 12.7195 13.5529 12.8236C13.0401 15.1114 11.2445 17.5764 9.05928 19.3569L9.05925 19.3569Z" fill="#000"/><path d="M2.11448 5.94897C2.08765 5.91862 2.06645 5.88524 2.05078 5.85011L2.56162 5.33929C2.61069 5.3611 2.65596 5.39351 2.69386 5.43635L5.4447 8.55231C5.48596 8.59909 5.53793 8.65371 5.6 8.71582C6.4532 9.59245 7.62577 9.17602 8.40184 8.35961L8.40603 8.35523L8.41041 8.35104C9.22682 7.57496 9.64325 6.4024 8.76661 5.54921C8.70451 5.48713 8.64988 5.43516 8.60311 5.3939L5.48714 2.64307C5.44431 2.60516 5.41189 2.55989 5.39007 2.51083L5.90091 2C5.93603 2.01565 5.96942 2.03686 5.99977 2.06369L9.11576 4.81452C9.19732 4.88653 9.26377 4.9483 9.31565 5.00017C9.98441 5.66895 10.2289 6.36863 10.1847 7.04605C10.1413 7.70939 10.4382 9.55978 10.8586 10.4611C10.799 10.5286 10.7443 10.588 10.6944 10.6397L10.6924 10.6416L10.6905 10.6436C10.6388 10.6935 10.5794 10.7482 10.5119 10.8078C9.61059 10.3874 7.76019 10.0905 7.09685 10.1338C6.41942 10.1781 5.71975 9.93361 5.05098 9.26485C4.9991 9.21297 4.93733 9.14652 4.86532 9.06496L2.11449 5.94896L2.11448 5.94897Z" fill="#000"/><path d="M10.0914 9.51383C9.93984 9.36223 9.69402 9.37487 9.54242 9.52647C9.39081 9.67808 9.39081 9.92391 9.54242 10.0755L10.8014 11.3345L11.3353 10.7622L10.0914 9.51383V9.51383ZM13.5116 14.0814C14.406 15.185 13.6148 15.4293 15.2248 17.0496L19.7586 21.6213L19.7586 21.6213C20.0111 21.8738 20.3435 22 20.6757 22C21.0078 22 21.3403 21.8738 21.5927 21.6213L21.5927 21.6213L21.5928 21.6212C21.8453 21.3688 21.9715 21.0363 21.9715 20.7042C21.9715 20.372 21.8579 20.0396 21.6054 19.7871L17.0148 15.1964C15.1919 13.3735 15.2305 14.5484 13.8247 13.2513C13.7321 13.5292 13.6274 13.8062 13.5116 14.0814L13.5116 14.0814Z" fill="#000"/><path d="M3.12402 4.77706L7.71009 9.36313C7.8617 9.51473 8.10752 9.51473 8.25912 9.36313C8.41073 9.21152 8.41073 8.9657 8.25912 8.8141L3.67306 4.22803L3.12402 4.77706Z" fill="#000"/><path d="M4.33887 3.56272L8.92494 8.14879C9.07654 8.30038 9.32238 8.30038 9.47398 8.14879C9.62558 7.99718 9.62558 7.75135 9.47398 7.59974L4.88792 3.01367L4.33888 3.5627L4.33887 3.56272Z" fill="#000"/></svg>

