<svg width="24" height="24" viewBox="0 0 24 24" fill="none" xmlns="http://www.w3.org/2000/svg"><path fill-rule="evenodd" clip-rule="evenodd" d="M21 12C21 16.9706 16.9706 21 12 21C7.02944 21 3 16.9706 3 12C3 7.02944 7.02944 3 12 3C16.9706 3 21 7.02944 21 12ZM23 12C23 18.0751 18.0751 23 12 23C5.92487 23 1 18.0751 1 12C1 5.92487 5.92487 1 12 1C18.0751 1 23 5.92487 23 12ZM15.5831 6.16934L13.9685 12.8169C13.9233 13.003 13.8256 13.1723 13.687 13.3045L8.73736 18.0265C8.59288 18.1644 8.35783 18.0286 8.40496 17.8346L10.0195 11.187C10.0647 11.0009 10.1624 10.8317 10.301 10.6995L15.2507 5.97742C15.3952 5.83959 15.6302 5.9753 15.5831 6.16934Z" fill="#333"/></svg>
