<svg width="24" height="24" viewBox="0 0 24 24" fill="none" xmlns="http://www.w3.org/2000/svg"><path fill-rule="evenodd" clip-rule="evenodd" d="M14.4672 15.1554C14.3563 15.0879 14.0942 14.9867 13.5609 14.9867L10.5278 14.9867L7.91571 12.3734L5.20234 12.3734C4.6429 12.3734 4.1991 11.9317 4.21109 11.3868C4.22307 10.8418 4.68631 10.4001 5.24575 10.4001L7.95911 10.4001C8.49819 10.4001 9.01043 10.6094 9.38246 10.9816L11.4133 13.0134L13.6043 13.0134C14.3771 13.0134 15.0435 13.157 15.5671 13.4756C16.1119 13.807 16.4368 14.2899 16.5587 14.8194C16.6752 15.3258 16.5969 15.8263 16.4381 16.2372C16.2812 16.6434 16.0167 17.0374 15.6632 17.3199C15.3657 17.5575 14.9726 17.6624 14.7291 17.7189C14.4314 17.7879 14.0822 17.8403 13.7178 17.8816C12.9854 17.9645 12.0999 18.012 11.2505 18.0363C10.3973 18.0608 9.56033 18.0625 8.91729 18.0507C8.59668 18.0449 8.31704 18.0355 8.10424 18.0234C7.99924 18.0174 7.89971 18.0102 7.81521 18.0009C7.7738 17.9964 7.72379 17.9901 7.67273 17.981C7.67186 17.9809 7.67083 17.9807 7.66966 17.9805C7.64041 17.9753 7.5186 17.9539 7.38935 17.8947C6.88711 17.665 6.67997 17.0782 6.9267 16.5841C7.14359 16.1498 7.63902 15.9316 8.09686 16.0413C8.13202 16.0447 8.18744 16.049 8.26584 16.0535C8.44182 16.0635 8.69229 16.0722 8.99867 16.0778C9.60958 16.089 10.414 16.0874 11.2342 16.0639C12.058 16.0403 12.8777 15.995 13.5266 15.9215C13.8529 15.8846 14.1134 15.843 14.3 15.7998C14.3646 15.7848 14.4094 15.772 14.4383 15.763C14.4698 15.7243 14.5107 15.662 14.5434 15.5772C14.5922 15.4511 14.5944 15.3487 14.5809 15.29C14.5727 15.2544 14.557 15.2101 14.4672 15.1554Z" fill="#156477"/><path fill-rule="evenodd" clip-rule="evenodd" d="M23.6043 13.767C23.8926 14.2286 23.8936 14.7309 23.8903 14.9944C23.8792 15.8807 23.2952 16.595 22.9123 16.9873C22.4895 17.4206 22.0579 17.7147 21.9709 17.7726C21.9556 17.7828 21.9428 17.791 21.9358 17.7955L15.4544 21.938C13.9009 22.9309 11.9346 23.0367 10.318 22.2143L4.73989 19.3767C4.24833 19.1267 4.0666 18.5315 4.33397 18.0474C4.60134 17.5632 5.21658 17.3735 5.70813 17.6235L11.2862 20.4611C12.2562 20.9545 13.436 20.891 14.3681 20.2953L20.8495 16.1528C20.8512 16.1517 20.8523 16.151 20.8529 16.1506C20.8928 16.1239 21.1842 15.9244 21.4577 15.6442C21.5952 15.5033 21.7063 15.3639 21.7793 15.2375C21.8533 15.1093 21.8638 15.037 21.8641 15.0126C21.865 14.9365 21.8627 14.8843 21.86 14.85C21.828 14.8397 21.7809 14.8274 21.7141 14.8158C21.418 14.764 20.8833 14.754 19.963 14.8788C19.0562 15.0018 17.8351 15.2468 16.1957 15.6618C15.6514 15.7996 15.1049 15.4839 14.975 14.9567C14.8451 14.4296 15.1811 13.8905 15.7254 13.7527C17.4061 13.3272 18.7112 13.0621 19.7258 12.9245C20.7269 12.7887 21.5087 12.7676 22.1133 12.8733C22.7412 12.983 23.2824 13.2516 23.6043 13.767ZM21.9194 14.8754C21.9191 14.8756 21.9161 14.874 21.9111 14.8702C21.9172 14.8734 21.9197 14.8753 21.9194 14.8754Z" fill="#156477"/><path fill-rule="evenodd" clip-rule="evenodd" d="M6 10C6 8.89543 5.10457 8 4 8H2C0.895431 8 0 8.89543 0 10V20C0 21.1046 0.895431 22 2 22H4C5.10457 22 6 21.1046 6 20V10ZM2 10.8667C2 10.3144 2.44772 9.86667 3 9.86667C3.55228 9.86667 4 10.3144 4 10.8667V19.1333C4 19.6856 3.55228 20.1333 3 20.1333C2.44772 20.1333 2 19.6856 2 19.1333V10.8667Z" fill="#156477"/><path d="M15.112 11.1426C15.0484 11.2001 14.9515 11.1999 14.8881 11.1422L14.3353 10.6389C11.9748 8.4985 10.4165 7.08683 10.4165 5.35433C10.4165 3.94266 11.5257 2.8335 12.9373 2.8335C13.7011 2.8335 14.4354 3.174 14.935 3.71811C14.9697 3.75592 15.03 3.75592 15.0647 3.71811C15.5642 3.174 16.2986 2.8335 17.0623 2.8335C18.474 2.8335 19.5832 3.94266 19.5832 5.35433C19.5832 7.08683 18.0248 8.4985 15.6644 10.6435L15.112 11.1426Z" fill="#156477"/></svg>
