<svg width="2100" height="2100" xmlns="http://www.w3.org/2000/svg"><path d="M846.881 552.833c-77.783 88.392-118.126 190.472-133.396 305.92h698.91c0-17.09.921-34.441-.159-51.668-4.727-75.382-20.934-147.734-62.102-212.3-55.159-86.508-137.962-129.565-236.5-145.444-142.987-23.042-280.95 1.364-415.005 50.204-196.118 71.45-360.799 188.21-491.844 351.21-22.027 27.397-41.625 56.747-65.785 89.917 2.001-16.486 3.154-28.381 4.92-40.185 28.243-188.79 96.224-361.006 218.592-508.882C508.32 217.818 693.656 114.863 915.953 78.99c216.535-34.943 421.35.185 611.463 110.294 174.99 101.349 295.604 249.873 367.605 438.088 41.527 108.55 61.81 221.373 62.865 337.619.664 73.218 1.338 146.436 1.99 219.654.065 7.313.01 14.627.01 24.767H721.005c.473 101.61 30.05 189.153 98.273 261.877 79.261 84.49 180.985 125.532 292.432 141.777 233.942 34.102 454.291-8.618 659.833-126.035 5.263-3.006 10.507-6.05 15.795-9.01.522-.292 1.297-.131 4.438-.366.433 7.082 1.241 14.169 1.244 21.257.053 124.802-.24 249.604.323 374.404.065 14.314-4.564 21.75-17.215 28.056-147.384 73.454-303.375 115.397-467.295 128.103-104.429 8.094-208.55 8.153-311.954-12.811-311.1-63.07-559.242-290.857-616.179-611.266-64.972-365.63 109.047-703.215 458.651-852.51 1.088-.463 2.547-.056 7.53-.056" fill="#fff" fill-rule="evenodd"/></svg>
