<svg width="24" height="24" fill="none" xmlns="http://www.w3.org/2000/svg"><path d="M12 19.313A7.311 7.311 0 0 0 19.313 12 7.311 7.311 0 0 0 12 4.687a7.311 7.311 0 0 0-7.29 7.886l-1.648.485A9 9 0 0 1 12 3a9 9 0 0 1 9 9 9 9 0 0 1-10.058 8.937l.485-1.646c.19.014.38.021.573.021Zm.418-3.397A3.94 3.94 0 0 0 15.938 12 3.935 3.935 0 0 0 12 8.062a3.94 3.94 0 0 0-3.916 3.52l-1.708.502L6.375 12A5.623 5.623 0 0 1 12 6.375 5.623 5.623 0 0 1 17.625 12 5.623 5.623 0 0 1 12 17.625c-.028 0-.056-.032-.084-.032l.502-1.677Zm-8.047-2.07 7.204-2.117a.553.553 0 0 1 .696.696l-2.117 7.172c-.144.52-.815.58-1.044.123l-1.005-2.014c-.025-.078-.057-.091-.092-.13l-3.092 3.093a1.125 1.125 0 0 1-1.591-1.588l3.093-3.094a.625.625 0 0 0-.13-.092L4.28 14.89a.564.564 0 0 1 .092-1.044Z" fill="#156477"/></svg>
