<svg width="24" height="24" fill="none" xmlns="http://www.w3.org/2000/svg"><path d="M9.222 12.778c0-1.872 1.243-3.333 2.778-3.333s2.778 1.461 2.778 3.333c0 1.84-1.243 3.333-2.778 3.333s-2.778-1.493-2.778-3.333ZM2 18.524V7.813c0-.841.881-1.399 1.679-1.18 2.772.732 5.547.055 8.321-.652 3.017-.77 6.035-1.538 9.052-.416.594.22.948.823.948 1.466v10.68c0 .872-.882 1.431-1.677 1.181-2.774-.732-5.549-.024-8.323.681-3.017.77-6.035 1.538-9.052.417-.593-.22-.948-.823-.948-1.466Zm9.694-.593c1.941-.497 4.146-1.06 6.434-.997A2.226 2.226 0 0 1 20.334 15V8.89a2.223 2.223 0 0 1-2.222-2.217c-1.632-.06-3.361.33-5.337.832-.152.038-.309.08-.468.121-1.941.497-4.146 1.06-6.434.997a2.225 2.225 0 0 1-2.205 1.934v6.11c1.225 0 2.218.994 2.222 2.22 1.6.059 3.361-.334 5.337-.834.152-.038.309-.08.468-.121Z" fill="#156477"/></svg>
