<svg width="24" height="24" viewBox="0 0 24 24" fill="none" xmlns="http://www.w3.org/2000/svg"><path fill-rule="evenodd" clip-rule="evenodd" d="M4.8764 2L4.88869 2.00002L4.901 2C6.21738 2 7.38524 2.63588 8.11417 3.61724C8.29725 3.8503 8.58166 4 8.90101 4H15.101C15.4204 4 15.7048 3.8503 15.8878 3.61723C16.6168 2.63588 17.7846 2 19.101 2L19.1134 2.00002L19.1257 2C20.9816 2 22.5514 3.27708 22.9794 5.01725C23.0588 5.33158 23.101 5.66101 23.101 6L23.7123 18.2261C23.815 20.2792 22.1781 22 20.1225 22C18.761 22 17.5164 21.2308 16.9076 20.0131L16.5774 19.3528C16.408 19.014 16.0618 18.8 15.683 18.8H8.31908C7.9403 18.8 7.59404 19.014 7.42465 19.3528L7.0945 20.0131C6.48564 21.2308 5.24105 22 3.87961 22C1.824 22 0.187082 20.2792 0.289734 18.2261L0.901001 6C0.901001 5.65797 0.943929 5.32597 1.02469 5.00909C1.45561 3.27309 3.02341 2 4.8764 2ZM15.101 6H8.90101C7.91004 6 7.03128 5.51952 6.48501 4.77881C6.11926 4.3051 5.54576 4.00015 4.901 4.00015L4.88576 4.00006C3.95689 4.00699 3.17869 4.64712 2.96142 5.51018C2.93367 5.62651 2.91619 5.74696 2.91001 5.87053L2.28724 18.326C2.24171 19.2367 2.9678 20 3.87961 20C4.48351 20 5.03557 19.6588 5.30564 19.1187L5.91219 17.9056C6.25097 17.228 6.9435 16.8 7.70104 16.8H16.301C17.0586 16.8 17.7511 17.228 18.0899 17.9056L18.6964 19.1187C18.9665 19.6588 19.5186 20 20.1225 20C21.0343 20 21.7604 19.2367 21.7148 18.326L21.0921 5.87053C21.086 5.74843 21.0688 5.62938 21.0416 5.51434C20.8258 4.64919 20.0466 4.00701 19.1163 4.00006L19.101 4C18.4563 4 17.8828 4.3051 17.517 4.7788C16.9707 5.51951 16.092 6 15.101 6ZM18.4851 11.1C19.3136 11.1 19.9851 10.4284 19.9851 9.6C19.9851 8.77157 19.3136 8.1 18.4851 8.1C17.6567 8.1 16.9851 8.77157 16.9851 9.6C16.9851 10.4284 17.6567 11.1 18.4851 11.1ZM16.9851 13.4C16.9851 14.2284 16.3136 14.9 15.4851 14.9C14.6567 14.9 13.9851 14.2284 13.9851 13.4C13.9851 12.5716 14.6567 11.9 15.4851 11.9C16.3136 11.9 16.9851 12.5716 16.9851 13.4ZM6.31512 9.2C6.31512 8.53726 6.85238 8 7.51512 8C8.17787 8 8.71512 8.53726 8.71512 9.2V9.90005C8.71512 10.121 8.89421 10.3 9.11512 10.3H9.81514C10.4779 10.3 11.0151 10.8373 11.0151 11.5C11.0151 12.1628 10.4779 12.7 9.81514 12.7H9.11512C8.89421 12.7 8.71512 12.8791 8.71512 13.1V13.8C8.71512 14.4627 8.17787 15 7.51512 15C6.85238 15 6.31512 14.4627 6.31512 13.8V13.1C6.31512 12.8791 6.13604 12.7 5.91512 12.7H5.21514C4.55239 12.7 4.01514 12.1628 4.01514 11.5C4.01514 10.8373 4.55239 10.3 5.21514 10.3H5.91512C6.13604 10.3 6.31512 10.121 6.31512 9.90005V9.2Z" fill="#333"/></svg>
