<svg width="24" height="24" viewBox="0 0 24 24" fill="none" xmlns="http://www.w3.org/2000/svg"><path fill-rule="evenodd" clip-rule="evenodd" d="M1 5.5C1 4.94772 1.44772 4.5 2 4.5H3.5C3.95563 4.5 4.35365 4.80799 4.468 5.24904L7.57961 17.251C7.69395 17.692 8.09198 18 8.5476 18H17.9582C18.4125 18 18.8097 17.6938 18.9253 17.2545L20.7028 10.5H19.5C18.9477 10.5 18.5 10.0523 18.5 9.5C18.5 8.94772 18.9477 8.5 19.5 8.5H20.7028C22.0141 8.5 22.9707 9.74082 22.6369 11.009L20.6633 18.509C20.432 19.3876 19.6377 20 18.7291 20H7.7738C6.86255 20 6.0665 19.384 5.83781 18.5019L2.90845 7.20296C2.80114 6.78904 2.4276 6.5 2 6.5C1.44772 6.5 1 6.05228 1 5.5Z" fill="#156477"/><path fill-rule="evenodd" clip-rule="evenodd" d="M8.6 25.2C9.48366 25.2 10.2 24.4837 10.2 23.6C10.2 22.7163 9.48366 22 8.6 22C7.71634 22 7 22.7163 7 23.6C7 24.4837 7.71634 25.2 8.6 25.2Z" fill="#156477"/><path fill-rule="evenodd" clip-rule="evenodd" d="M17.6 25.2C18.4837 25.2 19.2 24.4837 19.2 23.6C19.2 22.7163 18.4837 22 17.6 22C16.7163 22 16 22.7163 16 23.6C16 24.4837 16.7163 25.2 17.6 25.2Z" fill="#156477"/><path fill-rule="evenodd" clip-rule="evenodd" d="M11.0664 3.97969C11.3325 4.25058 11.3286 4.68586 11.0577 4.95192C10.7868 5.21798 10.3515 5.21406 10.0855 4.94317C9.8194 4.67228 9.82331 4.237 10.0942 3.97094C10.3651 3.70488 10.8004 3.7088 11.0664 3.97969ZM12.092 3.93603C12.0166 3.718 11.8928 3.51289 11.7204 3.33736C11.0996 2.70529 10.084 2.69615 9.45188 3.31696C8.98511 3.7754 8.85805 4.44918 9.07353 5.0248C8.50188 4.799 7.82593 4.91391 7.35915 5.37236C6.72708 5.99317 6.71794 7.00883 7.33875 7.6409C7.51115 7.81643 7.714 7.94392 7.93063 8.02322L6.7414 9.19124C6.5608 9.36862 6.55819 9.65881 6.73557 9.8394L11.2318 14.4173C11.4092 14.5979 11.6994 14.6005 11.88 14.4231L18.4198 7.99989C18.6004 7.82252 18.6031 7.53233 18.4257 7.35174L13.9294 2.77383C13.752 2.59324 13.4618 2.59063 13.2813 2.768L12.092 3.93603ZM8.97371 6.03509C9.23977 6.30598 9.23585 6.74127 8.96496 7.00733C8.69408 7.27339 8.25879 7.26947 7.99273 6.99858C7.72667 6.72769 7.73059 6.29241 8.00148 6.02635C8.27237 5.76029 8.70765 5.7642 8.97371 6.03509ZM7.84151 9.3956L9.60729 7.66131L9.73807 7.53286L9.71481 10.1179C9.7139 10.2191 9.79524 10.3019 9.89649 10.3028L10.4465 10.3078C10.5477 10.3087 10.6305 10.2273 10.6314 10.1261L10.6628 6.6429L14.146 6.67424C14.2472 6.67515 14.33 6.59381 14.3309 6.49256L14.3359 5.94259C14.3368 5.84134 14.2555 5.75852 14.1542 5.75761L11.5692 5.73435L11.7 5.60591L13.4658 3.87162C13.538 3.80067 13.6541 3.80171 13.7251 3.87395L16.1659 6.3591L10.28 12.14L7.83918 9.65487C7.76823 9.58263 7.76927 9.46655 7.84151 9.3956ZM11.4362 13.3172L10.9223 12.794L16.8082 7.01308L17.3221 7.53627C17.393 7.60851 17.392 7.72458 17.3197 7.79553L11.6955 13.3195C11.6232 13.3905 11.5071 13.3894 11.4362 13.3172Z" fill="#156477"/></svg>
