<svg width="24" height="24" viewBox="0 0 24 24" fill="none" xmlns="http://www.w3.org/2000/svg"><path fill-rule="evenodd" clip-rule="evenodd" d="M0.821507 7.19555C0.288041 7.33849 -0.0285413 7.88683 0.1144 8.42029L0.994385 11.7044C1.08015 12.0245 1.41258 12.2042 1.74371 12.2168C2.59713 12.2491 3.36655 12.8301 3.59917 13.6982C3.83178 14.5664 3.45592 15.4542 2.73301 15.9089C2.45252 16.0853 2.25448 16.4072 2.34024 16.7273L3.22023 20.0114C3.30906 20.3429 3.55447 20.5907 3.85558 20.6965V20.8585C3.85558 21.4108 4.3033 21.8585 4.85558 21.8585H20.4556C21.0079 21.8585 21.4556 21.4108 21.4556 20.8585V16.1605L23.1839 15.6974C23.7174 15.5545 24.034 15.0061 23.891 14.4727L23.0111 11.1885C22.9253 10.8684 22.5929 10.6887 22.2617 10.6762C21.4083 10.6438 20.6389 10.0629 20.4063 9.19475C20.1737 8.32662 20.5495 7.43879 21.2724 6.98407C21.5529 6.80764 21.751 6.4858 21.6652 6.16572L20.7852 2.88157C20.6423 2.3481 20.0939 2.03152 19.5605 2.17446L0.821507 7.19555ZM19.4556 16.6964L7.65465 19.8585H19.0556C19.2765 19.8585 19.4556 19.6794 19.4556 19.4585V16.6964ZM2.92337 10.4177C2.78785 10.3727 2.67963 10.2665 2.64268 10.1285L2.4086 9.25495C2.35142 9.04157 2.47806 8.82223 2.69144 8.76505L18.7258 4.46866C18.9392 4.41148 19.1585 4.53811 19.2157 4.7515L19.4498 5.62511C19.4867 5.76303 19.4462 5.90917 19.3513 6.01587C18.4869 6.98785 18.1126 8.36203 18.4744 9.71239C18.8363 11.0628 19.8475 12.0657 21.0821 12.4753C21.2176 12.5202 21.3258 12.6265 21.3628 12.7644L21.5968 13.638C21.654 13.8514 21.5274 14.0707 21.314 14.1279L5.27963 18.4243C5.06624 18.4815 4.84691 18.3549 4.78973 18.1415L4.55566 17.2679C4.5187 17.13 4.55927 16.9838 4.65416 16.8771C5.51857 15.9051 5.89285 14.5309 5.53102 13.1806C5.16919 11.8302 4.15796 10.8273 2.92337 10.4177ZM7.07278 9.66163C6.8594 9.71881 6.73276 9.93814 6.78994 10.1515L7.10052 11.3106C7.1577 11.524 7.37703 11.6507 7.59042 11.5935L12.6132 10.2476C12.8266 10.1904 12.9533 9.97111 12.8961 9.75772L12.5855 8.59861C12.5283 8.38523 12.309 8.25859 12.0956 8.31577L7.07278 9.66163ZM7.82522 14.0152C7.76804 13.8018 7.89467 13.5825 8.10806 13.5253L16.9946 11.1442C17.208 11.087 17.4273 11.2137 17.4845 11.427L17.7951 12.5862C17.8522 12.7995 17.7256 13.0189 17.5122 13.076L8.6257 15.4572C8.41231 15.5144 8.19298 15.3877 8.1358 15.1743L7.82522 14.0152Z" fill="#000"/></svg>
