<svg width="24" height="24" viewBox="0 0 24 24" fill="none" xmlns="http://www.w3.org/2000/svg"><path fill-rule="evenodd" clip-rule="evenodd" d="M20 10.4419C20 10.1381 19.8619 9.85081 19.6247 9.66103L12.6247 4.06103C12.2595 3.76886 11.7405 3.76886 11.3753 4.06104L4.3753 9.66104C4.13809 9.85081 4 10.1381 4 10.4419V20C4 20.5523 4.44772 21 5 21H19C19.5523 21 20 20.5523 20 20V10.4419ZM10.7506 1.99954C11.481 1.41519 12.519 1.41519 13.2494 1.99954L21.2494 8.39954C21.7238 8.77909 22 9.35371 22 9.96128V21C22 22.1046 21.1046 23 20 23H4C2.89543 23 2 22.1046 2 21V9.96128C2 9.35371 2.27618 8.77909 2.75061 8.39954L10.7506 1.99954Z" fill="#000"/></svg>
