<svg xmlns="http://www.w3.org/2000/svg" viewBox="0 0 24 19"><path d="M0 3.3C0 1.5 1.5 0 3.3 0h17.4C22.5 0 24 1.5 24 3.3h-2.2c0-.6-.5-1.1-1-1.1H3.2a1 1 0 0 0-1.1 1v12c0 .7.5 1.2 1 1.2h17.5c.6 0 1.1-.5 1.1-1.1v-1.1H24v1c0 1.9-1.5 3.3-3.3 3.3H3.3A3.3 3.3 0 0 1 0 15.3v-12Z"/><path d="M4.4 7.6c0-1.8 1.4-3.2 3.2-3.2h5.5v2.1H7.6a1 1 0 0 0-1 1.1v2.2c0 .6.4 1.1 1 1.1h5.5v2.2H7.6a3.3 3.3 0 0 1-3.2-3.3V7.6ZM20.7 13h-5.4v-2h5.4c.6 0 1.1-.6 1.1-1.2V7.6c0-.6-.5-1-1-1h-5.5V4.3h5.4c1.8 0 3.3 1.4 3.3 3.2v2.2c0 1.8-1.5 3.3-3.3 3.3Z"/><path d="M18.5 8.7c0 .6-.4 1.1-1 1.1h-6.6a1 1 0 0 1 0-2.2h6.6c.6 0 1 .5 1 1.1Z"/></svg>