<svg width="24" height="24" viewBox="0 0 24 24" fill="none" xmlns="http://www.w3.org/2000/svg"><path fill-rule="evenodd" clip-rule="evenodd" d="M11.0484 13.5627C11.6814 12.7216 12.0565 11.6756 12.0565 10.5419C12.0565 7.76491 9.80531 5.51367 7.02827 5.51367C4.25123 5.51367 2 7.76491 2 10.5419C2 11.676 2.37541 12.7223 3.00872 13.5635L6.19626 18.3448C6.59208 18.9385 7.46454 18.9385 7.86036 18.3448L11.0484 13.5627Z" fill="#156477"/><path fill-rule="evenodd" clip-rule="evenodd" d="M9.70645 12.7318C10.1289 12.1526 10.3793 11.432 10.3793 10.6511C10.3793 8.73927 8.87866 7.18945 7.02753 7.18945C5.17641 7.18945 3.67578 8.73927 3.67578 10.6511C3.67578 11.4313 3.92572 12.1513 4.34742 12.7302L6.85943 16.6217C6.93821 16.7437 7.11672 16.7437 7.1955 16.6217L9.70645 12.7318Z" fill="#fff"/><circle cx="7.02744" cy="10.5411" r="1.67588"/><path fill-rule="evenodd" clip-rule="evenodd" d="M12.6949 7.82655H19.12C19.4326 7.82655 19.6928 8.0666 19.718 8.37821L20.459 17.5451C20.4872 17.8944 20.2113 18.1934 19.8609 18.1934H11.6166C11.2662 18.1934 10.9903 17.8944 11.0186 17.5451L11.2177 15.0815L9.44863 17.7351L9.39235 18.5009C9.33525 19.278 9.95029 19.9399 10.7294 19.9399H20.6595C21.4417 19.9399 22.0578 19.273 21.996 18.4932L21.1439 7.74943C21.0748 6.87799 20.3474 6.20605 19.4732 6.20605H11.8531C11.7424 6.20605 11.6341 6.21682 11.5292 6.23739C12.005 6.69226 12.4012 7.22964 12.6949 7.82655Z" fill="#156477"/><path fill-rule="evenodd" clip-rule="evenodd" d="M12.4922 6.20603C12.4922 4.43539 13.9276 3 15.6982 3C17.4689 3 18.9042 4.43539 18.9042 6.20603H17.3012C17.3012 5.32071 16.5835 4.60301 15.6982 4.60301C14.8129 4.60301 14.0952 5.32071 14.0952 6.20603H12.4922Z" fill="#156477"/><path d="M17.3008 6.20605H18.9038V8.61057C18.9038 9.05323 18.5449 9.41208 18.1023 9.41208C17.6596 9.41208 17.3008 9.05323 17.3008 8.61057V6.20605Z" fill="#156477"/><path fill-rule="evenodd" clip-rule="evenodd" d="M13.1981 9.40644C13.0846 8.70284 12.8407 8.04284 12.4922 7.45201V6.20605H14.0952V8.61057C14.0952 9.05323 13.7364 9.41208 13.2937 9.41208C13.2614 9.41208 13.2295 9.41016 13.1981 9.40644Z" fill="#156477"/></svg>
