<svg width="24" height="24" viewBox="0 0 24 24" fill="none" xmlns="http://www.w3.org/2000/svg"><path fill-rule="evenodd" clip-rule="evenodd" d="M13.0024 12.9189L19.3522 12.9189C19.4626 12.9189 19.5522 13.0079 19.5522 13.1177V16.3647C19.5522 16.5418 19.7676 16.6305 19.8936 16.5053L24.3605 12.0655C24.4386 11.9878 24.4386 11.862 24.3605 11.7843L19.8936 7.34451C19.7676 7.21928 19.5522 7.30797 19.5522 7.48507V10.7322C19.5522 10.842 19.4626 10.931 19.3522 10.931L12.6024 10.931V10.9333H7.00244C6.45016 10.9333 6.00244 11.3783 6.00244 11.9272C6.00244 12.4761 6.45016 12.9211 7.00244 12.9211H13.0024V12.9189Z" fill="#555"/><path fill-rule="evenodd" clip-rule="evenodd" d="M11.8223 0.993896C14.2986 0.993896 16.5838 1.80721 18.4222 3.17974V3.18047C18.6651 3.36181 18.8223 3.65052 18.8223 3.97571C18.8223 4.52465 18.3745 4.96965 17.8223 4.96965C17.5855 4.96965 17.368 4.88788 17.1967 4.7512C17.0743 4.66046 16.9494 4.57274 16.8223 4.48815V4.48785C15.3923 3.53597 13.6743 2.98178 11.8223 2.98178C6.8517 2.98178 2.82227 6.98679 2.82227 11.9272C2.82227 16.8677 6.8517 20.8727 11.8223 20.8727C13.6743 20.8727 15.3923 20.3185 16.8223 19.3666V19.3663C16.9493 19.2818 17.074 19.1942 17.1964 19.1035C17.3677 18.9667 17.5854 18.8848 17.8223 18.8848C18.3745 18.8848 18.8223 19.3298 18.8223 19.8787C18.8223 20.2039 18.6651 20.4926 18.4222 20.674V20.6747C16.5838 22.0472 14.2986 22.8606 11.8223 22.8606C5.74713 22.8606 0.822266 17.9655 0.822266 11.9272C0.822266 5.88892 5.74713 0.993896 11.8223 0.993896ZM16.8236 19.9299C16.8228 19.9156 16.8224 19.9012 16.8223 19.8868L16.8223 19.8787" fill="#555"/></svg>
