<svg xmlns="http://www.w3.org/2000/svg" xmlns:xlink="http://www.w3.org/1999/xlink" viewBox="0 0 30 200" width="30" height="200"><defs><symbol id="0"><path d="m10 0c-5.5 0-10 4.5-10 10 0 5.5 4.5 10 10 10 5.5 0 10-4.5 10-10 0-5.5-4.5-10-10-10m0 18.12c-2.375 0-4.5-1.125-5.875-2.75 1-.5 2.125-.875 3.375-1.125 0 0 .625-.5.5-1.125 0-.25-.875-1.25-.875-1.25-.875-.875-1.375-2.25-1.375-3.625 0-2.75 1.875-5 4.25-5 2.375 0 4.25 2.25 4.25 5 0 1.375-.5 2.75-1.375 3.625 0 0-.875.875-.875 1.25-.125.625.5 1.125.5 1.125 1.25.25 2.375.625 3.375 1.125-1.375 1.75-3.5 2.75-5.875 2.75"/></symbol><symbol id="1"><path d="m11.11 92.66c.534-.359.885-.969.885-1.661 0-1.105-.895-2-2-2-1.105 0-2 .895-2 2 0 .692.352 1.302.886 1.661-.057.097-.101.2-.128.307l-.516 2.063c-.135.54.21.968.767.968h1.981c.566 0 .901-.434.767-.968l-.516-2.063c-.027-.108-.071-.211-.128-.307m-8.115-3.669c0-1.1.897-1.992 2.01-1.992h9.988c1.108 0 2.01.9 2.01 1.992v7.02c0 1.1-.897 1.992-2.01 1.992h-9.988c-1.108 0-2.01-.9-2.01-1.992v-7.02m11.5-2.992h-.5v-4c0-.549-.449-.998-1-.998h-6c-.557 0-1 .444-1 .998v4h-.5-.5v-4c0-1.103.887-1.998 2-1.998h6c1.104 0 2 .898 2 1.998v4h-.5"/></symbol><symbol id="2"><path d="m22.675 84h-21.35c-.731 0-1.325.594-1.325 1.325v21.35c0 .731.594 1.325 1.325 1.325h11.494v-9.294h-3.128v-3.622h3.128v-2.67c0-3.099 1.893-4.787 4.659-4.787 1.325 0 2.462.098 2.794.142v3.24h-1.917c-1.504 0-1.795.715-1.795 1.763v2.312h3.586l-.466 3.622h-3.12v9.294h6.115c.731 0 1.325-.594 1.325-1.325v-21.35c0-.731-.594-1.325-1.325-1.325" fill="#fff"/></symbol></defs><use xlink:href="#0" fill="#ccc"/><use xlink:href="#0" y="30" fill="#15768d"/><use xlink:href="#1" fill="#ccc"/><use xlink:href="#1" y="30" fill="#15768d"/><use xlink:href="#2" y="60" fill="#fff"/></svg>
