<svg width="24" height="24" viewBox="0 0 24 24" fill="none" xmlns="http://www.w3.org/2000/svg"><path fill-rule="evenodd" clip-rule="evenodd" d="M15.7959 2H8.04082C6.91837 2 6 2.91837 6 4.04082V19.9592C6 21.0816 6.91837 22 8.04082 22H15.7959C16.9184 22 17.8367 21.0816 17.8367 19.9592V4.04082C17.8367 2.91837 16.9184 2 15.7959 2ZM11.9184 21.1837C11.1296 21.1837 10.4898 20.7269 10.4898 20.1633C10.4898 19.5996 11.1296 19.1429 11.9184 19.1429C12.7069 19.1429 13.3469 19.5996 13.3469 20.1633C13.3469 20.7271 12.7069 21.1837 11.9184 21.1837ZM16.2041 18.1224H7.63265V4.65306H16.2041V18.1224Z" fill="#156477"/></svg>
