<svg width="24" height="24" viewBox="0 0 24 24" fill="none" xmlns="http://www.w3.org/2000/svg"><path fill-rule="evenodd" clip-rule="evenodd" d="M7.25 12C7.25 12.8284 6.57843 13.5 5.75 13.5C4.92157 13.5 4.25 12.8284 4.25 12C4.25 11.1716 4.92157 10.5 5.75 10.5C6.57843 10.5 7.25 11.1716 7.25 12ZM13.5 12C13.5 12.8284 12.8284 13.5 12 13.5C11.1716 13.5 10.5 12.8284 10.5 12C10.5 11.1716 11.1716 10.5 12 10.5C12.8284 10.5 13.5 11.1716 13.5 12ZM18.25 13.5C19.0784 13.5 19.75 12.8284 19.75 12C19.75 11.1716 19.0784 10.5 18.25 10.5C17.4216 10.5 16.75 11.1716 16.75 12C16.75 12.8284 17.4216 13.5 18.25 13.5Z" fill="#000"/><path fill-rule="evenodd" clip-rule="evenodd" d="M21 12C21 16.9706 16.9706 21 12 21C7.0294 21 3 16.9706 3 12C3 7.0294 7.0294 3 12 3C16.9706 3 21 7.0294 21 12ZM23 12C23 18.0751 18.0751 23 12 23C5.9249 23 1 18.0751 1 12C1 5.9249 5.9249 1 12 1C18.0751 1 23 5.9249 23 12Z" fill="#000"/></svg>
