<svg width="96" height="96" viewBox="0 0 96 96" fill="none" xmlns="http://www.w3.org/2000/svg"><g clip-path="url(#clip0)"><g filter="url(#filter0_d)"><path d="M48.3996 85.2746C68.7649 85.2746 85.2742 68.7653 85.2742 48.4C85.2742 28.0347 68.7649 11.5254 48.3996 11.5254C28.0343 11.5254 11.525 28.0347 11.525 48.4C11.525 68.7653 28.0343 85.2746 48.3996 85.2746Z" fill="#339FBA"/></g><g filter="url(#filter1_d)"><circle cx="48.4" cy="48.4" r="27.6" fill="white"/><circle cx="48.4" cy="48.4" r="27.1" stroke="white"/></g><g filter="url(#filter2_d)"><path d="M46.1272 28.9992L16.3098 55.7211C15.8126 56.1667 15.6444 56.8742 15.8878 57.4959L18.8289 65.0088C19.0723 65.6305 19.6761 66.0358 20.3437 66.0254L60.378 65.4019C61.4942 65.3845 62.25 64.2583 61.843 63.2188L48.6849 29.6075C48.278 28.568 46.9585 28.2542 46.1272 28.9992Z" fill="#339FBA"/></g><g filter="url(#filter3_d)"><path fill-rule="evenodd" clip-rule="evenodd" d="M47.195 30.1908L17.3777 56.9127L20.3188 64.4256L60.3531 63.8021L47.195 30.1908ZM16.3098 55.7211L46.1272 28.9992C46.9585 28.2542 48.278 28.568 48.6849 29.6075L61.843 63.2188C62.25 64.2583 61.4942 65.3845 60.378 65.4019L20.3437 66.0254C19.6761 66.0358 19.0723 65.6305 18.8289 65.0088L15.8878 57.4959C15.6444 56.8742 15.8126 56.1667 16.3098 55.7211Z" fill="#F1F1F1"/></g><g filter="url(#filter4_d)"><path d="M14.8851 54.9347C14.0001 55.2812 13.1921 55.7985 12.5071 56.4572C11.8221 57.116 11.2735 57.9032 10.8927 58.7739C10.5119 59.6446 10.3064 60.5818 10.2878 61.532C10.2692 62.4821 10.4379 63.4267 10.7844 64.3116C11.1308 65.1966 11.6482 66.0046 12.3069 66.6896C12.9656 67.3746 13.7528 67.9232 14.6235 68.304C15.4943 68.6847 16.4314 68.8903 17.3816 68.9089C18.3318 68.9275 19.2763 68.7587 20.1612 68.4123L17.5232 61.6735L14.8851 54.9347Z" fill="#216677"/></g><g filter="url(#filter5_d)"><path fill-rule="evenodd" clip-rule="evenodd" d="M15.7917 52.8615L22.2344 69.3188L20.7445 69.9021C19.6639 70.3251 18.5105 70.5312 17.3503 70.5085C16.1901 70.4858 15.0457 70.2348 13.9824 69.7698C12.9192 69.3048 11.958 68.635 11.1536 67.7985C10.3492 66.9621 9.71751 65.9754 9.29447 64.8947C8.87144 63.8141 8.66539 62.6608 8.68809 61.5006C8.71079 60.3403 8.96179 59.1959 9.42676 58.1327C9.89174 57.0694 10.5616 56.1082 11.398 55.3038C12.2345 54.4995 13.2212 53.8678 14.3018 53.4447L15.7917 52.8615ZM18.6061 68.8287C18.2019 68.8898 17.7923 68.9168 17.3816 68.9088C16.4314 68.8902 15.4942 68.6846 14.6235 68.3038C13.7528 67.9231 12.9656 67.3745 12.3069 66.6895C11.6482 66.0045 11.1308 65.1964 10.7844 64.3115C10.4379 63.4265 10.2692 62.482 10.2878 61.5319C10.3064 60.5817 10.5119 59.6445 10.8927 58.7738C11.2735 57.903 11.8221 57.1159 12.5071 56.4571C12.8031 56.1724 13.1222 55.9141 13.4605 55.6846C13.9049 55.3831 14.3826 55.1313 14.8851 54.9346L20.1612 68.4122C19.6588 68.6089 19.1371 68.7483 18.6061 68.8287Z" fill="white"/></g><g filter="url(#filter6_d)"><path d="M57.854 39.5786C58.5177 39.3188 59.2261 39.1922 59.9388 39.2061C60.6514 39.2201 61.3543 39.3742 62.0073 39.6598C62.6604 39.9454 63.2508 40.3568 63.7448 40.8706C64.2388 41.3844 64.6268 41.9904 64.8867 42.6541C65.1465 43.3178 65.2731 44.0262 65.2591 44.7388C65.2452 45.4515 65.091 46.1544 64.8054 46.8074C64.5198 47.4604 64.1084 48.0508 63.5947 48.5449C63.0809 49.0389 62.4749 49.4269 61.8112 49.6868L59.8326 44.6327L57.854 39.5786Z" fill="#216677"/></g><g filter="url(#filter7_d)"><path fill-rule="evenodd" clip-rule="evenodd" d="M55.7809 38.672L60.9046 51.7599L62.3945 51.1767C63.2539 50.8402 64.0386 50.3378 64.7038 49.6982C65.369 49.0585 65.9017 48.294 66.2715 47.4485C66.6412 46.6029 66.8408 45.6928 66.8589 44.7701C66.8769 43.8474 66.7131 42.9302 66.3767 42.0709C66.0402 41.2115 65.5378 40.4268 64.8982 39.7616C64.2585 39.0964 63.494 38.5637 62.6485 38.1939C61.8029 37.8241 60.8928 37.6245 59.9701 37.6065C59.0474 37.5884 58.1302 37.7523 57.2708 38.0887L55.7809 38.672ZM59.4319 39.2199C58.892 39.2599 58.3601 39.3805 57.8541 39.5786L61.8112 49.6868C62.3172 49.4887 62.7896 49.2161 63.2132 48.8789C63.3453 48.7738 63.4726 48.6623 63.5947 48.5449C64.1085 48.0508 64.5199 47.4604 64.8055 46.8074C65.0911 46.1544 65.2453 45.4515 65.2592 44.7388C65.2731 44.0262 65.1466 43.3178 64.8868 42.6541C64.6269 41.9904 64.2389 41.3844 63.7449 40.8706C63.2508 40.3569 62.6604 39.9454 62.0074 39.6598C61.3544 39.3743 60.6515 39.2201 59.9388 39.2061C59.7694 39.2028 59.6003 39.2075 59.4319 39.2199Z" fill="#F1F1F1"/></g><g filter="url(#filter8_d)"><path d="M67.3729 35.5441C66.8356 35.1148 66.748 34.3312 67.1773 33.7939L78.0589 20.1728C78.4882 19.6354 79.2718 19.5478 79.8091 19.9771C80.3464 20.4064 80.434 21.19 80.0048 21.7273L69.1231 35.3484C68.6939 35.8857 67.9103 35.9733 67.3729 35.5441Z" fill="#339FBA"/></g><g filter="url(#filter9_d)"><path fill-rule="evenodd" clip-rule="evenodd" d="M66.5522 33.2946L77.4338 19.6735C78.1389 18.791 79.4259 18.6471 80.3084 19.3521C81.1909 20.0572 81.3348 21.3442 80.6298 22.2267L69.7481 35.8478C69.0431 36.7303 67.7561 36.8742 66.8736 36.1692C65.991 35.4641 65.8471 34.1771 66.5522 33.2946ZM67.1772 33.7939C66.7479 34.3313 66.8355 35.1149 67.3729 35.5441C67.9102 35.9734 68.6938 35.8858 69.1231 35.3485L80.0047 21.7274C80.434 21.19 80.3464 20.4064 79.8091 19.9772C79.2717 19.5479 78.4881 19.6355 78.0589 20.1729L67.1772 33.7939Z" fill="white"/></g><g filter="url(#filter10_d)"><path d="M91.7133 52.0933C91.8164 51.4133 91.3488 50.7785 90.6688 50.6754L73.4317 48.0622C72.7518 47.9591 72.117 48.4268 72.0139 49.1068C71.9108 49.7867 72.3784 50.4215 73.0584 50.5246L90.2955 53.1379C90.9754 53.241 91.6103 52.7733 91.7133 52.0933Z" fill="#339FBA"/></g><g filter="url(#filter11_d)"><path fill-rule="evenodd" clip-rule="evenodd" d="M90.7886 49.8844L73.5515 47.2712C72.4347 47.1019 71.3921 47.87 71.2228 48.9868C71.0535 50.1036 71.8216 51.1462 72.9384 51.3155L90.1754 53.9288C91.2922 54.0981 92.3349 53.33 92.5042 52.2132C92.6735 51.0964 91.9054 50.0538 90.7886 49.8844ZM90.6687 50.6754C91.3486 50.7785 91.8163 51.4133 91.7132 52.0933C91.6101 52.7733 90.9753 53.2409 90.2953 53.1378L73.0583 50.5246C72.3783 50.4215 71.9106 49.7867 72.0137 49.1067C72.1168 48.4267 72.7516 47.9591 73.4316 48.0622L90.6687 50.6754Z" fill="white"/></g><g filter="url(#filter12_d)"><path d="M69.7035 41.4978C69.9542 42.1383 70.6766 42.4542 71.317 42.2035L87.5514 35.8481C88.1918 35.5974 88.5077 34.875 88.257 34.2345C88.0063 33.5941 87.2839 33.2782 86.6434 33.5289L70.4091 39.8843C69.7687 40.135 69.4528 40.8574 69.7035 41.4978Z" fill="#339FBA"/></g><g filter="url(#filter13_d)"><path fill-rule="evenodd" clip-rule="evenodd" d="M71.6087 42.9486L87.843 36.5932C88.8948 36.1814 89.4137 34.9949 89.0019 33.943C88.5902 32.8912 87.4037 32.3723 86.3518 32.7841L70.1175 39.1395C69.0656 39.5512 68.5467 40.7377 68.9585 41.7896C69.3703 42.8414 70.5568 43.3603 71.6087 42.9486ZM71.317 42.2036C70.6766 42.4543 69.9542 42.1384 69.7035 41.498C69.4528 40.8575 69.7687 40.1351 70.4091 39.8844L86.6434 33.529C87.2839 33.2783 88.0063 33.5942 88.257 34.2347C88.5077 34.8751 88.1918 35.5975 87.5514 35.8482L71.317 42.2036Z" fill="white"/></g><g filter="url(#filter14_d)"><path d="M23.5998 64.4004C27.1427 73.5415 30.8711 83.6118 34.414 92.753C37.6236 91.5038 40.8372 90.2488 44.0467 88.9996C40.4381 79.8656 38.0026 73.1302 34.3999 64.0002C23.5998 64.4004 34.4335 64.0854 23.5998 64.4004Z" fill="#216677"/></g><g filter="url(#filter15_d)"><path fill-rule="evenodd" clip-rule="evenodd" d="M27.4132 64.2891C26.894 64.3044 26.2066 64.3245 25.2964 64.351C24.8 64.3655 24.2374 64.3818 23.5998 64.4004C23.8031 64.925 24.0071 65.4528 24.2116 65.9832C25.7886 70.0736 27.3977 74.3251 29.0069 78.5767C30.6279 82.8596 32.2489 87.1425 33.8371 91.2606C34.0299 91.7606 34.2222 92.2582 34.414 92.753C34.4142 92.7529 34.4143 92.7529 34.4144 92.7528C34.9112 92.5595 35.4081 92.366 35.905 92.1724C37.0132 91.7407 38.1218 91.3085 39.2303 90.8763C40.3389 90.4441 41.4475 90.0119 42.5558 89.5802C43.0528 89.3866 43.5498 89.193 44.0467 88.9996C43.8479 88.4964 43.6526 88.0004 43.4605 87.5109C41.8946 83.5206 40.5394 79.9609 39.1827 76.3976C37.6852 72.4643 36.186 68.5265 34.3999 64.0002C32.606 64.0667 31.4089 64.1134 30.6103 64.1466C30.6099 64.1466 30.6096 64.1466 30.6092 64.1466C28.9369 64.2161 29.0129 64.226 29.0127 64.2331C29.0124 64.2396 28.9481 64.2437 27.415 64.289C27.4144 64.2891 27.4138 64.2891 27.4132 64.2891ZM27.4674 64.6481C27.5046 64.7956 27.5441 64.8702 27.5241 64.8194L27.5201 64.8092L27.5087 64.7787C27.4993 64.7529 27.484 64.709 27.4688 64.6533C27.4683 64.6516 27.4679 64.6499 27.4674 64.6481ZM29.2027 65.8162C29.2026 65.8161 29.2067 65.8157 29.2157 65.8149C29.2075 65.8158 29.2028 65.8162 29.2027 65.8162ZM29.2943 65.8095C29.2568 65.8163 29.2272 65.8204 29.21 65.8226C29.1271 65.8334 29.043 65.8373 29.0104 65.8388L29.0055 65.8391C28.9061 65.8438 28.7233 65.8501 28.3887 65.8605C27.9337 65.8746 27.1741 65.897 25.9072 65.9339C27.421 69.8667 28.9625 73.9394 30.502 78.0069L30.5033 78.0103C32.1241 82.2927 33.7428 86.5693 35.3281 90.6801C36.4343 90.2491 37.541 89.8176 38.648 89.3861L38.6492 89.3856C39.7559 88.9541 40.8629 88.5226 41.9696 88.0914C40.4157 84.1316 39.0691 80.5959 37.7258 77.0677L37.6886 76.9699C36.3082 73.3442 34.9292 69.7223 33.3265 65.6414C31.3695 65.7153 30.3181 65.759 29.7548 65.7855C29.5171 65.7967 29.3759 65.8044 29.2943 65.8095Z" fill="#F1F1F1"/></g><path opacity="0.1" d="M39.6866 90.7068C41.1425 90.141 42.5926 89.5711 44.0485 89.0052C40.4399 79.8712 38.0028 73.1303 34.4 64.0003C29.1996 64.4004 34.3996 64.0004 29.2 64.4C32.983 73.419 36.0783 81.547 39.6866 90.7068Z" fill="#231F20"/></g><defs><filter id="filter0_d" x="9.525" y="10.5254" width="77.7492" height="77.7492" filterUnits="userSpaceOnUse" color-interpolation-filters="sRGB"><feFlood flood-opacity="0" result="BackgroundImageFix"/><feColorMatrix in="SourceAlpha" type="matrix" values="0 0 0 0 0 0 0 0 0 0 0 0 0 0 0 0 0 0 127 0"/><feOffset dy="1"/><feGaussianBlur stdDeviation="1"/><feColorMatrix type="matrix" values="0 0 0 0 0 0 0 0 0 0 0 0 0 0 0 0 0 0 0.25 0"/><feBlend mode="normal" in2="BackgroundImageFix" result="effect1_dropShadow"/><feBlend mode="normal" in="SourceGraphic" in2="effect1_dropShadow" result="shape"/></filter><filter id="filter1_d" x="18.8" y="19.8" width="59.2" height="59.2" filterUnits="userSpaceOnUse" color-interpolation-filters="sRGB"><feFlood flood-opacity="0" result="BackgroundImageFix"/><feColorMatrix in="SourceAlpha" type="matrix" values="0 0 0 0 0 0 0 0 0 0 0 0 0 0 0 0 0 0 127 0"/><feOffset dy="1"/><feGaussianBlur stdDeviation="1"/><feColorMatrix type="matrix" values="0 0 0 0 0 0 0 0 0 0 0 0 0 0 0 0 0 0 0.25 0"/><feBlend mode="normal" in2="BackgroundImageFix" result="effect1_dropShadow"/><feBlend mode="normal" in="SourceGraphic" in2="effect1_dropShadow" result="shape"/></filter><filter id="filter2_d" x="8.19551" y="27.1163" width="56.2313" height="55.433" filterUnits="userSpaceOnUse" color-interpolation-filters="sRGB"><feFlood flood-opacity="0" result="BackgroundImageFix"/><feColorMatrix in="SourceAlpha" type="matrix" values="0 0 0 0 0 0 0 0 0 0 0 0 0 0 0 0 0 0 127 0"/><feOffset dy="1"/><feGaussianBlur stdDeviation="1"/><feColorMatrix type="matrix" values="0 0 0 0 0 0 0 0 0 0 0 0 0 0 0 0 0 0 0.24 0"/><feBlend mode="normal" in2="BackgroundImageFix" result="effect1_dropShadow"/><feBlend mode="normal" in="SourceGraphic" in2="effect1_dropShadow" result="shape"/></filter><filter id="filter3_d" x="8.19551" y="27.1163" width="56.2313" height="55.433" filterUnits="userSpaceOnUse" color-interpolation-filters="sRGB"><feFlood flood-opacity="0" result="BackgroundImageFix"/><feColorMatrix in="SourceAlpha" type="matrix" values="0 0 0 0 0 0 0 0 0 0 0 0 0 0 0 0 0 0 127 0"/><feOffset dy="1"/><feGaussianBlur stdDeviation="1"/><feColorMatrix type="matrix" values="0 0 0 0 0 0 0 0 0 0 0 0 0 0 0 0 0 0 0.24 0"/><feBlend mode="normal" in2="BackgroundImageFix" result="effect1_dropShadow"/><feBlend mode="normal" in="SourceGraphic" in2="effect1_dropShadow" result="shape"/></filter><filter id="filter4_d" x="6.14629" y="53.9347" width="16.0149" height="20.1156" filterUnits="userSpaceOnUse" color-interpolation-filters="sRGB"><feFlood flood-opacity="0" result="BackgroundImageFix"/><feColorMatrix in="SourceAlpha" type="matrix" values="0 0 0 0 0 0 0 0 0 0 0 0 0 0 0 0 0 0 127 0"/><feOffset dy="1"/><feGaussianBlur stdDeviation="1"/><feColorMatrix type="matrix" values="0 0 0 0 0 0 0 0 0 0 0 0 0 0 0 0 0 0 0.24 0"/><feBlend mode="normal" in2="BackgroundImageFix" result="effect1_dropShadow"/><feBlend mode="normal" in="SourceGraphic" in2="effect1_dropShadow" result="shape"/></filter><filter id="filter5_d" x="4.07313" y="51.8615" width="20.1613" height="24.262" filterUnits="userSpaceOnUse" color-interpolation-filters="sRGB"><feFlood flood-opacity="0" result="BackgroundImageFix"/><feColorMatrix in="SourceAlpha" type="matrix" values="0 0 0 0 0 0 0 0 0 0 0 0 0 0 0 0 0 0 127 0"/><feOffset dy="1"/><feGaussianBlur stdDeviation="1"/><feColorMatrix type="matrix" values="0 0 0 0 0 0 0 0 0 0 0 0 0 0 0 0 0 0 0.24 0"/><feBlend mode="normal" in2="BackgroundImageFix" result="effect1_dropShadow"/><feBlend mode="normal" in="SourceGraphic" in2="effect1_dropShadow" result="shape"/></filter><filter id="filter6_d" x="55.854" y="36.6" width="13.0112" height="16.0867" filterUnits="userSpaceOnUse" color-interpolation-filters="sRGB"><feFlood flood-opacity="0" result="BackgroundImageFix"/><feColorMatrix in="SourceAlpha" type="matrix" values="0 0 0 0 0 0 0 0 0 0 0 0 0 0 0 0 0 0 127 0"/><feOffset dy="1"/><feGaussianBlur stdDeviation="1"/><feColorMatrix type="matrix" values="0 0 0 0 0 0 0 0 0 0 0 0 0 0 0 0 0 0 0.24 0"/><feBlend mode="normal" in2="BackgroundImageFix" result="effect1_dropShadow"/><feBlend mode="normal" in="SourceGraphic" in2="effect1_dropShadow" result="shape"/></filter><filter id="filter7_d" x="53.7809" y="34.5269" width="17.1575" height="20.2331" filterUnits="userSpaceOnUse" color-interpolation-filters="sRGB"><feFlood flood-opacity="0" result="BackgroundImageFix"/><feColorMatrix in="SourceAlpha" type="matrix" values="0 0 0 0 0 0 0 0 0 0 0 0 0 0 0 0 0 0 127 0"/><feOffset dy="1"/><feGaussianBlur stdDeviation="1"/><feColorMatrix type="matrix" values="0 0 0 0 0 0 0 0 0 0 0 0 0 0 0 0 0 0 0.24 0"/><feBlend mode="normal" in2="BackgroundImageFix" result="effect1_dropShadow"/><feBlend mode="normal" in="SourceGraphic" in2="effect1_dropShadow" result="shape"/></filter><filter id="filter8_d" x="64.4" y="18.1998" width="18.382" height="21.1215" filterUnits="userSpaceOnUse" color-interpolation-filters="sRGB"><feFlood flood-opacity="0" result="BackgroundImageFix"/><feColorMatrix in="SourceAlpha" type="matrix" values="0 0 0 0 0 0 0 0 0 0 0 0 0 0 0 0 0 0 127 0"/><feOffset dy="1"/><feGaussianBlur stdDeviation="1"/><feColorMatrix type="matrix" values="0 0 0 0 0 0 0 0 0 0 0 0 0 0 0 0 0 0 0.24 0"/><feBlend mode="normal" in2="BackgroundImageFix" result="effect1_dropShadow"/><feBlend mode="normal" in="SourceGraphic" in2="effect1_dropShadow" result="shape"/></filter><filter id="filter9_d" x="63.2756" y="17.0755" width="20.6308" height="23.3702" filterUnits="userSpaceOnUse" color-interpolation-filters="sRGB"><feFlood flood-opacity="0" result="BackgroundImageFix"/><feColorMatrix in="SourceAlpha" type="matrix" values="0 0 0 0 0 0 0 0 0 0 0 0 0 0 0 0 0 0 127 0"/><feOffset dy="1"/><feGaussianBlur stdDeviation="1"/><feColorMatrix type="matrix" values="0 0 0 0 0 0 0 0 0 0 0 0 0 0 0 0 0 0 0.24 0"/><feBlend mode="normal" in2="BackgroundImageFix" result="effect1_dropShadow"/><feBlend mode="normal" in="SourceGraphic" in2="effect1_dropShadow" result="shape"/></filter><filter id="filter10_d" x="69.8272" y="46.8755" width="24.0728" height="9.44899" filterUnits="userSpaceOnUse" color-interpolation-filters="sRGB"><feFlood flood-opacity="0" result="BackgroundImageFix"/><feColorMatrix in="SourceAlpha" type="matrix" values="0 0 0 0 0 0 0 0 0 0 0 0 0 0 0 0 0 0 127 0"/><feOffset dy="1"/><feGaussianBlur stdDeviation="1"/><feColorMatrix type="matrix" values="0 0 0 0 0 0 0 0 0 0 0 0 0 0 0 0 0 0 0.24 0"/><feBlend mode="normal" in2="BackgroundImageFix" result="effect1_dropShadow"/><feBlend mode="normal" in="SourceGraphic" in2="effect1_dropShadow" result="shape"/></filter><filter id="filter11_d" x="68.9162" y="45.9646" width="25.8945" height="11.2708" filterUnits="userSpaceOnUse" color-interpolation-filters="sRGB"><feFlood flood-opacity="0" result="BackgroundImageFix"/><feColorMatrix in="SourceAlpha" type="matrix" values="0 0 0 0 0 0 0 0 0 0 0 0 0 0 0 0 0 0 127 0"/><feOffset dy="1"/><feGaussianBlur stdDeviation="1"/><feColorMatrix type="matrix" values="0 0 0 0 0 0 0 0 0 0 0 0 0 0 0 0 0 0 0.24 0"/><feBlend mode="normal" in2="BackgroundImageFix" result="effect1_dropShadow"/><feBlend mode="normal" in="SourceGraphic" in2="effect1_dropShadow" result="shape"/></filter><filter id="filter12_d" x="67.2495" y="32.0749" width="23.4614" height="13.5825" filterUnits="userSpaceOnUse" color-interpolation-filters="sRGB"><feFlood flood-opacity="0" result="BackgroundImageFix"/><feColorMatrix in="SourceAlpha" type="matrix" values="0 0 0 0 0 0 0 0 0 0 0 0 0 0 0 0 0 0 127 0"/><feOffset dy="1"/><feGaussianBlur stdDeviation="1"/><feColorMatrix type="matrix" values="0 0 0 0 0 0 0 0 0 0 0 0 0 0 0 0 0 0 0.24 0"/><feBlend mode="normal" in2="BackgroundImageFix" result="effect1_dropShadow"/><feBlend mode="normal" in="SourceGraphic" in2="effect1_dropShadow" result="shape"/></filter><filter id="filter13_d" x="66.2129" y="31.0385" width="25.5346" height="15.6556" filterUnits="userSpaceOnUse" color-interpolation-filters="sRGB"><feFlood flood-opacity="0" result="BackgroundImageFix"/><feColorMatrix in="SourceAlpha" type="matrix" values="0 0 0 0 0 0 0 0 0 0 0 0 0 0 0 0 0 0 127 0"/><feOffset dy="1"/><feGaussianBlur stdDeviation="1"/><feColorMatrix type="matrix" values="0 0 0 0 0 0 0 0 0 0 0 0 0 0 0 0 0 0 0.24 0"/><feBlend mode="normal" in2="BackgroundImageFix" result="effect1_dropShadow"/><feBlend mode="normal" in="SourceGraphic" in2="effect1_dropShadow" result="shape"/></filter><filter id="filter14_d" x="11.8346" y="58.0923" width="42.7868" height="40.953" filterUnits="userSpaceOnUse" color-interpolation-filters="sRGB"><feFlood flood-opacity="0" result="BackgroundImageFix"/><feColorMatrix in="SourceAlpha" type="matrix" values="0 0 0 0 0 0 0 0 0 0 0 0 0 0 0 0 0 0 127 0"/><feOffset dy="1"/><feGaussianBlur stdDeviation="1"/><feColorMatrix type="matrix" values="0 0 0 0 0 0 0 0 0 0 0 0 0 0 0 0 0 0 0.24 0"/><feBlend mode="normal" in2="BackgroundImageFix" result="effect1_dropShadow"/><feBlend mode="normal" in="SourceGraphic" in2="effect1_dropShadow" result="shape"/></filter><filter id="filter15_d" x="11.8346" y="58.0923" width="42.7868" height="40.953" filterUnits="userSpaceOnUse" color-interpolation-filters="sRGB"><feFlood flood-opacity="0" result="BackgroundImageFix"/><feColorMatrix in="SourceAlpha" type="matrix" values="0 0 0 0 0 0 0 0 0 0 0 0 0 0 0 0 0 0 127 0"/><feOffset dy="1"/><feGaussianBlur stdDeviation="1"/><feColorMatrix type="matrix" values="0 0 0 0 0 0 0 0 0 0 0 0 0 0 0 0 0 0 0.24 0"/><feBlend mode="normal" in2="BackgroundImageFix" result="effect1_dropShadow"/><feBlend mode="normal" in="SourceGraphic" in2="effect1_dropShadow" result="shape"/></filter><clipPath id="clip0"><rect width="96" height="96" fill="white"/></clipPath></defs></svg>
