<svg width="24" height="24" xmlns="http://www.w3.org/2000/svg">
<path fill-rule="evenodd" clip-rule="evenodd" d="M22 12C22 17.5228 17.5228 22 12 22C6.47715 22 2 17.5228 2 12C2 6.47715 6.47715 2 12 2C17.5228 2 22 6.47715 22 12ZM24 12C24 18.6274 18.6274 24 12 24C5.37258 24 0 18.6274 0 12C0 5.37258 5.37258 0 12 0C18.6274 0 24 5.37258 24 12ZM10.2768 17.2774C10.0889 18.0005 9.6368 18.8752 9.2541 19.5327C9.10921 19.7816 8.88582 20.0571 8.60581 19.9897C8.48557 19.9607 8.38166 19.8695 8.34334 19.666C8.25549 18.872 8.17601 17.6539 8.37848 16.7871C8.56086 16.0032 9.55563 11.7966 9.55563 11.7966C9.55563 11.7966 9.25527 11.1951 9.25527 10.3057C9.25527 8.91022 10.0643 7.86777 11.0716 7.86777C11.9275 7.86777 12.3416 8.51114 12.3416 9.28168C12.3416 9.83156 12.1181 10.5555 11.8826 11.3179C11.7494 11.7492 11.6125 12.1927 11.51 12.624C11.2732 13.623 12.0112 14.4387 12.9967 14.4387C14.7813 14.4387 16.1525 12.5571 16.1525 9.84139C16.1525 7.43774 14.4257 5.75693 11.9593 5.75693C9.10301 5.75693 7.42639 7.89956 7.42639 10.1133C7.42639 10.9759 7.75852 11.902 8.1735 12.404C8.25549 12.5036 8.2672 12.5914 8.24294 12.6926L7.96434 13.8305C7.92 14.0145 7.81877 14.0539 7.62802 13.9652C6.37389 13.3812 5.58997 11.5481 5.58997 10.0756C5.58997 6.90898 7.89072 4 12.2237 4C15.7066 4 18.4131 6.4823 18.4131 9.79873C18.4131 13.2591 16.232 16.0434 13.2034 16.0434C12.186 16.0434 11.2297 15.5155 10.9026 14.8905L10.2768 17.2774Z" fill="#000"/>
</svg>
