<svg width="24" height="24" viewBox="-20 -20 230 230" xmlns="http://www.w3.org/2000/svg"><path fill-rule="evenodd" clip-rule="evenodd" d="M150 32v126h21c2 0 3-1 3-3V35c0-2-1-3-3-3h-21zm-7-16c-5 0-8 3-8 8v142c0 5 3 8 8 8h39c4 0 8-3 8-8V24c0-5-4-8-8-8h-39z" fill="#000"/><path d="M150 55h8a8 8 0 010 16h-8V55zM150 87h8a8 8 0 010 16h-8V87zM150 119h8a8 8 0 010 16h-8v-16z" fill="#000"/><path fill-rule="evenodd" clip-rule="evenodd" d="M16 16v158h119V16H16zM8 0C4 0 0 4 0 8v174c0 4 4 8 8 8h135c4 0 7-4 7-8V8c0-4-3-8-7-8H8z" fill="#000"/><path fill-rule="evenodd" clip-rule="evenodd" d="M87 35c0-2-1-3-3-3H67c-2 0-4 1-4 3v19l-1 1H43c-2 0-3 2-3 4v17c0 2 1 3 3 3h19l1 2v19c0 1 2 3 4 3h17c2 0 3-2 3-3V81l2-2h19c1 0 3-1 3-3V59c0-2-2-4-3-4H89l-2-1V35z" fill="#000"/><path d="M24 127c0-5 3-8 8-8h87a8 8 0 110 16H32c-5 0-8-4-8-8zM24 154c0-4 3-8 8-8h87a8 8 0 110 16H32c-5 0-8-3-8-8z" fill="#000"/></svg>
