<svg width="24" height="24" viewBox="0 0 24 24" fill="none" xmlns="http://www.w3.org/2000/svg"><path d="M6 4C6 3.44772 6.44772 3 7 3H17C17.5523 3 18 3.44772 18 4V20.6263C18 20.786 17.822 20.8813 17.6891 20.7927L15.2219 19.1479C15.0875 19.0583 14.9125 19.0583 14.7781 19.1479L12.1109 20.926C12.0438 20.9708 11.9562 20.9708 11.8891 20.926L9.33282 19.2219C9.13128 19.0875 8.86872 19.0875 8.66718 19.2219L6.31094 20.7927C6.17803 20.8813 6 20.786 6 20.6263V4Z" fill="#156477"/><path d="M7.59961 4.8001C7.59961 4.68964 7.68915 4.6001 7.79961 4.6001H16.1996C16.3101 4.6001 16.3996 4.68964 16.3996 4.8001V17.7169C16.3996 17.796 16.3121 17.8438 16.2455 17.801L15.2199 17.1417C15.0861 17.0557 14.9141 17.0571 14.7817 17.1454L12.1106 18.9261C12.0434 18.9709 11.9559 18.9709 11.8887 18.9261L9.21753 17.1454C9.08518 17.0571 8.91314 17.0557 8.77935 17.1417L7.75368 17.801C7.68713 17.8438 7.59961 17.796 7.59961 17.7169V4.8001Z" fill="#fff"/><rect x="8.2998" y="7" width="7.4" height="1.4" rx="0.7" fill="#156477"/><rect x="8.2998" y="10" width="7.4" height="1.4" rx="0.7" fill="#156477"/><rect x="8.2998" y="13" width="5.55" height="1.4" rx="0.7" fill="#156477"/></svg>
