<svg width="24" height="24" viewBox="0 0 24 24" fill="none" xmlns="http://www.w3.org/2000/svg"><path d="M15 0C12.24 0 10 2.24 10 5C10 7.76 12.24 10 15 10C17.76 10 20 7.76 20 5C20 2.24 17.76 0 15 0ZM15 8.5C12.79 8.5 11.5 7.21 11.5 5C11.5 2.79 12.79 1.5 15 1.5C17 1.5 18.5 2.79 18.5 5C18.5 7.21 17.21 8.5 15 8.5Z" fill="#000"/><path fill-rule="evenodd" clip-rule="evenodd" d="M14.4672 14.0289C14.3563 13.9615 14.0942 13.8603 13.5609 13.8603L10.5278 13.8602L7.91571 11.2469L5.20234 11.2469C4.6429 11.2469 4.1991 10.8052 4.21109 10.2603C4.22307 9.71538 4.68631 9.27365 5.24575 9.27365L7.95911 9.27365C8.49819 9.27365 9.01043 9.48292 9.38246 9.85513L11.4133 11.887L13.6043 11.887C14.3771 11.887 15.0435 12.0305 15.5671 12.3491C16.1119 12.6805 16.4368 13.1635 16.5587 13.693C16.6752 14.1994 16.5969 14.6998 16.4381 15.1108C16.2812 15.517 16.0167 15.911 15.6632 16.1934C15.3657 16.4311 14.9726 16.536 14.7291 16.5924C14.4314 16.6614 14.0822 16.7139 13.7178 16.7551C12.9854 16.838 12.0999 16.8855 11.2505 16.9099C10.3973 16.9343 9.56033 16.936 8.91729 16.9243C8.59668 16.9184 8.31704 16.9091 8.10424 16.8969C7.99924 16.891 7.89971 16.8837 7.81521 16.8745C7.7738 16.87 7.72379 16.8637 7.67273 16.8545C7.67186 16.8544 7.67083 16.8542 7.66966 16.854C7.64041 16.8489 7.5186 16.8274 7.38935 16.7683C6.88711 16.5386 6.67997 15.9518 6.9267 15.4577C7.14359 15.0233 7.63902 14.8051 8.09686 14.9148C8.13202 14.9183 8.18744 14.9226 8.26584 14.927C8.44182 14.9371 8.69229 14.9457 8.99867 14.9513C9.60958 14.9625 10.414 14.961 11.2342 14.9374C12.058 14.9138 12.8777 14.8685 13.5266 14.7951C13.8529 14.7581 14.1134 14.7166 14.3 14.6733C14.3646 14.6583 14.4094 14.6455 14.4383 14.6365C14.4698 14.5978 14.5107 14.5355 14.5434 14.4508C14.5922 14.3246 14.5944 14.2223 14.5809 14.1636C14.5727 14.128 14.557 14.0836 14.4672 14.0289Z" fill="#000"/><path fill-rule="evenodd" clip-rule="evenodd" d="M23.6043 12.6406C23.8926 13.1021 23.8936 13.6045 23.8903 13.868C23.8792 14.7542 23.2952 15.4685 22.9123 15.8608C22.4895 16.2941 22.0579 16.5883 21.9709 16.6462C21.9556 16.6564 21.9428 16.6645 21.9358 16.669L15.4544 20.8115C13.9009 21.8044 11.9346 21.9102 10.318 21.0878L4.73989 18.2503C4.24833 18.0002 4.0666 17.405 4.33397 16.9209C4.60134 16.4368 5.21658 16.247 5.70813 16.497L11.2862 19.3346C12.2562 19.828 13.436 19.7646 14.3681 19.1688L20.8495 15.0263C20.8512 15.0252 20.8523 15.0245 20.8529 15.0241C20.8928 14.9974 21.1842 14.798 21.4577 14.5177C21.5952 14.3768 21.7063 14.2375 21.7793 14.111C21.8533 13.9828 21.8638 13.9105 21.8641 13.8861C21.865 13.8101 21.8627 13.7579 21.86 13.7235C21.828 13.7132 21.7809 13.701 21.7141 13.6893C21.418 13.6376 20.8833 13.6275 19.963 13.7523C19.0562 13.8753 17.8351 14.1203 16.1957 14.5354C15.6514 14.6731 15.1049 14.3575 14.975 13.8303C14.8451 13.3031 15.1811 12.764 15.7254 12.6262C17.4061 12.2007 18.7112 11.9356 19.7258 11.798C20.7269 11.6623 21.5087 11.6412 22.1133 11.7468C22.7412 11.8565 23.2824 12.1252 23.6043 12.6406ZM21.9194 13.749C21.9191 13.7491 21.9161 13.7475 21.9111 13.7437C21.9172 13.7469 21.9197 13.7488 21.9194 13.749Z" fill="#000"/><path fill-rule="evenodd" clip-rule="evenodd" d="M6 8.87354C6 7.76897 5.10457 6.87354 4 6.87354H2C0.895431 6.87354 0 7.76897 0 8.87354V18.8735C0 19.9781 0.89543 20.8735 2 20.8735H4C5.10457 20.8735 6 19.9781 6 18.8735V8.87354ZM2 9.7402C2 9.18792 2.44772 8.7402 3 8.7402V8.7402C3.55228 8.7402 4 9.18792 4 9.7402V18.0069C4 18.5592 3.55228 19.0069 3 19.0069V19.0069C2.44772 19.0069 2 18.5592 2 18.0069V9.7402Z" fill="#000"/></svg>
