<svg width="24" height="24" viewBox="0 0 24 24" fill="none" xmlns="http://www.w3.org/2000/svg"><path fill-rule="evenodd" clip-rule="evenodd" d="M13.13 7.4998C13.13 9.54326 11.4734 11.1998 9.42998 11.1998C7.38653 11.1998 5.72998 9.54326 5.72998 7.4998C5.72998 5.45635 7.38653 3.7998 9.42998 3.7998C11.4734 3.7998 13.13 5.45635 13.13 7.4998ZM15.13 7.4998C15.13 10.6478 12.578 13.1998 9.42998 13.1998C6.28196 13.1998 3.72998 10.6478 3.72998 7.4998C3.72998 4.35178 6.28196 1.7998 9.42998 1.7998C12.578 1.7998 15.13 4.35178 15.13 7.4998ZM16.6595 21.2028C16.7375 21.7495 17.1777 22.1998 17.73 22.1998C18.2823 22.1998 18.7358 21.7504 18.6752 21.2014C18.1785 16.7007 14.3631 13.1998 9.72998 13.1998C8.49563 13.1998 7.31931 13.4483 6.24833 13.898C6.54857 14.2478 6.72998 14.7026 6.72998 15.1998V15.8734C7.63924 15.4415 8.65638 15.1998 9.72998 15.1998C13.2575 15.1998 16.1756 17.809 16.6595 21.2028ZM18.1298 7.4998C18.1298 6.05399 16.9934 4.87359 15.5651 4.80313C15.2595 4.1089 14.8395 3.47638 14.329 2.92942C14.6821 2.84468 15.0507 2.7998 15.4298 2.7998C18.0256 2.7998 20.1298 4.90407 20.1298 7.4998C20.1298 10.0955 18.0256 12.1998 15.4298 12.1998C19.465 12.2493 22.7809 15.2867 23.2681 19.2018C23.3363 19.7498 22.8821 20.1998 22.3298 20.1998C21.7775 20.1998 21.3385 19.7487 21.2475 19.204C20.7957 16.4991 18.5343 14.407 15.7502 14.2143C15.0361 13.6751 14.2474 13.2295 13.4023 12.8957C14.3396 12.2045 15.0904 11.2749 15.5651 10.1965C16.9934 10.126 18.1298 8.94562 18.1298 7.4998Z" fill="#000"/><path fill-rule="evenodd" clip-rule="evenodd" d="M5.72998 15.1997C5.72998 14.6474 5.28227 14.1997 4.72998 14.1997C4.1777 14.1997 3.72998 14.6474 3.72998 15.1997V16.9997C3.72998 17.1102 3.64044 17.1997 3.52998 17.1997H1.72998C1.1777 17.1997 0.72998 17.6474 0.72998 18.1997C0.72998 18.752 1.1777 19.1997 1.72998 19.1997H3.52998C3.64044 19.1997 3.72998 19.2892 3.72998 19.3997V21.1997C3.72998 21.752 4.1777 22.1997 4.72998 22.1997C5.28226 22.1997 5.72998 21.752 5.72998 21.1997V19.3997C5.72998 19.2892 5.81952 19.1997 5.92998 19.1997H7.72998C8.28227 19.1997 8.72998 18.752 8.72998 18.1997C8.72998 17.6474 8.28227 17.1997 7.72998 17.1997H5.92998C5.81952 17.1997 5.72998 17.1102 5.72998 16.9997V15.1997Z" fill="#000"/></svg>
