<svg width="24" height="24" viewBox="0 0 24 24" fill="none" xmlns="http://www.w3.org/2000/svg"><path xmlns="http://www.w3.org/2000/svg" fill-rule="evenodd" clip-rule="evenodd" d="M11.52 0.460539L6.42666 4.28054C6.21333 4.44054 6.21333 4.76054 6.42666 4.92054L11.52 8.74054C11.7178 8.88887 12 8.74775 12 8.50054V4.60054V0.700539C12 0.453325 11.7178 0.31221 11.52 0.460539ZM2 13.6005C2 19.1234 6.47715 23.6005 12 23.6005C17.5228 23.6005 22 19.1234 22 13.6005C22 8.07769 17.5228 3.60054 12 3.60054V5.60054C16.4183 5.60054 20 9.18226 20 13.6005C20 18.0188 16.4183 21.6005 12 21.6005C7.58172 21.6005 4 18.0188 4 13.6005C4 13.0483 3.55228 12.6005 3 12.6005C2.44772 12.6005 2 13.0483 2 13.6005Z" fill="#15768d"/></svg>
