<svg width="24" height="24" viewBox="0 0 24 24" fill="none" xmlns="http://www.w3.org/2000/svg"><path fill-rule="evenodd" clip-rule="evenodd" d="M13.9999 17.0003C13.9999 20.8662 10.8659 24.0002 6.99993 24.0002C3.13397 24.0002 0 20.8662 0 17.0003C0 13.1343 3.13397 10.0004 6.99993 10.0004C10.8659 10.0004 13.9999 13.1343 13.9999 17.0003ZM6.99993 22.0002C9.76132 22.0002 11.9999 19.7617 11.9999 17.0003C11.9999 14.2389 9.76132 12.0003 6.99993 12.0003C4.23853 12.0003 1.99998 14.2389 1.99998 17.0003C1.99998 19.7617 4.23853 22.0002 6.99993 22.0002Z" fill="#555"/><path fill-rule="evenodd" clip-rule="evenodd" d="M6.44384 13.2245C6.99612 13.2245 7.44383 13.6722 7.44383 14.2245L7.44383 17.5578C7.44383 18.1101 6.99612 18.5578 6.44384 18.5578C5.89156 18.5578 5.44385 18.1101 5.44385 17.5578L5.44385 14.2245C5.44385 13.6722 5.89156 13.2245 6.44384 13.2245Z" fill="#555"/><path fill-rule="evenodd" clip-rule="evenodd" d="M10.7773 17.557C10.7773 18.1093 10.3296 18.557 9.77735 18.557L6.44406 18.557C5.89178 18.557 5.44407 18.1093 5.44407 17.557C5.44407 17.0047 5.89178 16.557 6.44406 16.557L9.77735 16.557C10.3296 16.557 10.7773 17.0047 10.7773 17.557Z" fill="#555"/><path fill-rule="evenodd" clip-rule="evenodd" d="M9.49992 1.99998C8.6715 1.99998 7.99994 2.67155 7.99994 3.49996C7.99994 4.32838 8.6715 4.99995 9.49992 4.99995C10.3283 4.99995 10.9999 4.32838 10.9999 3.49996C10.9999 2.67155 10.3283 1.99998 9.49992 1.99998ZM18.663 4.99995C18.879 4.54533 18.9998 4.03676 18.9998 3.49996C18.9998 1.56699 17.4328 0 15.4999 0C14.2267 0 13.1123 0.679785 12.4999 1.69619C11.8875 0.679785 10.7731 0 9.49992 0C7.56695 0 5.99996 1.56699 5.99996 3.49996C5.99996 4.03676 6.1208 4.54533 6.33677 4.99995H3.99998C2.89542 4.99995 2 5.89537 2 6.99993V10.7545C2.60157 10.2723 3.27432 9.87516 3.99998 9.58142V7.99992C3.99998 7.44764 4.44769 6.99993 4.99997 6.99993H9.49992H9.58571L7.56601 9.01962C8.3766 9.07629 9.15389 9.25371 9.88002 9.53401L12.4141 6.99993H12.7133L16.8272 10.7398L18.1725 9.25996L15.6865 6.99993H20.9998C21.5521 6.99993 21.9998 7.44764 21.9998 7.99992V14.9998H14.9999V16.9998H21.9998V17.9998C21.9998 18.5521 21.5521 18.9998 20.9998 18.9998H14.7478C14.5652 19.7093 14.2877 20.3808 13.9296 20.9998H21.9998C23.1044 20.9998 23.9998 20.1044 23.9998 18.9998V6.99993C23.9998 5.89537 23.1044 4.99995 21.9998 4.99995H18.663ZM15.4999 4.99995C16.3283 4.99995 16.9998 4.32838 16.9998 3.49996C16.9998 2.67155 16.3283 1.99998 15.4999 1.99998C14.6714 1.99998 13.9999 2.67155 13.9999 3.49996C13.9999 4.32838 14.6714 4.99995 15.4999 4.99995Z" fill="#555"/></svg>
