<svg width="24" height="24" viewBox="0 0 24 24" fill="none" xmlns="http://www.w3.org/2000/svg"><path fill-rule="evenodd" clip-rule="evenodd" d="M7.90525 4.17358C7.54701 4.17358 7.21614 4.36521 7.03786 4.67595L3.11413 11.5152C2.93709 11.8238 2.93733 12.2032 3.11477 12.5115L7.03765 19.3291C7.21609 19.6392 7.54661 19.8304 7.9044 19.8304H16.0425C16.3988 19.8304 16.7282 19.6408 16.9071 19.3328L20.8688 12.5153C21.049 12.2052 21.0493 11.8224 20.8696 11.512L16.9116 4.67268C16.7328 4.36379 16.4029 4.17358 16.046 4.17358H7.90525ZM18.3504 3.16759C17.9928 2.55017 17.3333 2.17004 16.6198 2.17004H7.3292C6.61298 2.17004 5.95144 2.55302 5.5948 3.17412L1.09372 11.0128C0.739344 11.6299 0.739608 12.3889 1.09442 13.0058L5.59456 20.8302C5.95139 21.4506 6.61255 21.8331 7.32827 21.8331H16.6207C17.3337 21.8331 17.9928 21.4535 18.3507 20.8368L22.8902 13.0123C23.25 12.3921 23.2503 11.6267 22.8909 11.0062L18.3504 3.16759ZM12 15.2C13.7673 15.2 15.2 13.7674 15.2 12C15.2 10.2327 13.7673 8.80005 12 8.80005C10.2326 8.80005 8.79996 10.2327 8.79996 12C8.79996 13.7674 10.2326 15.2 12 15.2Z" fill="#555"/></svg>
