<svg width="24" height="24" viewBox="0 0 24 24" fill="none" xmlns="http://www.w3.org/2000/svg"><path fill-rule="evenodd" clip-rule="evenodd" d="M6 7C4.89543 7 4 7.89543 4 9V19C4 20.1046 4.89543 21 6 21H18C19.1046 21 20 20.1046 20 19V9C20 7.89543 19.1046 7 18 7H6ZM6.6 9C6.26863 9 6 9.26863 6 9.6V18.4C6 18.7314 6.26863 19 6.6 19H17.4C17.7314 19 18 18.7314 18 18.4V9.6C18 9.26863 17.7314 9 17.4 9H6.6Z" fill="#156477"/><path fill-rule="evenodd" clip-rule="evenodd" d="M8 7C8 4.79086 9.79086 3 12 3C14.2091 3 16 4.79086 16 7H14C14 5.89543 13.1046 5 12 5C10.8954 5 10 5.89543 10 7H8Z" fill="#156477"/><path d="M14 7H16V10C16 10.5523 15.5523 11 15 11C14.4477 11 14 10.5523 14 10V7Z" fill="#156477"/><path d="M8 7H10V10C10 10.5523 9.55228 11 9 11C8.44772 11 8 10.5523 8 10V7Z" fill="#156477"/><rect x="4" y="15" width="4" height="2" rx="1" fill="#156477"/><rect x="16" y="15" width="4" height="2" rx="1" fill="#156477"/></svg>
