<svg width="24" height="24" viewBox="0 0 24 24" fill="none" xmlns="http://www.w3.org/2000/svg"><path fill-rule="evenodd" clip-rule="evenodd" d="M17.0551 7.5C17.0551 9.70914 15.2643 11.5 13.0551 11.5C10.846 11.5 9.05511 9.70914 9.05511 7.5C9.05511 5.29086 10.846 3.5 13.0551 3.5C15.2643 3.5 17.0551 5.29086 17.0551 7.5ZM19.0551 7.5C19.0551 10.8137 16.3688 13.5 13.0551 13.5C9.74141 13.5 7.05511 10.8137 7.05511 7.5C7.05511 4.18629 9.74141 1.5 13.0551 1.5C16.3688 1.5 19.0551 4.18629 19.0551 7.5ZM20.918 21.5651C21.0189 22.0859 21.4511 22.5 21.9816 22.5C22.5583 22.5 23.0222 22.0146 22.9286 21.4456C22.1868 16.9383 18.2725 13.5 13.5551 13.5C11.0718 13.5 8.81111 14.4528 7.11854 16.0128C7.07792 16.0502 7.05515 16.1031 7.05515 16.1583V16.3C7.05515 16.4105 7.14469 16.5 7.25515 16.5H8.05515C8.44007 16.5 8.79959 16.6087 9.10467 16.7972C9.17742 16.8421 9.27024 16.8431 9.34094 16.795C10.542 15.9777 11.9928 15.5 13.5551 15.5C17.2065 15.5 20.2485 18.1093 20.918 21.5651ZM4.05518 15.5C4.05518 14.9477 4.50289 14.5 5.05518 14.5C5.60746 14.5 6.05518 14.9477 6.05518 15.5V17.5H8.05518C8.60746 17.5 9.05518 17.9477 9.05518 18.5C9.05518 19.0523 8.60746 19.5 8.05518 19.5H6.05518V21.5C6.05518 22.0523 5.60746 22.5 5.05518 22.5C4.50289 22.5 4.05518 22.0523 4.05518 21.5V19.5H2.05518C1.50289 19.5 1.05518 19.0523 1.05518 18.5C1.05518 17.9477 1.50289 17.5 2.05518 17.5H4.05518V15.5Z" fill="#156477"/></svg>
