<svg width="18" height="29" xmlns="http://www.w3.org/2000/svg"><svg width="18" height="14" xmlns="http://www.w3.org/2000/svg"><path d="M18 7c-4 8-14 8-18 0 4-8 14-8 18 0zm-9 4.91c2.631 0 4.765-2.199 4.765-4.91 0-2.711-2.134-4.91-4.765-4.91S4.235 4.29 4.235 7c0 2.711 2.134 4.91 4.765 4.91zm0-1.092c-2.047 0-3.706-1.71-3.706-3.818 0-2.109 1.66-3.818 3.706-3.818 2.047 0 3.706 1.71 3.706 3.818 0 2.109-1.66 3.818-3.706 3.818z" fill="#666"/></svg><svg width="18" height="14" y="15" xmlns="http://www.w3.org/2000/svg"><g fill="none" fill-rule="evenodd"><path d="M6.313 12.6l.98-1.015A4.63 4.63 0 009 11.909c2.631 0 4.765-2.198 4.765-4.909 0-.629-.115-1.23-.324-1.782l1.785-1.848c1.08.934 2.03 2.144 2.774 3.63-2.517 5.033-7.409 6.9-11.687 5.6zm-3.604-2.026C1.655 9.648.729 8.456 0 7 2.498 2.003 7.338.127 11.594 1.373l-.975 1.009A4.63 4.63 0 009 2.09C6.369 2.09 4.235 4.289 4.235 7c0 .595.103 1.164.29 1.692L2.71 10.574zm5.425.14L12.6 6.088c.07.292.106.597.106.911 0 2.109-1.66 3.818-3.706 3.818a3.59 3.59 0 01-.866-.105zM5.378 7.81A3.945 3.945 0 015.294 7c0-2.109 1.66-3.818 3.706-3.818.263 0 .52.028.768.082L5.378 7.81z" fill="#666" fill-rule="nonzero"/><path d="M14.354.173L15.74 1.72 4.2 13.718l-1.386-1.546z" fill="#898989"/></g></svg></svg>