<svg width="24" height="24" viewBox="0 0 24 24" fill="none" xmlns="http://www.w3.org/2000/svg"><path fill-rule="evenodd" clip-rule="evenodd" d="M12 21C16.9706 21 21 16.9706 21 12C21 7.02944 16.9706 3 12 3C7.02944 3 3 7.02944 3 12C3 16.9706 7.02944 21 12 21ZM12 23C18.0751 23 23 18.0751 23 12C23 5.92487 18.0751 1 12 1C5.92487 1 1 5.92487 1 12C1 18.0751 5.92487 23 12 23Z" fill="#156477"/><path d="M13.9869 10.3104L12.1708 12.1273C11.7321 12.565 11.3759 12.6475 11.1022 12.3748C10.8136 12.0861 10.8857 11.7227 11.3187 11.2845L12.445 10.1589C12.8452 9.74426 12.8375 9.32048 12.4219 8.88756C11.9996 8.46618 11.5748 8.4693 11.1477 8.89694L10.0249 10.0146C8.74205 11.2975 8.6699 12.4989 9.80849 13.6187C10.9601 14.777 12.1787 14.7073 13.4645 13.4094L15.2806 11.5941C15.7078 11.1775 16.0626 11.1104 16.3449 11.3927C16.6306 11.6891 16.5609 12.0498 16.1357 12.4751L13.08 15.5257L12.8115 15.7884C12.3829 16.2179 11.9541 16.2179 11.525 15.7884L8.22398 12.4895C7.78096 12.0465 7.76581 11.6217 8.17853 11.2152L10.8692 8.52679C10.8742 8.52101 10.8778 8.51596 10.8829 8.51091L11.1715 8.2223C11.614 7.78023 12.038 7.7646 12.4436 8.1754L13.4104 9.14298C13.8433 9.56003 14.2662 9.5658 14.6789 9.1603C15.0983 8.73796 15.087 8.31032 14.645 7.8774L13.7113 6.9394C12.4515 5.67959 11.1859 5.68464 9.92754 6.96826L9.71108 7.18472C9.67284 7.21719 9.63893 7.2511 9.59635 7.29007L6.94181 9.94605C5.68056 11.2073 5.68609 12.4741 6.9584 13.7464L10.2356 17.0222C11.5243 18.3118 12.799 18.3258 14.0598 17.064L14.1471 16.9782C14.1767 16.9522 13.8138 17.3166 13.8441 17.287L17.4077 13.7313C18.6733 12.4609 18.7404 11.2537 17.6091 10.1098C16.4916 8.98617 15.2843 9.05303 13.9869 10.3104Z" fill="#156477"/></svg>
