<svg xmlns="http://www.w3.org/2000/svg" xmlns:xlink="http://www.w3.org/1999/xlink" width="63" height="14" viewBox="0 0 63 14"><defs><path id="c3lqa" d="M1141.7 265.85l-.09.1c-1.35 1.42-2.7 1.4-4.09-.05l-3.5-3.69c-1.36-1.43-1.36-2.85-.01-4.27l2.84-3a2 2 0 0 1 .12-.11l.23-.24c1.34-1.44 2.7-1.45 4.04-.03l1 1.05c.47.49.48.97.03 1.44-.44.46-.89.45-1.35-.02l-1.04-1.08c-.43-.47-.88-.45-1.36.05l-.3.32-.02.02-2.87 3.03c-.44.45-.43.93.05 1.43l3.52 3.71c.46.49.92.49 1.38 0l.28-.3 3.27-3.43c.45-.47.53-.88.22-1.21-.3-.32-.68-.25-1.14.22l-1.94 2.05c-1.37 1.45-2.67 1.53-3.9.23-1.22-1.26-1.14-2.61.23-4.05l1.2-1.26c.46-.48.91-.49 1.36-.01.45.48.45.96.03 1.43l-1.2 1.26c-.47.5-.55.9-.24 1.23.3.3.67.22 1.14-.28l1.94-2.04c1.39-1.42 2.68-1.5 3.87-.23 1.21 1.29 1.14 2.65-.21 4.08l-3.8 3.99.31-.34zm-.31.34c-.01 0-.01.01 0 0zm9.73-7.2c-.67 0-.84 0-.87.17-.02.16.1.23.48.36l.76.26c.18.06.45.2.61.3 0 0 .84.53.74 1.34-.14 1.26-.96 1.47-2.34 1.47-.72 0-1.34-.04-2.24-.2l.1-.73a.4.4 0 0 1 .38-.35h1.2c1.02 0 1.23-.04 1.26-.23.02-.16-.2-.24-.2-.24l-.65-.22-.73-.27c-.84-.3-1.1-.86-1-1.63.12-.88.66-1.32 2.2-1.32.72.01 1.72.1 2.27.22l-.1.73a.4.4 0 0 1-.4.35l-1.47-.01zm9.34 2.72c-.33.75-.7 1.07-1.76 1.07h-.38c-.18 0-.47-.06-.65-.13 0 0-.17-.08-.17-.35l-.07-3.02c0-.2-.04-.35-.07-.35-.04 0-.08.15-.1.35 0 0-.07.54-.17 1.1-.09.43-.19.83-.3 1.16-.34 1.16-.92 1.24-1.74 1.24h-.57c-.18 0-.47-.06-.64-.14 0 0-.17-.07-.18-.34l-.32-4.11c-.01-.2.13-.36.31-.36h1.07c.19 0 .35.16.35.36l.08 3.07c.01.2.05.36.09.36.19 0 .3-.18.42-.59.09-.26.17-.6.24-1.01.09-.48.14-.95.26-1.73.02-.2.17-.45.5-.45h1.14c.18 0 .48.06.65.14 0 0 .13.05.14.31l.12 2.97c0 .2.03.36.05.36.02 0 .15-.11.28-.25 0 0 .03-.03.12-.4a14.25 14.25 0 0 0 .57-3.13h1.38c.19 0 .31.16.28.35 0 0-.2 1.2-.39 1.9-.16.61-.34 1.19-.54 1.62zm3.54-2.77c-.61 0-.9.12-1.04 1.23-.16 1.13-.14 1.34.26 1.32.36-.02.76-.38 1.11-.87l.18-1.32c.03-.2-.1-.36-.29-.36zm.76 3.84a.35.35 0 0 1-.34-.35v-.23c0-.2-.11-.25-.25-.11 0 0-.8.77-1.62.81-1.28.07-1.6-.9-1.34-2.7.34-2.33 1.32-2.5 2.88-2.5.67 0 1.86.17 2.3.31l-.6 4.42a.4.4 0 0 1-.38.35zm4.38-3.84c-.77 0-.9.22-1.05 1.22-.17 1.12-.1 1.37.28 1.32.38-.05.78-.38 1.13-.86l.18-1.32c.03-.2-.1-.36-.29-.36zm-1.09 5.89c-.32 0-1.32-.03-1.93-.31l.06-.66c.02-.2.18-.35.37-.35h.92c.87 0 1.54-.17 1.82-.75.17-.36.18-.74.38-1.09a2.38 2.38 0 0 1-1.99 1.17c-1.24.05-1.6-.88-1.34-2.64.34-2.34 1.18-2.5 2.46-2.5 1.13 0 2.42.25 2.42.25.18.03.3.22.28.41l-.5 3.74c-.26 2.25-1.47 2.73-2.95 2.73zm5.69-5.4a.9.9 0 0 0-.33.54l-.24 1.66c.23.02.44.03.59.02.67-.02.87-.26 1.04-1.43.13-.9.06-1.09-.29-1.09-.34 0-.77.3-.77.3zm-2.4 3.07l.83-6.32a.4.4 0 0 1 .39-.35h1.04c.18 0 .32.15.3.35l-.14 1.09c-.04.43-.13.83-.29 1.26a2.53 2.53 0 0 1 1.75-.82c1.13 0 1.58.77 1.32 2.64-.22 1.56-.8 2.55-2.61 2.55-.71 0-2.03-.14-2.6-.4zm9.68.28h-.67a.35.35 0 0 1-.34-.35v-.18c0-.2-.12-.26-.27-.14 0 0-1.05.8-1.7.8-.95 0-1.39-.52-1.27-1.4l.44-3.32a.4.4 0 0 1 .38-.35h1.06c.18 0 .31.16.29.35l-.34 2.46c-.03.2-.02.5.01.7 0 0 0 .05.22.05.34 0 .61-.16 1.07-.55l.36-2.66a.4.4 0 0 1 .39-.35h1.02c.19 0 .32.16.3.35l-.56 4.24a.4.4 0 0 1-.39.35zm4.07-3.62c-.19 0-.49.03-.67.08 0 0-.6.16-.72 1.06-.12.98.04 1.16.72 1.16.36 0 1.2-.06 1.2-.06.18-.01.35.14.37.33l.08.81a4.9 4.9 0 0 1-1.97.36c-1.65 0-2.44-.76-2.19-2.66.24-1.8.9-2.54 2.62-2.54.65 0 1.45.11 2 .36l-.17.76a.45.45 0 0 1-.4.34zm10.42-.16l-1.47-.01c-.68 0-.85 0-.88.17-.02.16.1.23.48.36l.77.26c.17.06.45.2.6.3 0 0 .84.53.74 1.34-.14 1.26-.96 1.47-2.33 1.47-.53 0-1.6-.08-2.5-.11h-.95a.56.56 0 0 1-.47-.32l-.53-1.27a.35.35 0 0 0-.45-.2l-.3.11-.05.5-.11.83a.4.4 0 0 1-.39.35h-1.04c-.19 0-.32-.16-.3-.35l.84-6.25c.03-.2.2-.35.38-.35h1.05c.18 0 .31.15.29.35l-.28 2.13c-.02.19-.08.5-.12.7 0 0-.11.45-.3.87a5.58 5.58 0 0 0 1.53-1.73c.1-.17.33-.3.51-.3h1.42a3.87 3.87 0 0 1-1.57 2.34c.21.18.36.41.46.64l.34.78h1.97c1.03 0 1.23-.04 1.26-.23.02-.16-.2-.24-.2-.24a50 50 0 0 1-.64-.22l-.73-.27c-.84-.3-1.1-.86-1-1.63.11-.88.65-1.32 2.19-1.32.72.01 1.72.1 2.27.22l-.1.73a.4.4 0 0 1-.39.35z" /></defs><g><g transform="translate(-1133 -253)"><use fill="#fff" xlink:href="#c3lqa" /></g></g></svg>
