<svg viewBox="0 0 519 519" xmlns="http://www.w3.org/2000/svg" height="519" width="519"><defs><linearGradient x1="56.576%" y1="55.078%" x2="26.83%" y2="32.092%" id="a"><stop stop-color="#6cb8d6" offset="0%"/><stop stop-color="#69b2cc" offset="53.81%"/><stop stop-color="#64abc0" offset="100%"/></linearGradient><linearGradient x1="62.551%" y1="63.232%" x2="42.524%" y2="46.322%" id="b"><stop stop-color="#6cb8d6" offset="0%"/><stop stop-color="#64b4d0" offset="46.58%"/><stop stop-color="#52acc5" offset="100%"/></linearGradient><linearGradient x1="78.632%" y1="76.405%" x2="18.573%" y2="22.497%" id="c"><stop stop-color="#fff" offset="0%"/><stop stop-color="#f6f7f8" offset="44.08%"/><stop stop-color="#e9e9e9" offset="100%"/></linearGradient></defs><g fill="none" fill-rule="evenodd"><circle fill="#82c9e0" cx="261.8" cy="261.9" r="257"/><circle fill="url(#a)" cx="257.9" cy="257.4" r="257"/><g fill="url(#b)"><path d="M297.6 168.5l41.2 38 43.4-32.1-46.5-45.3-38.1 39.4M266.9 160.7l54.9 52.3-80.9 87.4-60-54.8 86-84.9"/><path d="M200.2 322.5l71.5 67.5 150.6-147-40.1-36.5-182 116"/><path d="M427.9 198.6c35.4 35.8 33.3 73.5-6.1 112.9L311 421.9c-1.2.8 10.2-10.6 9.3-9.8l-2.8 2.8c-36.6 36.6-73.1 38.8-110.2 6.8l91.1 89.3c114.7-18.1 204.2-112.4 215.3-229.5l-85.8-82.9"/></g><path d="M317.2 207.3l-56.4 56.4c-13.8 13.8-24.7 16.3-33.3 7.7-8.8-8.8-6.9-20.3 6.9-34l35-35c12.6-13 12.2-26-.8-39.4-13-13-26.4-13-39.7.4l-35 35c-39.7 39.7-42.3 77.1-6.9 112.1 35.8 36.2 74 33.6 113.6-6.5l56.4-56.4c13.4-13 24.3-14.9 33.3-6.1 8.8 9.3 6.9 20.3-6.5 33.6l-94.6 94.6-8.4 8c-13.4 13.4-26.8 13.4-40.1 0L138 275.1c-13.8-13.8-14.2-26.8-1.2-39.7l83.6-83.6.4-.4 8.8-8.8c13.8-13.8 26.8-14.2 39.7-1.5l30.1 30.1c13.4 13 26.8 13 39.4.4 13-13 12.6-26.4-1.2-39.7l-29.3-29.3c-39.4-39.4-78.7-39-117.8.8l-6.5 6.5c-1.2.8-2.4 1.9-3.7 3.3l-82.4 83.2c-39.4 39.4-39 78.7.4 118.2l101.9 101.9c40.1 40.1 79.6 40.5 119 1.2l2.8-2.8c.8-.8-10.6 10.6-9.3 9.8l110.9-110.3c39.4-39.4 41.5-77.1 6.1-112.9-34.5-35.2-72.3-33.2-112.5 5.8" fill="#cedbdd"/><path d="M317.2 207.3l-56.4 56.4c-13.8 13.8-24.7 16.3-33.3 7.7-8.8-8.8-6.9-20.3 6.9-34l35-35c12.6-13 12.2-26-.8-39.4-13-13-26.4-13-39.7.4l-35 35c-39.7 39.7-42.3 77.1-6.9 112.1 35.8 36.2 74 33.6 113.6-6.5l56.4-56.4c13.4-13 24.3-14.9 33.3-6.1 8.8 9.3 6.9 20.3-6.5 33.6l-94.6 94.6-8.4 8c-13.4 13.4-26.8 13.4-40.1 0L138 275.1c-13.8-13.8-14.2-26.8-1.2-39.7l83.6-83.6.4-.4 8.8-8.8c13.8-13.8 26.8-14.2 39.7-1.5l30.1 30.1c13.4 13 26.8 13 39.4.4 13-13 12.6-26.4-1.2-39.7l-29.3-29.3c-39.4-39.4-78.7-39-117.8.8l-6.5 6.5c-1.2.8-2.4 1.9-3.7 3.3l-82.4 83.2c-39.4 39.4-39 78.7.4 118.2l101.9 101.9c40.1 40.1 79.6 40.5 119 1.2l2.8-2.8c.8-.8-10.6 10.6-9.3 9.8l110.9-110.3c39.4-39.4 41.5-77.1 6.1-112.9-34.5-35.2-72.3-33.2-112.5 5.8" fill="#fff"/><path d="M315.4 205.1L259 261.5c-13.8 13.8-24.7 16.3-33.3 7.7-8.8-8.8-6.9-20.3 6.9-34l35-35c12.6-13 12.2-26-.8-39.4-13-13-26.4-13-39.7.4l-35 35c-39.7 39.7-42.3 77.1-6.9 112.1 35.8 36.2 74 33.6 113.6-6.5l56.4-56.4c13.4-13 24.3-14.9 33.3-6.1 8.8 9.3 6.9 20.3-6.5 33.6l-94.6 94.6-8.4 8c-13.4 13.4-26.8 13.4-40.1 0L136.1 272.7c-13.8-13.8-14.2-26.8-1.2-39.7l83.6-83.6.4-.4 8.8-8.8c13.8-13.8 26.8-14.2 39.7-1.5l30.1 30.1c13.4 13 26.8 13 39.4.4 13-13 12.6-26.4-1.2-39.7l-29.3-29.3c-39.4-39.4-78.7-39-117.8.8l-6.5 6.5c-1.2.8-2.4 1.9-3.7 3.3L96 194.1c-39.4 39.4-39 78.7.4 118.2l101.9 101.9c40.1 40.1 79.6 40.5 119 1.2l2.8-2.8c.8-.8-10.6 10.6-9.3 9.8l110.9-110.3c39.4-39.4 41.5-77.1 6.1-112.9-34.3-35.3-72-33.2-112.4 5.9" fill="url(#c)"/></g></svg>