<?xml version="1.0" standalone="no"?>
<!DOCTYPE svg PUBLIC "-//W3C//DTD SVG 20010904//EN"
 "http://www.w3.org/TR/2001/REC-SVG-20010904/DTD/svg10.dtd">
<svg version="1.0" xmlns="http://www.w3.org/2000/svg"
 width="554.000000pt" height="554.000000pt" viewBox="0 0 554.000000 554.000000"
 preserveAspectRatio="xMidYMid meet">
<metadata>
Created by potrace 1.16, written by Peter Selinger 2001-2019
</metadata>
<g transform="translate(0.000000,554.000000) scale(0.100000,-0.100000)"
fill="#000000" stroke="none">
<path d="M3632 4279 c-29 -4 -56 -10 -60 -14 -4 -4 7 -5 23 -2 61 11 131 16
105 7 -14 -4 -39 -8 -57 -9 -37 -1 -83 -20 -83 -33 0 -5 -10 -8 -22 -6 -13 2
-22 9 -20 16 2 14 -5 14 -33 2 l-20 -9 20 -1 c44 -2 -16 -22 -70 -23 -31 -1
-51 -5 -48 -11 4 -5 -4 -7 -18 -3 l-24 6 25 -20 c16 -13 36 -18 58 -16 17 2
32 -1 32 -5 0 -4 7 -8 15 -8 8 0 15 4 15 8 0 4 12 9 26 10 21 2 25 -2 22 -21
-3 -21 -7 -22 -78 -20 -101 2 -109 4 -116 25 -6 19 -23 22 -61 12 -36 -10 -17
-35 24 -30 23 3 33 1 30 -7 -6 -19 -58 -16 -76 4 -19 23 -31 24 -31 4 0 -9 -6
-12 -17 -8 -11 4 -14 3 -9 -6 6 -8 1 -10 -16 -6 -15 3 -40 -5 -73 -25 -51 -30
-50 -39 2 -19 26 10 27 9 11 -7 -9 -10 -33 -18 -52 -18 -19 -1 -32 -4 -30 -7
2 -4 -15 -10 -38 -13 l-42 -7 31 -29 c18 -17 41 -30 52 -30 27 0 27 -17 1 -25
-13 -4 -31 3 -54 20 -28 21 -38 24 -55 16 -33 -18 -38 -12 -6 9 42 28 18 25
-27 -4 -21 -12 -35 -26 -31 -29 3 -4 -1 -7 -10 -7 -9 0 -18 -4 -21 -9 -3 -4 7
-6 22 -3 20 3 24 2 16 -7 -15 -17 -73 -31 -79 -20 -4 5 -11 9 -16 9 -6 0 -7
-4 -4 -10 3 -5 -1 -10 -9 -10 -8 0 -21 -8 -28 -19 -7 -10 -22 -21 -33 -25 -11
-3 -31 -16 -45 -27 -14 -11 -20 -18 -14 -15 19 10 22 -29 5 -51 -11 -13 -28
-20 -49 -19 -33 1 -42 10 -19 19 9 4 9 6 0 6 -16 1 -24 -14 -17 -33 5 -13 9
-14 20 -5 8 7 17 9 21 5 12 -11 -7 -20 -48 -22 -36 -2 -38 -1 -22 12 10 7 14
13 8 13 -14 0 -41 -22 -40 -34 0 -23 45 -58 75 -59 21 -1 30 -5 28 -16 -5 -23
-31 -23 -55 0 -22 20 -53 27 -53 12 0 -5 -15 -8 -34 -8 -19 0 -32 3 -29 6 2 3
15 5 26 5 15 0 23 7 25 23 2 12 -1 22 -7 22 -6 0 -7 -8 -4 -17 5 -13 2 -15
-11 -10 -18 7 -76 -29 -76 -47 0 -6 5 -4 10 4 5 8 10 10 10 4 0 -12 -32 -44
-45 -44 -4 0 -1 8 6 18 13 15 12 16 -4 3 -10 -8 -15 -21 -13 -28 5 -11 0 -13
-16 -8 -18 6 -19 5 -7 -8 10 -10 19 -12 31 -6 21 11 31 12 24 1 -3 -5 2 -21
10 -37 8 -16 13 -33 11 -39 -2 -6 -9 -1 -16 12 -11 20 -15 21 -29 10 -12 -10
-14 -10 -8 0 4 6 3 12 -3 12 -5 0 -13 9 -16 20 -3 11 -13 20 -21 20 -8 0 -12
-5 -9 -11 4 -6 -3 -21 -16 -35 -21 -23 -15 -36 8 -13 7 7 12 5 15 -9 5 -17 2
-19 -21 -12 -14 4 -33 11 -42 14 -9 4 -22 0 -30 -10 -13 -16 -12 -16 11 -4
l25 13 -20 -22 c-15 -18 -16 -24 -6 -30 10 -7 10 -10 1 -16 -9 -6 -9 -10 1
-17 11 -8 11 -9 -1 -5 -8 2 -15 10 -16 18 -2 33 -5 39 -15 39 -6 0 -8 -7 -5
-16 3 -9 2 -12 -5 -9 -12 8 -41 -14 -33 -26 3 -5 -3 -9 -13 -9 -15 0 -16 -2
-3 -10 14 -9 7 -14 -14 -11 -12 2 -36 -19 -36 -32 0 -7 4 -7 12 1 17 17 28 15
28 -5 0 -28 -45 -64 -85 -67 -19 -2 -39 -7 -43 -11 -4 -5 -1 -4 7 0 11 6 13 4
8 -7 -4 -11 -1 -14 12 -11 37 10 51 -47 14 -61 -21 -9 -30 -1 -36 34 -7 32
-27 42 -27 13 0 -10 -5 -25 -11 -33 -9 -13 -10 -12 -5 3 8 25 -2 21 -32 -14
-41 -48 -44 -56 -26 -74 9 -9 13 -19 9 -23 -3 -4 -11 1 -16 11 -12 20 -34 23
-26 3 3 -8 -2 -16 -14 -19 -14 -4 -17 -10 -13 -24 6 -14 4 -16 -6 -6 -10 9
-10 15 -2 26 9 11 4 30 -24 88 -45 91 -99 255 -115 344 -18 106 -8 229 25 300
15 33 37 71 49 84 31 34 131 79 192 86 68 9 189 -10 292 -45 46 -16 83 -26 83
-24 0 10 -170 114 -266 162 -234 120 -441 165 -581 128 -130 -35 -212 -132
-231 -272 -14 -111 12 -287 65 -434 51 -142 202 -420 304 -561 27 -37 49 -72
49 -78 0 -14 17 -14 25 -1 9 15 35 12 29 -3 -3 -9 3 -13 18 -13 16 1 23 -4 22
-16 -1 -10 2 -18 7 -18 20 0 7 -18 -15 -22 -32 -6 -48 4 -40 25 4 11 0 19 -12
23 -11 3 -26 9 -34 13 -20 11 -51 -39 -43 -69 5 -19 3 -21 -16 -15 -15 5 -21
2 -21 -9 0 -9 -5 -16 -11 -16 -7 0 -9 -8 -4 -22 3 -13 7 -29 7 -36 1 -7 7 -11
15 -8 9 4 13 -4 13 -24 0 -17 5 -30 10 -30 6 0 10 6 10 14 0 16 43 30 48 16 2
-5 17 6 33 25 17 19 28 39 24 45 -3 6 0 7 9 4 21 -8 20 0 -1 22 -16 16 -16 16
7 9 14 -4 22 -4 18 0 -4 4 4 17 18 27 19 15 22 23 14 33 -9 11 -7 12 9 8 27
-7 27 -9 -9 -50 l-31 -35 73 -81 c120 -135 317 -327 421 -411 117 -94 285
-211 350 -246 50 -26 60 -48 27 -57 -17 -5 -18 -8 -8 -21 11 -13 10 -14 -8 -4
-16 8 -25 8 -40 -2 -127 -89 -416 -196 -584 -217 -103 -12 -175 -2 -254 35
-70 33 -102 64 -131 129 -53 115 -43 266 30 462 5 11 -4 3 -19 -18 -14 -21
-26 -41 -26 -44 0 -4 -6 -14 -14 -22 -35 -39 -86 -144 -80 -166 3 -12 1 -26
-4 -29 -6 -4 -8 2 -5 14 3 11 3 20 -1 20 -10 0 -68 -129 -70 -155 0 -13 -3
-22 -6 -20 -10 6 -53 -162 -45 -175 5 -8 4 -11 -3 -6 -16 10 -26 -130 -13
-187 13 -56 37 -117 46 -117 6 0 1 22 -13 59 -3 9 -1 12 6 7 7 -4 12 -17 12
-29 0 -18 2 -20 11 -7 9 12 10 11 4 -5 -12 -32 -11 -50 2 -48 6 1 17 -5 25
-15 12 -15 11 -16 -4 -3 -12 9 -18 10 -18 2 0 -20 93 -79 152 -95 65 -18 179
-21 259 -6 83 15 239 62 239 72 0 5 5 6 10 3 23 -14 406 188 394 207 -4 7 -2
8 4 4 16 -9 95 42 86 56 -4 7 -3 8 4 4 6 -4 24 0 39 8 52 29 178 133 178 147
0 8 8 14 17 14 9 0 33 15 53 32 l36 33 86 -25 c131 -38 154 -32 61 15 -42 22
-79 44 -82 49 -3 5 37 51 90 102 141 138 329 352 286 325 -4 -2 -8 4 -8 15 0
18 2 18 11 5 9 -12 14 -13 23 -4 14 14 16 32 4 24 -10 -6 -8 51 2 61 3 4 5 -4
4 -17 -5 -37 17 -34 44 7 17 24 25 49 24 70 -2 23 1 30 11 26 10 -4 11 -9 2
-19 -7 -8 -10 -17 -7 -20 10 -9 80 98 74 113 -3 7 -2 12 3 8 5 -3 19 11 31 31
l22 35 -20 42 c-11 23 -22 49 -25 57 -3 11 -7 8 -17 -10 -7 -14 -35 -51 -63
-83 -27 -32 -47 -60 -45 -63 3 -2 11 2 18 11 7 8 17 15 23 15 6 0 0 -8 -13
-17 -14 -10 -29 -17 -33 -15 -13 4 -57 -52 -52 -66 3 -7 1 -11 -4 -8 -4 3 -60
-47 -124 -111 -81 -81 -113 -119 -104 -125 9 -6 9 -8 -1 -8 -7 0 -10 -5 -6
-12 4 -7 3 -8 -5 -4 -6 4 -9 12 -6 17 14 22 -14 5 -60 -37 -79 -71 -264 -213
-279 -214 -5 0 -52 34 -105 76 -127 102 -406 382 -513 517 -126 158 -209 283
-201 303 4 12 3 15 -5 10 -7 -4 -12 -2 -12 3 0 6 10 10 23 8 17 -2 22 3 20 21
-2 12 2 22 7 22 6 0 10 -5 10 -11 0 -8 4 -8 14 1 8 6 12 18 9 26 -3 8 0 15 6
15 6 1 16 3 21 4 6 1 13 3 18 4 4 1 0 6 -8 12 -12 8 -10 9 8 4 25 -7 27 -3 11
26 -13 25 -51 41 -61 25 -6 -8 -8 -8 -8 1 0 6 4 14 10 18 5 3 6 13 3 21 -3 9
-8 11 -12 6 -9 -15 -88 -25 -96 -12 -3 5 -2 10 4 10 6 0 8 6 5 14 -7 19 16 32
27 15 7 -11 12 -9 25 9 l16 23 19 -22 c10 -12 19 -25 19 -29 0 -4 14 -13 31
-21 28 -11 33 -10 44 5 8 10 30 19 55 21 38 3 40 2 24 -10 -11 -7 -20 -9 -22
-4 -5 12 -22 12 -22 0 0 -17 28 -19 49 -4 17 11 19 18 11 28 -6 8 -18 11 -26
8 -23 -9 -16 18 12 43 29 28 34 29 34 9 0 -8 -4 -15 -10 -15 -5 0 -10 -5 -10
-11 0 -8 4 -8 13 -2 6 6 20 13 31 17 13 4 17 2 13 -8 -4 -10 -1 -13 9 -9 8 3
13 12 12 21 -2 8 4 17 12 19 13 4 13 3 0 -6 -9 -7 -10 -11 -3 -11 21 0 25 21
8 40 -29 32 -3 67 27 37 7 -8 20 -12 28 -10 10 3 8 -1 -4 -11 -11 -9 -17 -18
-14 -21 3 -3 22 10 42 29 20 19 44 37 54 41 14 5 14 7 2 15 -13 8 -12 10 2 10
9 0 20 5 23 10 3 6 -4 10 -15 10 -13 0 -24 -8 -27 -20 -3 -11 -13 -20 -23 -20
-10 0 -23 -7 -30 -15 -15 -19 -30 -19 -30 -2 0 8 10 19 23 25 l22 11 -23 7
c-12 3 -22 13 -22 20 0 18 6 18 40 -3 26 -15 29 -15 45 0 15 16 14 17 -17 18
-32 2 -32 2 -4 6 16 3 40 -1 53 -8 26 -14 53 -5 61 21 3 7 0 10 -7 6 -16 -10
-14 7 4 30 9 12 14 14 15 6 0 -8 8 -12 18 -10 9 2 22 -2 28 -10 8 -12 12 -11
25 4 13 16 12 17 -6 11 -20 -7 -20 -7 -1 8 11 8 27 16 35 17 32 3 36 4 49 11
7 5 10 13 7 18 -4 5 2 6 12 2 10 -3 15 -3 11 2 -4 4 -3 14 3 22 14 16 33 18
23 1 -4 -6 -3 -8 3 -5 6 4 23 11 38 17 15 6 25 13 22 16 -3 3 -15 1 -26 -6
-12 -6 -21 -8 -21 -6 0 10 59 36 79 36 27 0 131 51 125 62 -3 4 0 9 5 9 6 1
16 2 23 3 15 1 23 26 9 26 -6 0 -11 4 -11 9 0 5 16 4 36 -2 22 -7 38 -7 42 -1
7 10 21 14 64 22 18 3 25 9 21 18 -3 8 0 14 6 14 6 0 11 -4 11 -10 0 -16 32
-11 45 7 9 12 27 16 66 16 39 0 46 2 24 6 -18 4 -25 9 -19 14 7 4 26 2 43 -4
18 -6 35 -9 38 -5 4 3 -1 6 -9 6 -9 0 -18 6 -21 13 -3 10 -13 10 -50 0 -61
-17 -82 -16 -96 1 -9 11 -7 15 9 19 12 3 23 -1 29 -11 8 -14 13 -14 36 -4 35
16 66 15 104 -4 26 -13 38 -14 57 -5 13 6 24 15 24 21 0 6 37 10 95 10 74 0
95 -3 95 -14 0 -13 58 -31 68 -21 3 3 0 5 -8 5 -10 0 -10 3 0 15 7 8 18 15 25
15 14 0 15 -31 2 -41 -4 -3 12 -12 35 -19 24 -8 46 -19 50 -24 4 -6 10 -7 14
-4 3 4 -9 16 -27 28 -19 12 -26 20 -17 18 9 -2 17 2 16 7 0 6 -5 9 -11 7 -9
-3 -9 0 -1 8 6 6 18 8 28 4 13 -5 14 -9 5 -20 -9 -11 -6 -19 15 -35 14 -11 24
-25 21 -30 -4 -5 2 -6 11 -2 13 5 16 3 11 -10 -4 -11 -2 -14 9 -10 10 4 12 0
8 -11 -5 -12 -2 -15 12 -9 13 5 16 3 11 -10 -3 -9 -1 -19 5 -23 7 -5 8 -2 3 6
-5 8 -3 11 6 8 8 -3 13 -17 12 -34 -1 -16 1 -22 4 -14 3 8 11 18 16 22 6 4 4
13 -7 24 -10 9 -14 20 -9 23 4 3 14 16 21 29 10 18 10 22 -2 22 -8 0 -16 5
-18 11 -2 6 -14 8 -31 4 -15 -4 -24 -11 -21 -17 3 -5 -3 -4 -15 4 -12 7 -19
18 -17 24 2 6 -1 11 -7 10 -7 0 -14 3 -17 8 -3 5 19 10 48 10 49 1 55 -2 80
-34 41 -51 42 -54 33 -88 -7 -22 -6 -32 2 -35 7 -3 0 -8 -15 -12 -22 -6 -26
-12 -23 -33 4 -33 23 -82 24 -63 2 34 12 -1 16 -55 3 -42 2 -53 -5 -39 -7 15
-8 12 -4 -16 3 -19 0 -71 -7 -115 -7 -43 -12 -91 -12 -106 0 -15 -4 -25 -8
-22 -5 3 -9 -2 -9 -10 0 -8 5 -18 10 -21 6 -4 8 -11 5 -16 -4 -5 -3 -9 2 -9
14 1 65 79 58 90 -3 5 -1 10 5 10 8 0 8 6 0 20 -9 16 -8 19 6 13 14 -5 15 -3
5 15 -6 11 -11 32 -11 46 0 14 -4 26 -10 26 -16 0 -11 33 9 58 20 23 41 29 41
13 0 -6 -5 -13 -11 -17 -8 -5 -8 -9 1 -14 7 -4 12 -25 12 -46 0 -34 1 -36 13
-21 7 10 12 28 11 40 -2 13 4 29 12 36 12 12 13 11 7 -10 -5 -18 -4 -20 4 -9
6 8 8 24 5 35 -4 11 -3 17 1 13 10 -9 68 130 60 142 -7 11 16 61 25 55 9 -6
23 62 15 74 -3 5 0 11 6 13 9 3 9 9 0 25 -7 15 -8 34 -2 60 l9 38 2 -45 c3
-45 3 -45 11 15 9 69 1 177 -14 187 -7 4 -7 11 2 22 9 11 10 20 2 33 -8 14
-10 15 -11 3 0 -8 -7 -2 -15 14 -8 15 -15 33 -14 40 0 6 5 1 11 -11 6 -13 15
-23 20 -23 5 0 7 3 5 8 -2 4 -13 28 -25 54 -24 53 -40 67 -54 47 -7 -11 -8 -9
-4 5 8 24 -21 69 -40 62 -8 -3 -14 -1 -14 3 0 5 -10 7 -22 5 -13 -2 -17 -2
-10 2 25 12 11 23 -23 17 -28 -4 -35 -2 -35 11 0 11 -9 16 -27 16 -22 0 -25 2
-13 10 12 8 10 10 -8 10 -13 0 -20 -4 -17 -10 7 -11 -30 -8 -41 3 -4 4 -17 7
-28 8 -18 0 -18 2 -4 7 22 9 -153 10 -220 1z m41 -348 c4 0 7 -17 7 -36 l0
-35 -160 0 c-100 0 -160 -4 -160 -10 0 -6 -33 -10 -80 -10 -73 0 -80 2 -80 20
0 18 7 20 81 20 81 0 81 0 75 24 -3 14 -1 26 5 28 9 3 292 2 312 -1z"/>
<path d="M1554 2674 c3 -8 2 -12 -4 -9 -5 3 -12 -10 -16 -30 -6 -34 -24 -59
-24 -34 0 14 -29 -21 -30 -35 0 -6 7 -1 15 10 22 29 18 4 -6 -35 -11 -18 -17
-36 -14 -39 3 -4 10 0 15 8 8 12 10 12 10 -4 0 -12 5 -16 15 -12 12 4 13 2 5
-13 -14 -27 -32 -31 -55 -12 -19 16 -19 15 -3 -4 18 -22 14 -38 -14 -48 -12
-4 -15 -2 -11 9 3 7 1 14 -5 14 -5 0 -12 -15 -16 -32 -5 -23 -9 -29 -15 -20
-6 10 -11 6 -19 -16 -7 -22 -7 -33 1 -41 9 -9 8 -11 -4 -6 -11 4 -20 -3 -29
-25 -7 -17 -10 -33 -7 -37 4 -3 0 -15 -8 -27 -19 -26 -19 -40 -1 -33 11 4 13
1 9 -10 -4 -11 -2 -14 5 -9 8 5 10 2 5 -9 -3 -9 -9 -13 -12 -8 -3 4 -12 9 -19
11 -10 2 -12 -6 -7 -30 5 -25 4 -29 -4 -18 -9 13 -11 13 -11 -1 0 -8 6 -21 13
-28 10 -10 9 -11 -6 -5 -13 5 -16 2 -10 -12 4 -12 3 -15 -5 -10 -14 8 -15 -3
-4 -21 9 -15 82 120 82 150 0 11 4 15 12 11 8 -5 9 -2 5 9 -4 11 -1 17 7 17
36 0 54 68 23 86 -17 10 -18 12 -3 27 9 9 13 23 10 34 -4 13 -3 14 4 5 7 -11
10 -11 15 2 4 9 11 16 17 16 5 0 1 -15 -10 -32 -25 -41 -25 -50 -2 -46 24 4
55 45 48 64 -4 11 -2 15 8 11 15 -6 30 19 20 34 -3 6 2 21 11 35 9 13 13 29 9
35 -8 14 4 59 16 59 6 0 9 -6 8 -12 -2 -7 6 -13 17 -13 16 0 20 6 18 34 -1 19
-8 38 -14 42 -7 4 -13 18 -15 31 -1 12 -3 26 -3 31 -1 4 -6 7 -12 7 -6 0 -8
-7 -5 -16z"/>
</g>
</svg>
