<svg xmlns="http://www.w3.org/2000/svg" viewBox="0 0 22 22"><path fill="#fff" d="m14.16 8-3.22 3.23c-.78.77-1.41.92-1.9.44-.5-.52-.38-1.16.39-1.94l2-2c.7-.73.7-1.48-.05-2.25-.74-.74-1.5-.74-2.25.02l-2 1.98c-2.27 2.28-2.4 4.4-.38 6.4 2.04 2.04 4.2 1.92 6.48-.38l3.22-3.22c.76-.74 1.39-.86 1.89-.36.5.53.38 1.17-.37 1.92l-5.42 5.41-.47.47c-.76.76-1.52.76-2.29 0l-5.85-5.85c-.78-.79-.81-1.54-.08-2.26l4.77-4.77.03-.02.5-.52c.8-.78 1.54-.8 2.26-.08l1.72 1.72c.76.74 1.51.75 2.25.03.74-.75.72-1.5-.06-2.28l-1.66-1.66c-2.23-2.23-4.48-2.22-6.7.05l-.4.39-.2.18-4.7 4.71C-.57 9.6-.56 11.84 1.7 14.1l5.8 5.8c2.3 2.3 4.55 2.32 6.79.08l.15-.15-.53.54 6.31-6.3c2.25-2.25 2.37-4.4.36-6.42-1.98-2-4.12-1.87-6.42.36Z"/></svg>
