<svg width="24" height="24" viewBox="0 0 24 24" fill="none" xmlns="http://www.w3.org/2000/svg"><path d="M9.36418 10.1451C9.75471 9.75457 10.3879 9.75457 10.7784 10.1451C11.1689 10.5356 11.1689 11.1688 10.7784 11.5593L5.12154 17.2162C4.73102 17.6067 4.09785 17.6067 3.70733 17.2162C3.3168 16.8256 3.3168 16.1925 3.70733 15.8019L9.36418 10.1451Z" fill="#555"/><path d="M18.6489 8.11609L20.0631 9.5303L14.4063 15.1872C14.0158 15.5777 13.3826 15.5777 12.9921 15.1872C12.6015 14.7966 12.6015 14.1635 12.9921 13.7729L18.6489 8.11609Z" fill="#555"/><path d="M9.45647 10.2374C9.84699 9.84686 10.4802 9.84686 10.8707 10.2374L14.4062 13.7729C14.7967 14.1634 14.7967 14.7966 14.4062 15.1871C14.0157 15.5777 13.3825 15.5777 12.992 15.1871L9.45647 11.6516C9.06594 11.2611 9.06594 10.6279 9.45647 10.2374Z" fill="#555"/><path d="M21.9895 5.99997H16.6723C16.4941 5.99997 16.4049 6.2154 16.5309 6.34139L21.848 11.6585C21.974 11.7845 22.1895 11.6953 22.1895 11.5171V6.19997C22.1895 6.08951 22.0999 5.99997 21.9895 5.99997Z" fill="#555"/><path fill-rule="evenodd" clip-rule="evenodd" d="M20.9772 16.4298C20.5125 16.1487 19.9097 16.3316 19.6201 16.7911C18.0268 19.3199 15.2096 21 12 21C7.02944 21 3 16.9706 3 12C3 7.02944 7.02944 3 12 3C12.9773 3 13.9183 3.15578 14.7994 3.44388C15.2678 3.59704 15.7941 3.41181 16.0145 2.971C16.2884 2.42314 16.0526 1.75211 15.4713 1.55895C14.3801 1.19633 13.213 1 12 1C5.92487 1 1 5.92487 1 12C1 18.0751 5.92487 23 12 23C15.9414 23 19.3987 20.927 21.341 17.8119C21.6381 17.3354 21.4577 16.7204 20.9772 16.4298Z" fill="#555"/></svg>
