<svg width="24" height="24" viewBox="0 0 24 24" fill="none" xmlns="http://www.w3.org/2000/svg"><path fill-rule="evenodd" clip-rule="evenodd" d="M2.4 6C2.17909 6 2 6.17909 2 6.4V7.81593C2 7.99845 2.12437 8.15582 2.29704 8.21498C3.86956 8.75371 5 10.2448 5 12C5 13.7552 3.86956 15.2463 2.29704 15.785C2.12437 15.8442 2 16.0016 2 16.1841V17.6C2 17.8209 2.17909 18 2.4 18H7.6C7.82091 18 8 17.8209 8 17.6V6.4C8 6.17909 7.82091 6 7.6 6H2.4ZM10.4 6C10.1791 6 10 6.17909 10 6.4V17.6C10 17.8209 10.1791 18 10.4 18H21.6C21.8209 18 22 17.8209 22 17.6V16.1841C22 16.0016 21.8756 15.8442 21.703 15.785C20.1304 15.2463 19 13.7552 19 12C19 10.2448 20.1304 8.75371 21.703 8.21498C21.8756 8.15582 22 7.99845 22 7.81593V6.4C22 6.17909 21.8209 6 21.6 6H10.4ZM0 17V18V19C0 19.5523 0.447715 20 1 20H2H22H23C23.5523 20 24 19.5523 24 19V18V16V15.874V15C24 14.4477 23.5523 14 23 14C22.6357 14 22.2942 13.9026 22 13.7324C21.4022 13.3866 21 12.7403 21 12C21 11.2597 21.4022 10.6134 22 10.2676C22.2942 10.0974 22.6357 10 23 10C23.5523 10 24 9.55228 24 9V8.12602V8V6V5C24 4.44772 23.5523 4 23 4H22H2H1C0.447715 4 0 4.44772 0 5V6V7V8.12602V9C0 9.55228 0.447715 10 1 10C1.36429 10 1.70583 10.0974 2 10.2676C2.5978 10.6134 3 11.2597 3 12C3 12.7403 2.5978 13.3866 2 13.7324C1.70583 13.9026 1.36429 14 1 14C0.447715 14 0 14.4477 0 15V15.874V17Z" fill="#000"/></svg>
