<svg xmlns="http://www.w3.org/2000/svg" width="51" height="400" viewBox="0px 0 51 400"><g fill="#fff" fill-rule="evenodd"><path d="M14.85 231.61c-3.54-.02-6.43 2.55-6.55 6.12l-5.11-9.05c2.72-3.48 6.94-5.7 11.66-5.68 5.81.03 10.82 3.63 13.2 8.6l-13.2.01zm0 0"/><path d="M8.67 240.29l.04-.02c.93 2.49 3.29 4.27 6.07 4.29 1.08 0 2.1-.26 3-.73l-5.1 9C5.48 251.8-.04 245.5 0 237.91c.02-3.11.97-6 2.58-8.39l6.09 10.77zm0 0"/><path d="M21.32 237.97c0-2.37-1.22-4.45-3.07-5.62l10.19.02c.7 1.75 1.08 3.66 1.08 5.66-.01 8.28-6.64 14.98-14.79 14.97-.33 0-.66-.02-.99-.04l6.03-10.73a6.677 6.677 0 0 0 1.55-4.26zm0 0"/><path d="M14.76 243.49c-3.04-.02-5.49-2.53-5.48-5.62.02-3.09 2.5-5.58 5.54-5.56 3.04.01 5.5 2.53 5.48 5.62-.01 3.09-2.49 5.58-5.54 5.56zm0 0"/></g><path fill="#fff" fill-rule="evenodd" d="M26.93 159.497c-.1-.41-.23-.95-.37-1.49.08-.02.15-.04.22-.06 1.63 2.03 1.76 4.62 2.23 7.18.09-.41.16-.74.24-1.07h.12c.05.14.13.28.13.42.04 4.47-.68 8.73-3.14 12.49-2.18 3.33-5.29 5.1-9.04 5.77-3.18.56-6.26.27-9.13-1.3-4.14-2.26-6.5-5.96-7.56-10.63-.02-.07-.05-.14-.1-.28-.06.11-.1.17-.26.42v-4.08l-.27.1c.09-.51.11-.98.26-1.4.45-1.31.97-2.6 1.43-3.92.12-.34.17-.73.17-1.09-.01-1.36.21-2.66.91-3.83.17-.28.41-.52.66-.83.26.69.47 1.25.74 1.96 3.31-3.53 7.23-5.22 11.81-4.77 4.55.44 8.1 2.88 10.95 6.41zm-5.32-3.72c-6.18-3.85-13.59-1.66-16.92 2.8.4.05.7.13 1.01.13.77.02 1.54.02 2.3-.02.27-.01.59-.08.78-.25.9-.8 1.96-1.17 3.1-1.36.16-.03.34.04.56.07-.52.59-1.04 1.04-1.4 1.6-.91 1.42-.28 2.63 1.35 2.7.41.02.82 0 1.23.01.85.02 1.1.43.7 1.22-.13.26-.38.48-.61.65-.52.39-1.05.75-1.6 1.1-.43.28-.52.66-.43 1.16.08.48.09.97.14 1.58-.35-.12-.57-.17-.77-.26-.51-.23-.99-.21-1.34.28-.36.49-.3 1.02 0 1.53.69 1.16 2.32 1.86 3.57 1.48.58-.18 1.14-.47 1.73-.62 1.08-.29 2.03.01 2.78.87.41.48.23 1.11-.33 1.11-.8 0-1.33.52-1.96.87-.69.39-1.42.73-2.16.98-.53.18-1.1.16-1.82.25 1.91 1.25 3.72 2.29 5.95 1.83 2.22-.45 3.48-2.2 4.72-3.98.06.03.12.07.18.11-.1.62-.2 1.23-.31 1.85 1.32-1.86 1.27-4.01 1.18-6.17.05-.02.11-.05.16-.07.31.27.61.55.93.84.44-1.85.37-3.68.04-5.58.22.07.32.08.38.13.21.18.41.36.68.6-1.01-3.18-3.31-4.71-6.2-5.53l.09-.21 2.39-.45c0-.07.01-.13.02-.2l-3.6-1.11c1.11-.44 2.2-.13 3.48.06zm.38 49.793h7.41c.07-.57.14-1.16.11-1.75-.3-6.17-3.82-11.16-8.9-13.01l.39.08s9.37-4.42 6.25 5.39l.38.68s2.73-7.48-1.67-8.73c-3.61-1.02-8.94 1.81-8.94 1.81l.2.05c-.33-.03-.67-.05-1.01-.05-6.59 0-12.06 4.85-13.11 11.46.75-.91 3.43-4.26 6.44-6.35 0 0-5.13 4.76-6.62 8.67 0 0-1.9 3.5-2.53 6.12-.38 1.59-1.35 7.28 2.53 7.93 4.04.68 7.22-1.54 7.22-1.54l-.08-.05c1.84 1.02 3.93 1.59 6.15 1.59 5.89 0 10.87-4.03 12.62-9.63h-7.6c-1.04 2.21-2.87 3.23-5.04 3.23-2.88 0-5-2.25-5.54-5.9h11.34zM9.24 215.79s-2.23 1.18-4.11 1.23c-5.76-.05-1.45-8.5-1.45-8.5v-.01c1.02 3.05 3.01 5.62 5.58 7.29l-.02-.01zm6.97-19.23c3.34 0 4.9 2.04 5.28 5.05H10.7c.58-2.98 2.49-5.05 5.51-5.05zm26.61 50.46v.98H37v-1.57h4.852V230h.967v17.02zm0 0"/><g fill="none" stroke="#999"><path d="M25.5 101.5c13.81 0 25-11.19 25-25s-11.19-25-25-25-25 11.19-25 25 11.19 25 25 25zm0 0"/><path d="M15.5 72.49c0-1.1.9-1.99 1.99-1.99h16.02c1.1 0 1.99.89 1.99 1.99v12.02c0 1.1-.9 1.99-1.99 1.99H17.49c-1.1 0-1.99-.89-1.99-1.99V72.49zm0 0"/><path d="M32.5 71.5c0-4.42-3.13-8-7-8s-7 3.58-7 8h14zm0 0"/></g><g fill="none" stroke="#999"><path d="M25.5 152.5c13.81 0 25-11.19 25-25s-11.19-25-25-25-25 11.19-25 25 11.19 25 25 25zm0 0"/><path d="M39.48 148.23c-3.99 2.7-8.8 4.27-13.98 4.27s-9.99-1.57-13.98-4.27c-.01-.24-.02-.49-.02-.73 0-7.73 6.27-14 14-14s14 6.27 14 14c0 .24-.01.49-.02.73zM26 129.5c4.69 0 8.5-3.81 8.5-8.5 0-4.69-3.81-8.5-8.5-8.5-4.69 0-8.5 3.81-8.5 8.5 0 4.69 3.81 8.5 8.5 8.5zm0 0"/></g><path fill="none" stroke="#999" d="M25.5 50.5c13.81 0 25-11.19 25-25S39.31.5 25.5.5s-25 11.19-25 25 11.19 25 25 25zm0 0"/><path fill="#999" fill-rule="evenodd" d="M23.2 29.53c0 1.65-.55 2.93-1.65 3.84-1.09.91-2.64 1.36-4.63 1.36-.83 0-1.56-.05-2.19-.17-.63-.11-1.22-.3-1.77-.56v-2c1.26.66 2.59.99 3.98.99 1.27 0 2.27-.3 3.01-.89.75-.59 1.12-1.4 1.12-2.43 0-.61-.21-1.14-.62-1.61-.41-.46-1.17-1.01-2.29-1.65-1.18-.66-2-1.32-2.45-1.99-.46-.66-.69-1.45-.69-2.35 0-1.46.52-2.65 1.55-3.57 1.03-.92 2.38-1.38 4.06-1.38.78 0 1.5.08 2.16.22.67.15 1.38.41 2.12.77l-.77 1.75c-.52-.29-1.1-.53-1.74-.7-.64-.17-1.23-.26-1.77-.26-1.04 0-1.89.27-2.52.82-.64.54-.96 1.28-.96 2.21 0 .42.07.78.2 1.08.13.3.35.58.63.85.29.27.85.64 1.67 1.11 1.15.69 1.92 1.23 2.32 1.62.41.39.71.82.92 1.29.21.48.31 1.03.31 1.65zm10.37-12.16c3.38 0 5.06 1.31 5.06 3.93 0 1.11-.34 2.04-1.02 2.79-.68.76-1.63 1.25-2.87 1.48v.12c.9.25 1.59.68 2.07 1.29.48.62.72 1.35.72 2.21 0 1.66-.59 2.96-1.78 3.9s-2.78 1.41-4.77 1.41h-5.43l3.63-17.13h4.39zm-3.94 7.33h2.91c1.22 0 2.19-.28 2.92-.85.72-.57 1.09-1.35 1.09-2.33 0-.82-.26-1.42-.78-1.83-.52-.4-1.34-.6-2.46-.6h-2.47l-1.21 5.61zm-1.72 8.1h3.12c1.41 0 2.5-.31 3.26-.94.75-.63 1.13-1.52 1.13-2.67 0-.9-.29-1.6-.87-2.08-.58-.48-1.42-.72-2.51-.72h-2.77l-1.36 6.41zm0 0"/><svg height="51" width="51" viewBox="0px 0 51 51" y="263"><g transform="translate(1 1)" fill="none" fill-rule="evenodd"><g transform="translate(13 12)"><circle stroke="#979797" cx="10.5" cy="6.5" r="6.5"/><rect stroke="#A5A5A5" fill="#fff" x=".5" y="7.5" width="20" height="15" rx="2"/><path d="M9.429 14.997C8.584 14.577 8 13.672 8 12.625 8 11.175 9.12 10 10.5 10s2.5 1.175 2.5 2.625c0 1.047-.584 1.951-1.429 2.372V19H9.43v-4.003z" stroke="#787878" stroke-width=".5"/></g><circle stroke="#979797" cx="23.5" cy="23.5" r="23.5"/></g></svg><svg height="51" width="51" viewBox="0px 0 51 51" y="324"><g transform="translate(1 1)" fill="none" fill-rule="evenodd"><g fill="#A3A3A3" fill-rule="nonzero"><path d="M14.919 27l-3.304-12.962H8V12h5.194l.779 3.056L35 15.04 32.765 27H14.919zm-.427-10.904l2.117 9.866h15.386l1.555-9.882-19.058.016zM17.294 35C15.478 35 14 33.43 14 31.5s1.478-3.5 3.294-3.5h12.412C31.522 28 33 29.57 33 31.5S31.522 35 29.706 35c-1.817 0-3.295-1.57-3.295-3.5 0-.464.086-1.906.24-2.311h-6.303c.155.405.24 1.847.24 2.311 0 1.93-1.477 3.5-3.294 3.5zm11.177-3.5c0 .723.554 1.311 1.235 1.311.68 0 1.234-.588 1.234-1.311s-.554-1.311-1.234-1.311c-.68 0-1.235.588-1.235 1.311zm-12.411 0c0 .723.554 1.311 1.234 1.311.68 0 1.234-.588 1.234-1.311s-.553-1.311-1.234-1.311c-.68 0-1.234.588-1.234 1.311z"/></g><circle stroke="#979797" cx="23.5" cy="23.5" r="23.5"/></g></svg></svg>
