<svg width="24" height="24" viewBox="0 0 24 24" fill="none" xmlns="http://www.w3.org/2000/svg"><path fill-rule="evenodd" clip-rule="evenodd" d="M8.58696 4.23913C8.58696 3.27864 9.36559 2.5 10.3261 2.5H14.6739C15.6344 2.5 16.413 3.27864 16.413 4.23913V5.63043C16.413 5.82253 16.5688 5.97826 16.7609 5.97826H20.7609C21.7214 5.97826 22.5 6.7569 22.5 7.71739V19.0217C22.5 19.9822 21.7214 20.7609 20.7609 20.7609H4.23913C3.27863 20.7609 2.5 19.9822 2.5 19.0217V7.71739C2.5 6.7569 3.27864 5.97826 4.23913 5.97826H8.23913C8.43123 5.97826 8.58696 5.82253 8.58696 5.63043V4.23913ZM10.3261 5.63043C10.3261 5.82253 10.4818 5.97826 10.6739 5.97826H14.3261C14.5182 5.97826 14.6739 5.82253 14.6739 5.63043V4.58696C14.6739 4.39486 14.5182 4.23913 14.3261 4.23913H10.6739C10.4818 4.23913 10.3261 4.39486 10.3261 4.58696V5.63043ZM20.2391 7.71739C20.5273 7.71739 20.7609 7.95098 20.7609 8.23913V18.5C20.7609 18.7881 20.5273 19.0217 20.2391 19.0217H19.3696C19.1775 19.0217 19.0217 18.866 19.0217 18.6739V8.06522C19.0217 7.87312 19.1775 7.71739 19.3696 7.71739H20.2391ZM17.2826 8.06522C17.2826 7.87312 17.1269 7.71739 16.9348 7.71739H8.06522C7.87312 7.71739 7.71739 7.87312 7.71739 8.06522V18.6739C7.71739 18.866 7.87312 19.0217 8.06522 19.0217H16.9348C17.1269 19.0217 17.2826 18.866 17.2826 18.6739V8.06522ZM5.63043 7.71739C5.82253 7.71739 5.97826 7.87312 5.97826 8.06522V18.6739C5.97826 18.866 5.82253 19.0217 5.63043 19.0217H4.76087C4.47272 19.0217 4.23913 18.7881 4.23913 18.5V8.23913C4.23913 7.95098 4.47272 7.71739 4.76087 7.71739H5.63043Z" fill="#156477"/></svg>
