<svg width="24" height="24" xmlns="http://www.w3.org/2000/svg">
<path fill-rule="evenodd" clip-rule="evenodd" d="M22 12C22 17.5228 17.5228 22 12 22C6.47715 22 2 17.5228 2 12C2 6.47715 6.47715 2 12 2C17.5228 2 22 6.47715 22 12ZM24 12C24 18.6274 18.6274 24 12 24C5.37258 24 0 18.6274 0 12C0 5.37258 5.37258 0 12 0C18.6274 0 24 5.37258 24 12ZM17.566 9.145C17.749 13.185 14.736 17.689 9.40201 17.689C7.78 17.689 6.271 17.213 5 16.398C6.524 16.578 8.045 16.154 9.252 15.209C7.996 15.186 6.935 14.355 6.56799 13.214C7.019 13.3 7.463 13.275 7.866 13.165C6.485 12.887 5.53101 11.643 5.562 10.312C5.95 10.527 6.392 10.656 6.86301 10.671C5.584 9.81599 5.222 8.127 5.974 6.83599C7.39 8.574 9.507 9.717 11.894 9.83699C11.475 8.041 12.838 6.31 14.693 6.31C15.518 6.31 16.265 6.659 16.789 7.217C17.443 7.089 18.059 6.849 18.613 6.52C18.398 7.191 17.943 7.75299 17.35 8.109C17.931 8.039 18.485 7.88499 18.999 7.65599C18.615 8.234 18.129 8.74 17.566 9.145Z" fill="#000"/>
</svg>
