<svg width="24" height="24" fill="none" xmlns="http://www.w3.org/2000/svg"><path fill-rule="evenodd" clip-rule="evenodd" d="M22 12c0 5.523-4.477 10-10 10S2 17.523 2 12 6.477 2 12 2s10 4.477 10 10zm2 0c0 6.627-5.373 12-12 12S0 18.627 0 12 5.373 0 12 0s12 5.373 12 12zm-6.434-2.855c.183 4.04-2.83 8.544-8.164 8.544A8.127 8.127 0 015 16.398a5.778 5.778 0 004.252-1.189 2.879 2.879 0 01-2.684-1.995 2.88 2.88 0 001.298-.049c-1.381-.278-2.335-1.522-2.304-2.853.388.215.83.344 1.301.359a2.877 2.877 0 01-.889-3.835 8.153 8.153 0 005.92 3.001 2.876 2.876 0 014.895-2.62 5.73 5.73 0 001.824-.697 2.884 2.884 0 01-1.263 1.589 5.73 5.73 0 001.649-.453 5.765 5.765 0 01-1.433 1.489z" fill="#333"/></svg>
