<svg width="24" height="24" viewBox="0 0 24 24" fill="none" xmlns="http://www.w3.org/2000/svg"><path fill-rule="evenodd" clip-rule="evenodd" d="M21 5.3002C21 4.96882 20.7314 4.7002 20.4 4.7002H3.6C3.26863 4.7002 3 4.96882 3 5.3002V15.1002C3 15.4316 3.26863 15.7002 3.6 15.7002H20.4C20.7314 15.7002 21 15.4316 21 15.1002V5.3002ZM2 2.7002C1.44772 2.7002 1 3.14791 1 3.7002V16.7002C1 17.2525 1.44772 17.7002 2 17.7002H22C22.5523 17.7002 23 17.2525 23 16.7002V3.7002C23 3.14791 22.5523 2.7002 22 2.7002H2ZM14.9 10.0309C15.0333 10.1079 15.0333 10.3003 14.9 10.3773L10.3038 13.0309C10.1705 13.1079 10.0038 13.0116 10.0038 12.8577V7.5505C10.0038 7.39653 10.1705 7.30031 10.3038 7.37729L14.9 10.0309ZM4 19.3002C3.44772 19.3002 3 19.7479 3 20.3002C3 20.8525 3.44772 21.3002 4 21.3002H20C20.5523 21.3002 21 20.8525 21 20.3002C21 19.7479 20.5523 19.3002 20 19.3002H4Z" fill="#156477"/></svg>
