<svg width="24" height="24" xmlns="http://www.w3.org/2000/svg">
<path fill-rule="evenodd" clip-rule="evenodd" d="M22 12C22 17.5228 17.5228 22 12 22C6.47715 22 2 17.5228 2 12C2 6.47715 6.47715 2 12 2C17.5228 2 22 6.47715 22 12ZM24 12C24 18.6274 18.6274 24 12 24C5.37258 24 0 18.6274 0 12C0 5.37258 5.37258 0 12 0C18.6274 0 24 5.37258 24 12ZM9.4379 16.9327L12.3102 16.9869C12.3147 16.9869 12.3239 16.9869 12.3238 16.9942C13.9233 17.0251 15.4817 16.9282 17.0767 16.8078C18.3497 16.7158 18.6513 15.7623 18.809 14.6253C19.0055 13.2521 19.0489 11.8623 18.9461 10.4797C18.9411 10.4141 18.9363 10.348 18.9315 10.2814C18.8357 8.95848 18.728 7.47168 17.2138 7.1976C16.8916 7.13858 16.5626 7.08672 16.2358 7.07724C13.1419 6.97375 10.0206 6.94746 6.91982 7.16928C6.00128 7.23041 5.40732 7.7921 5.25639 8.73341C4.98904 10.411 4.9342 12.1335 5.07587 13.8252C5.07763 13.8459 5.0794 13.8666 5.08117 13.8874C5.18244 15.0775 5.30078 16.4681 6.6639 16.7557C7.39777 16.9133 8.14495 16.9196 8.89351 16.9259C9.07495 16.9274 9.25647 16.929 9.4379 16.9327ZM12.1119 13.2242C11.6172 13.5178 11.1214 13.812 10.6216 14.1083V9.86599C11.1728 10.1925 11.7201 10.5175 12.2681 10.8428C12.9081 11.2228 13.5488 11.6033 14.1976 11.9872C13.4995 12.4007 12.8068 12.8117 12.1119 13.2242Z" fill="#000"/>
</svg>
