<svg xmlns="http://www.w3.org/2000/svg" width="45" height="90" viewBox="0 0 45 90"><svg width="11" height="9" viewBox="0 0 11 9"><path d="M0 4.8L4.2 9l6.6-7.3L9 0 4.2 5.3 2 3z" fill="#5d5d5d"/></svg><svg width="42" height="61" viewBox="0 0 42 61" y="20"><g fill="#D8D8D8" fill-rule="evenodd"><path d="M19.0388362,41.1567863 L19.0388362,50.3053603 L24.5893328,50.3053603 L24.5893328,41.1567863 C25.9816792,40.2489559 26.9020397,38.6777889 26.9020397,36.8916602 C26.9020397,34.0816602 24.6240846,31.803705 21.8140845,31.803705 C19.0040845,31.803705 16.7261293,34.0816602 16.7261293,36.8916602 C16.7261293,38.6777889 17.6464899,40.2489559 19.0388362,41.1567863 Z M0.999483412,29.8730514 C0.999483412,28.7679583 1.7762465,27.4396604 2.76153269,26.9259514 C2.76153269,26.9259514 11.1753938,21.8590653 21.3513042,21.8590653 C31.5272146,21.8590653 39.9541404,26.9325661 39.9541404,26.9325661 C40.9200779,27.4514582 41.703125,28.7718665 41.703125,29.8730514 L41.703125,50.249274 C41.703125,55.7725225 37.2306885,60.25 31.6937623,60.25 L11.0088461,60.25 C5.48082773,60.25 0.999483412,55.7819859 0.999483412,50.249274 L0.999483412,29.8730514 Z"/><path d="M30.3041096,22.280496 L30.534497,22.280496 L34.0617062,23.2055787 L34.0305643,10.6787122 C34.0209796,6.82324335 31.0573425,2.6672301 27.4111276,1.40891864 C27.4111276,1.40891864 25.6469735,0.25 21,0.25 C16.3530265,0.25 15.0350144,1.32344211 15.0350144,1.32344211 C11.3623168,2.5379454 8.47623558,6.81745803 8.51056314,10.6787122 L8.62193025,23.2055787 L12.2662638,22.280496 L12.4025015,22.280496 C12.4097639,19.3367151 12.4242975,12.6732912 12.4110187,11.2336363 C12.393853,9.37258414 14.3831372,4.07232687 21.3625992,4.07232687 C28.3420611,4.07232687 30.3141797,9.02161059 30.3141797,11.2336363 C30.3141797,12.4679894 30.3088345,17.8044225 30.3041096,22.280496 Z"/></g></svg></svg>
