<svg version="1.0" xmlns="http://www.w3.org/2000/svg" width="1000px" height="301px" viewBox="0 0 10000 3010">
  <g fill="#fff">
    <path d="M3605 2994 c-542 -63 -1060 -234 -1521 -500 -295 -170 -684 -471 -684 -528 0 -25 28 -56 51 -56 8 0 39 14 69 31 654 365 1328 576 2090 655 214 22 699 27 900 8 556 -50 1055 -169 1552 -370 77 -32 96 -36 127 -28 26 7 40 18 52 42 30 60 9 87 -140 185 -412 271 -910 453 -1491 544 -151 24 -195 26 -525 29 -263 2 -392 -1 -480 -12z" />
    <path d="M6283 2783 c-4 -9 4 -44 16 -77 67 -177 85 -228 106 -296 58 -187 67 -293 28 -331 -48 -48 -260 -63 -498 -34 -173 21 -212 20 -220 -5 -15 -47 69 -108 226 -164 214 -76 499 -89 686 -30 82 26 88 37 87 168 -2 253 -125 550 -301 724 -49 48 -70 62 -93 62 -20 0 -33 -6 -37 -17z" />
    <path d="M7705 1784 c-235 -38 -416 -177 -520 -399 -29 -63 -35 -78 -66 -195 -16 -57 -22 -117 -26 -256 -6 -190 3 -267 47 -409 81 -266 266 -451 501 -501 99 -21 270 -14 359 14 160 52 293 167 383 332 147 269 161 702 32 986 -94 207 -262 357 -455 409 -59 16 -205 26 -255 19z m198 -377 c89 -68 117 -166 124 -432 10 -391 -38 -582 -155 -615 -125 -34 -222 14 -270 135 -40 100 -57 441 -32 632 21 154 76 268 143 299 52 23 147 14 190 -19z" />
    <path d="M327 1759 c-150 -35 -264 -148 -313 -309 -19 -62 -18 -270 1 -333 45 -151 159 -276 311 -343 102 -45 285 -82 492 -99 l82 -7 0 -87 c0 -108 -11 -149 -52 -188 -43 -42 -76 -53 -154 -53 -73 0 -126 18 -167 58 -31 29 -67 92 -67 115 0 8 -9 26 -21 41 -23 29 -6 29 -249 1 -165 -20 -175 -39 -109 -200 56 -134 139 -218 284 -286 116 -54 198 -69 371 -69 167 0 237 13 351 65 80 37 162 107 200 172 55 95 56 104 62 578 l6 440 27 58 c15 32 41 75 56 95 42 53 54 80 47 102 -4 11 -66 72 -138 135 -163 142 -170 143 -257 57 -32 -33 -71 -79 -87 -104 l-29 -45 -64 59 c-74 67 -198 133 -279 148 -65 12 -251 11 -304 -1z m371 -321 c65 -16 141 -93 172 -173 19 -49 24 -85 28 -197 l4 -138 -51 0 c-73 0 -196 27 -252 55 -26 14 -61 41 -78 62 -97 117 -76 323 39 381 50 25 72 27 138 10z" />
    <path d="M4370 1754 c-211 -56 -334 -256 -317 -513 16 -256 181 -439 457 -510 80 -21 245 -46 373 -57 l77 -6 0 -92 c0 -109 -19 -159 -76 -202 -32 -25 -48 -29 -116 -33 -69 -3 -85 0 -133 24 -62 30 -85 58 -115 138 -12 32 -29 61 -39 67 -11 6 -54 5 -117 -1 -272 -28 -285 -35 -250 -150 31 -100 69 -163 141 -236 85 -83 175 -131 305 -163 118 -28 352 -28 459 0 218 56 350 188 380 380 6 36 11 227 11 431 0 433 3 453 75 559 58 85 67 104 59 124 -3 8 -66 67 -139 130 -162 140 -169 142 -251 64 -30 -29 -69 -74 -86 -100 -17 -26 -33 -48 -35 -48 -2 0 -36 27 -75 61 -83 69 -189 125 -267 139 -78 15 -257 11 -321 -6z m433 -336 c51 -29 98 -90 128 -165 18 -46 23 -85 27 -190 l4 -133 -56 0 c-70 0 -187 26 -241 52 -91 46 -136 115 -143 223 -7 120 24 190 102 227 51 24 120 18 179 -14z" />
    <path d="M1717 1732 c-16 -17 -17 -89 -17 -835 0 -804 0 -817 20 -837 18 -18 33 -20 185 -20 163 0 166 0 190 25 23 22 25 32 25 117 l0 93 23 -45 c36 -73 132 -163 202 -190 112 -43 281 -38 377 11 52 26 127 105 168 175 l34 60 20 -39 c30 -61 119 -151 183 -184 136 -72 318 -70 456 4 70 39 149 128 175 199 39 106 43 186 36 834 -6 530 -9 617 -22 633 -13 15 -36 17 -198 17 l-183 0 -20 -27 c-21 -26 -21 -33 -21 -599 1 -611 1 -609 -48 -661 -51 -53 -164 -56 -234 -7 -25 17 -52 49 -67 79 l-26 50 -5 561 c-5 535 -6 563 -24 583 -18 20 -29 21 -201 21 -163 0 -184 -2 -198 -18 -15 -17 -17 -69 -17 -533 0 -314 -4 -543 -11 -590 -19 -134 -71 -189 -177 -189 -69 0 -117 23 -149 72 -50 75 -53 111 -53 679 0 517 0 527 -21 553 l-20 26 -183 0 c-164 0 -185 -2 -199 -18z" />
    <path d="M8740 1730 c-20 -20 -20 -33 -20 -834 l0 -815 26 -20 c25 -19 40 -21 189 -21 157 0 162 1 184 24 21 22 22 31 19 134 -2 61 0 108 5 105 4 -2 7 -9 7 -15 0 -6 15 -36 34 -67 82 -133 186 -199 330 -208 48 -3 112 0 149 7 125 23 239 115 289 230 46 106 48 143 48 830 0 632 -1 650 -19 660 -12 6 -94 10 -199 10 -161 0 -181 -2 -195 -18 -15 -17 -17 -70 -17 -548 0 -558 -5 -624 -48 -697 -26 -45 -72 -69 -135 -69 -95 -1 -152 48 -196 169 l-25 68 -4 525 c-3 439 -6 529 -18 548 -14 21 -19 22 -199 22 -172 0 -186 -1 -205 -20z" />
    <path d="M5730 1683 c-21 -27 -22 -36 -18 -188 3 -141 6 -165 26 -205 12 -25 156 -236 320 -470 l298 -425 -276 -2 c-338 -4 -310 13 -310 -179 0 -121 2 -136 20 -154 20 -20 33 -20 558 -20 509 0 540 1 555 18 14 15 17 41 17 145 l0 126 -63 93 c-35 51 -168 242 -296 423 l-231 330 122 11 c187 18 340 61 442 124 50 30 56 55 56 215 0 134 -2 147 -21 166 -25 25 -33 23 -150 -25 -167 -69 -230 -81 -449 -80 -177 0 -204 3 -290 26 -52 14 -130 42 -174 62 -43 20 -87 36 -97 36 -9 0 -27 -12 -39 -27z" />
  </g>
</svg>
