<svg xmlns="http://www.w3.org/2000/svg" width="21" height="21"><style>.shp1{fill:#69b7d6}</style><g><path d="M10.74,19.62c5,0 9.06,-4.06 9.06,-9.06c0,-5 -4.06,-9.06 -9.06,-9.06c-5,0 -9.06,4.06 -9.06,9.06c0,5 4.06,9.06 9.06,9.06z" fill="#fff" stroke="#69b7d6"/><g><path class="shp1" d="M5.56,9.36l4.53,4.53c0.25,0.25 0.65,0.25 0.91,0h0c0.25,-0.25 0.25,-0.65 0,-0.91l-4.53,-4.53c-0.25,-0.25 -0.65,-0.25 -0.91,0h0c-0.25,0.25 -0.25,0.65 0,0.91z"/><path class="shp1" d="M14.61,8.45l-4.53,4.53c-0.25,0.25 -0.25,0.65 0,0.91h0c0.25,0.25 0.65,0.25 0.91,0l4.53,-4.53c0.25,-0.25 0.25,-0.65 0,-0.91h0c-0.25,-0.25 -0.65,-0.25 -0.91,0z"/></g></g></svg>
